SplineFontDB: 3.2
FontName: Leipzig
FullName: Leipzig
FamilyName: Leipzig
Weight: Regular
Copyright: 1998 ARMANDO HERNANDEZ MARROQUIN <mquin@sancristobal.podernet.com.mx>\nDownloaded at <http://www.enpassant.dk/chess/fonteng.htm>\nMissing white King on dark square glyph synthesized by Dejan Budimir with <https://fontforge.org>
UComments: "2021-11-6: Created with FontForge (http://fontforge.org)"
Version: 1.0
ItalicAngle: 0
UnderlinePosition: -204
UnderlineWidth: 102
Ascent: 1638
Descent: 410
InvalidEm: 0
LayerCount: 2
Layer: 0 0 "Back" 1
Layer: 1 0 "Fore" 0
XUID: [1021 765 -1808793450 15528]
StyleMap: 0x0000
FSType: 0
OS2Version: 0
OS2_WeightWidthSlopeOnly: 0
OS2_UseTypoMetrics: 1
CreationTime: 1636220453
ModificationTime: 1636221843
OS2TypoAscent: 0
OS2TypoAOffset: 1
OS2TypoDescent: 0
OS2TypoDOffset: 1
OS2TypoLinegap: 184
OS2WinAscent: 0
OS2WinAOffset: 1
OS2WinDescent: 0
OS2WinDOffset: 1
HheadAscent: 0
HheadAOffset: 1
HheadDescent: 0
HheadDOffset: 1
OS2Vendor: 'PfEd'
MarkAttachClasses: 1
DEI: 91125
Encoding: ISO8859-1
UnicodeInterp: none
NameList: AGL For New Fonts
DisplaySize: -48
AntiAlias: 1
FitToEm: 0
WinInfo: 48 16 8
BeginPrivate: 0
EndPrivate
BeginChars: 256 27

StartChar: A
Encoding: 65 65 0
Width: 2048
VWidth: 1638
Flags: HW
LayerCount: 2
Fore
SplineSet
1024 -206 m 1
 1486 -206 l 1
 1466 -126.666992188 1427.66699219 -56.3330078125 1371 5 c 0
 1349 30.3330078125 1328.33300781 51.3330078125 1309 68 c 0
 1245 120 1192.66699219 181.333007812 1152 252 c 1
 1109.33300781 236 1066.66699219 228 1024 228 c 0
 980 228 937.333007812 236 896 252 c 1
 852.666992188 180 800.333007812 118.666992188 739 68 c 0
 719 51.3330078125 698.333007812 30.3330078125 677 5 c 0
 619.666992188 -56.3330078125 581.333007812 -126.666992188 562 -206 c 1
 1024 -206 l 1
1024 295 m 0
 1099.33300781 295 1163.66699219 321.666992188 1217 375 c 128
 1270.33300781 428.333007812 1297 493 1297 569 c 0
 1297 631 1277.66699219 686.666992188 1239 736 c 0
 1194.33300781 793.333007812 1160 854 1136 918 c 1
 1096 923.333007812 1058.66699219 926 1024 926 c 0
 987.333007812 926 950 923.333007812 912 918 c 1
 884.666992188 850 850 789.333007812 808 736 c 0
 769.333007812 686.666992188 750 631 750 569 c 0
 750 493 776.666992188 428.333007812 830 375 c 128
 883.333007812 321.666992188 948 295 1024 295 c 0
1024 1230 m 256
 1092 1230 1126 1264 1126 1332 c 256
 1126 1400 1092 1434 1024 1434 c 256
 956 1434 922 1400 922 1332 c 256
 922 1264 956 1230 1024 1230 c 256
1024 994 m 0
 1074.66699219 994 1119.66699219 987.666992188 1159 975 c 1
 1143.66699219 1003 1127.83300781 1034.16699219 1111.5 1068.5 c 128
 1095.16699219 1102.83300781 1084.66699219 1137 1080 1171 c 1
 1061.33300781 1165.66699219 1042.66699219 1163 1024 1163 c 0
 1004 1163 985 1165.66699219 967 1171 c 1
 961.666992188 1137 951 1102.83300781 935 1068.5 c 128
 919 1034.16699219 903.666992188 1003 889 975 c 1
 941.666992188 987.666992188 986.666992188 994 1024 994 c 0
1024 -273 m 1
 479 -273 l 1
 491.666992188 -129.666992188 552.666992188 -8.6669921875 662 90 c 0
 680 106.666992188 690 115.666992188 692 117 c 0
 748.666992188 163.666992188 797 219.333007812 837 284 c 1
 734.333007812 351.333007812 683 446.333007812 683 569 c 0
 683 645 706 713.333007812 752 774 c 0
 767.333007812 793.333007812 783.833007812 815.333007812 801.5 840 c 128
 819.166992188 864.666992188 833.333007812 888.666992188 844 912 c 1
 828 908 803.833007812 901.666992188 771.5 893 c 128
 739.166992188 884.333007812 715.333007812 877 700 871 c 1
 746 913.666992188 789.833007812 964.333007812 831.5 1023 c 128
 873.166992188 1081.66699219 897.666992188 1144 905 1210 c 1
 871 1244.66699219 854 1285.33300781 854 1332 c 256
 854 1378.66699219 870.5 1418.66699219 903.5 1452 c 128
 936.5 1485.33300781 976.666992188 1502 1024 1502 c 0
 1070 1502 1109.66699219 1485.33300781 1143 1452 c 128
 1176.33300781 1418.66699219 1193 1378.66699219 1193 1332 c 0
 1193 1284.66699219 1176 1244 1142 1210 c 1
 1149.33300781 1144 1174.16699219 1081.66699219 1216.5 1023 c 128
 1258.83300781 964.333007812 1303 913.666992188 1349 871 c 1
 1333.66699219 877 1309.5 884.333007812 1276.5 893 c 128
 1243.5 901.666992188 1219 908 1203 912 c 1
 1213.66699219 888.666992188 1227.83300781 864.666992188 1245.5 840 c 128
 1263.16699219 815.333007812 1280 793.333007812 1296 774 c 0
 1342 713.333007812 1365 645 1365 569 c 0
 1365 446.333007812 1313.66699219 351.333007812 1211 284 c 1
 1249 220 1297 164.333007812 1355 117 c 0
 1365 109 1375 100 1385 90 c 0
 1495 -8.6669921875 1556 -129.666992188 1568 -273 c 1
 1024 -273 l 1
EndSplineSet
Validated: 1
EndChar

StartChar: B
Encoding: 66 66 1
Width: 2048
VWidth: 1638
Flags: HW
LayerCount: 2
Fore
SplineSet
604 -325 m 1
 649 -325 l 1
 563 -410 l 1
 518 -410 l 1
 604 -325 l 1
880 -325 m 1
 926 -325 l 1
 839 -410 l 1
 794 -410 l 1
 880 -325 l 1
1162 -325 m 1
 1210 -325 l 1
 1124 -410 l 1
 1077 -410 l 1
 1162 -325 l 1
1439 -325 m 1
 1487 -325 l 1
 1402 -410 l 1
 1353 -410 l 1
 1439 -325 l 1
1245 1375 m 1
 1243 1384.33300781 1239.66699219 1396.33300781 1235 1411 c 1
 1462 1637 l 1
 1507 1637 l 1
 1245 1375 l 1
647 822 m 1
 0 175 l 1
 0 127 l 1
 713 841 l 1
 701 837.666992188 689.166992188 834.166992188 677.5 830.5 c 128
 665.833007812 826.833007812 655.666992188 824 647 822 c 1
0 1003 m 1
 632 1637 l 1
 677 1637 l 1
 0 960 l 1
 0 1003 l 1
0 1281 m 1
 356 1637 l 1
 401 1637 l 1
 0 1237 l 1
 0 1281 l 1
0 726 m 1
 909 1637 l 1
 954 1637 l 1
 0 684 l 1
 0 726 l 1
1126 1533 m 1
 1118 1537 1107.66699219 1541.33300781 1095 1546 c 1
 1185 1637 l 1
 1230 1637 l 1
 1126 1533 l 1
809 1259 m 1
 0 448 l 1
 0 404 l 1
 823 1228 l 2
 823.666992188 1226.66699219 819 1237 809 1259 c 1
1239 1091 m 1
 1235.66699219 1095.66699219 1232.66699219 1100.5 1230 1105.5 c 128
 1227.33300781 1110.5 1224.66699219 1115.66699219 1222 1121 c 1
 1738 1637 l 1
 1783 1637 l 1
 1239 1091 l 1
630 529 m 1
 0 -101 l 1
 0 -149 l 1
 637 489 l 1
 635 497 632.666992188 510.333007812 630 529 c 1
1949 -410 m 1
 1906 -410 l 1
 2048 -270 l 1
 2048 -315 l 1
 1949 -410 l 1
0 1513 m 1
 0 1557 l 1
 79 1637 l 1
 124 1637 l 1
 0 1513 l 1
1630 -410 m 1
 2048 6 l 1
 2048 -40 l 1
 1677 -410 l 1
 1630 -410 l 1
1610 -203 m 1
 1606 -185.666992188 1603 -173 1601 -165 c 1
 2048 281 l 1
 2048 236 l 1
 1610 -203 l 1
1528 -7 m 1
 1522.66699219 1.6669921875 1516.33300781 11 1509 21 c 1
 2048 560 l 1
 2048 513 l 1
 1528 -7 l 1
1395 143 m 1
 1389.66699219 148.333007812 1386 151.666992188 1384 153 c 0
 1379.33300781 157.666992188 1375 161.666992188 1371 165 c 1
 2048 841 l 1
 2048 796 l 1
 1395 143 l 1
1387 413 m 1
 1397 433.666992188 1404.66699219 456.333007812 1410 481 c 1
 2048 1118 l 1
 2048 1073 l 1
 1387 413 l 1
1395 696 m 1
 1391 707.333007812 1386.66699219 718.333007812 1382 729 c 1
 2048 1394 l 1
 2048 1349 l 1
 1395 696 l 1
434 -218 m 1
 430 -242 427.666992188 -259.666992188 427 -271 c 1
 286 -410 l 1
 241 -410 l 1
 434 -218 l 1
1359 936 m 1
 1354.33300781 940 1349.83300781 944.166992188 1345.5 948.5 c 128
 1341.16699219 952.833007812 1338 956.333007812 1336 959 c 1
 2015 1637 l 1
 2037 1637 2048 1634.66699219 2048 1630 c 1
 1359 936 l 1
710 331 m 1
 719.333007812 320.333007812 726.333007812 312.666992188 731 308 c 1
 13 -410 l 1
 4.3330078125 -410 0 -399.333007812 0 -378 c 1
 710 331 l 1
1024 -206 m 1
 1486 -206 l 1
 1466 -126.666992188 1427.66699219 -56.3330078125 1371 5 c 0
 1349 30.3330078125 1328.33300781 51.3330078125 1309 68 c 0
 1245 120 1192.66699219 181.333007812 1152 252 c 1
 1109.33300781 236 1066.66699219 228 1024 228 c 0
 980 228 937.333007812 236 896 252 c 1
 852.666992188 180 800.333007812 118.666992188 739 68 c 0
 719 51.3330078125 698.333007812 30.3330078125 677 5 c 0
 619.666992188 -56.3330078125 581.333007812 -126.666992188 562 -206 c 1
 1024 -206 l 1
1024 295 m 0
 1099.33300781 295 1163.66699219 321.666992188 1217 375 c 128
 1270.33300781 428.333007812 1297 493 1297 569 c 0
 1297 631 1277.66699219 686.666992188 1239 736 c 0
 1194.33300781 793.333007812 1160 854 1136 918 c 1
 1096 923.333007812 1058.66699219 926 1024 926 c 0
 987.333007812 926 950 923.333007812 912 918 c 1
 884.666992188 850 850 789.333007812 808 736 c 0
 769.333007812 686.666992188 750 631 750 569 c 0
 750 493 776.666992188 428.333007812 830 375 c 128
 883.333007812 321.666992188 948 295 1024 295 c 0
1024 1230 m 256
 1092 1230 1126 1264 1126 1332 c 256
 1126 1400 1092 1434 1024 1434 c 256
 956 1434 922 1400 922 1332 c 256
 922 1264 956 1230 1024 1230 c 256
1024 994 m 0
 1074.66699219 994 1119.66699219 987.666992188 1159 975 c 1
 1143.66699219 1003 1127.83300781 1034.16699219 1111.5 1068.5 c 128
 1095.16699219 1102.83300781 1084.66699219 1137 1080 1171 c 1
 1061.33300781 1165.66699219 1042.66699219 1163 1024 1163 c 0
 1004 1163 985 1165.66699219 967 1171 c 1
 961.666992188 1137 951 1102.83300781 935 1068.5 c 128
 919 1034.16699219 903.666992188 1003 889 975 c 1
 941.666992188 987.666992188 986.666992188 994 1024 994 c 0
1024 -273 m 1
 479 -273 l 1
 491.666992188 -129.666992188 552.666992188 -8.6669921875 662 90 c 0
 680 106.666992188 690 115.666992188 692 117 c 0
 748.666992188 163.666992188 797 219.333007812 837 284 c 1
 734.333007812 351.333007812 683 446.333007812 683 569 c 0
 683 645 706 713.333007812 752 774 c 0
 767.333007812 793.333007812 783.833007812 815.333007812 801.5 840 c 128
 819.166992188 864.666992188 833.333007812 888.666992188 844 912 c 1
 828 908 803.833007812 901.666992188 771.5 893 c 128
 739.166992188 884.333007812 715.333007812 877 700 871 c 1
 746 913.666992188 789.833007812 964.333007812 831.5 1023 c 128
 873.166992188 1081.66699219 897.666992188 1144 905 1210 c 1
 871 1244.66699219 854 1285.33300781 854 1332 c 256
 854 1378.66699219 870.5 1418.66699219 903.5 1452 c 128
 936.5 1485.33300781 976.666992188 1502 1024 1502 c 0
 1070 1502 1109.66699219 1485.33300781 1143 1452 c 128
 1176.33300781 1418.66699219 1193 1378.66699219 1193 1332 c 0
 1193 1284.66699219 1176 1244 1142 1210 c 1
 1149.33300781 1144 1174.16699219 1081.66699219 1216.5 1023 c 128
 1258.83300781 964.333007812 1303 913.666992188 1349 871 c 1
 1333.66699219 877 1309.5 884.333007812 1276.5 893 c 128
 1243.5 901.666992188 1219 908 1203 912 c 1
 1213.66699219 888.666992188 1227.83300781 864.666992188 1245.5 840 c 128
 1263.16699219 815.333007812 1280 793.333007812 1296 774 c 0
 1342 713.333007812 1365 645 1365 569 c 0
 1365 446.333007812 1313.66699219 351.333007812 1211 284 c 1
 1249 220 1297 164.333007812 1355 117 c 0
 1365 109 1375 100 1385 90 c 0
 1495 -8.6669921875 1556 -129.666992188 1568 -273 c 1
 1024 -273 l 1
EndSplineSet
Validated: 9
EndChar

StartChar: C
Encoding: 67 67 2
Width: 2048
VWidth: 1638
Flags: HW
LayerCount: 2
Fore
SplineSet
1024 -273 m 1
 479 -273 l 1
 491.666992188 -129.666992188 552.666992188 -8.6669921875 662 90 c 0
 680 106.666992188 690 115.666992188 692 117 c 0
 748.666992188 163.666992188 797 219.333007812 837 284 c 1
 734.333007812 351.333007812 683 446.333007812 683 569 c 0
 683 645 706 713.333007812 752 774 c 0
 767.333007812 793.333007812 783.833007812 815.333007812 801.5 840 c 128
 819.166992188 864.666992188 833.333007812 888.666992188 844 912 c 1
 828 908 803.833007812 901.666992188 771.5 893 c 128
 739.166992188 884.333007812 715.333007812 877 700 871 c 1
 746 913.666992188 789.833007812 964.333007812 831.5 1023 c 128
 873.166992188 1081.66699219 897.666992188 1144 905 1210 c 1
 871 1244.66699219 854 1285.33300781 854 1332 c 256
 854 1378.66699219 870.5 1418.66699219 903.5 1452 c 128
 936.5 1485.33300781 976.666992188 1502 1024 1502 c 0
 1070 1502 1109.66699219 1485.33300781 1143 1452 c 128
 1176.33300781 1418.66699219 1193 1378.66699219 1193 1332 c 0
 1193 1284.66699219 1176 1244 1142 1210 c 1
 1149.33300781 1144 1174.16699219 1081.66699219 1216.5 1023 c 128
 1258.83300781 964.333007812 1303 913.666992188 1349 871 c 1
 1333.66699219 877 1309.5 884.333007812 1276.5 893 c 128
 1243.5 901.666992188 1219 908 1203 912 c 1
 1213.66699219 888.666992188 1227.83300781 864.666992188 1245.5 840 c 128
 1263.16699219 815.333007812 1280 793.333007812 1296 774 c 0
 1342 713.333007812 1365 645 1365 569 c 0
 1365 446.333007812 1313.66699219 351.333007812 1211 284 c 1
 1249 220 1297 164.333007812 1355 117 c 0
 1365 109 1375 100 1385 90 c 0
 1495 -8.6669921875 1556 -129.666992188 1568 -273 c 1
 1024 -273 l 1
EndSplineSet
Validated: 1
EndChar

StartChar: Z
Encoding: 90 90 4
Width: 2048
VWidth: 1638
Flags: HW
LayerCount: 2
Fore
SplineSet
0 175 m 1
 1462 1637 l 1
 1507 1637 l 1
 0 127 l 1
 0 175 l 1
0 1003 m 1
 632 1637 l 1
 677 1637 l 1
 0 960 l 1
 0 1003 l 1
0 1281 m 1
 356 1637 l 1
 401 1637 l 1
 0 1237 l 1
 0 1281 l 1
0 726 m 1
 909 1637 l 1
 954 1637 l 1
 0 684 l 1
 0 726 l 1
0 448 m 1
 1185 1637 l 1
 1230 1637 l 1
 0 404 l 1
 0 448 l 1
0 -101 m 1
 1738 1637 l 1
 1783 1637 l 1
 0 -149 l 1
 0 -101 l 1
1949 -410 m 1
 1906 -410 l 1
 2048 -270 l 1
 2048 -315 l 1
 1949 -410 l 1
0 1513 m 1
 0 1557 l 1
 79 1637 l 1
 124 1637 l 1
 0 1513 l 1
1630 -410 m 1
 2048 6 l 1
 2048 -40 l 1
 1677 -410 l 1
 1630 -410 l 1
1353 -410 m 1
 2048 281 l 1
 2048 236 l 1
 1402 -410 l 1
 1353 -410 l 1
1077 -410 m 1
 2048 560 l 1
 2048 513 l 1
 1124 -410 l 1
 1077 -410 l 1
794 -410 m 1
 2048 841 l 1
 2048 796 l 1
 839 -410 l 1
 794 -410 l 1
518 -410 m 1
 2048 1118 l 1
 2048 1073 l 1
 563 -410 l 1
 518 -410 l 1
241 -410 m 1
 2048 1394 l 1
 2048 1349 l 1
 286 -410 l 1
 241 -410 l 1
0 -378 m 1
 2015 1637 l 1
 2037 1637 2048 1634.66699219 2048 1630 c 1
 13 -410 l 1
 4.3330078125 -410 0 -399.333007812 0 -378 c 1
EndSplineSet
Validated: 1
EndChar

StartChar: at
Encoding: 64 64 5
Width: 2048
VWidth: 1638
Flags: HW
LayerCount: 2
Fore
SplineSet
1024 895 m 0
 1101.33300781 895 1167.5 867.5 1222.5 812.5 c 128
 1277.5 757.5 1305 691.333007812 1305 614 c 0
 1305 536 1277.5 469.666992188 1222.5 415 c 128
 1167.5 360.333007812 1101.33300781 333 1024 333 c 0
 946 333 879.666992188 360.333007812 825 415 c 128
 770.333007812 469.666992188 743 536 743 614 c 0
 743 691.333007812 770.333007812 757.5 825 812.5 c 128
 879.666992188 867.5 946 895 1024 895 c 0
EndSplineSet
Validated: 1
EndChar

StartChar: D
Encoding: 68 68 6
Width: 2048
VWidth: 1638
Flags: HW
LayerCount: 2
Fore
SplineSet
1024 -273 m 1
 479 -273 l 1
 491.666992188 -129.666992188 552.666992188 -8.6669921875 662 90 c 0
 680 106.666992188 690 115.666992188 692 117 c 0
 748.666992188 163.666992188 797 219.333007812 837 284 c 1
 734.333007812 351.333007812 683 446.333007812 683 569 c 0
 683 645 706 713.333007812 752 774 c 0
 767.333007812 793.333007812 783.833007812 815.333007812 801.5 840 c 128
 819.166992188 864.666992188 833.333007812 888.666992188 844 912 c 1
 828 908 803.833007812 901.666992188 771.5 893 c 128
 739.166992188 884.333007812 715.333007812 877 700 871 c 1
 746 913.666992188 789.833007812 964.333007812 831.5 1023 c 128
 873.166992188 1081.66699219 897.666992188 1144 905 1210 c 1
 871 1244.66699219 854 1285.33300781 854 1332 c 256
 854 1378.66699219 870.5 1418.66699219 903.5 1452 c 128
 936.5 1485.33300781 976.666992188 1502 1024 1502 c 0
 1070 1502 1109.66699219 1485.33300781 1143 1452 c 128
 1176.33300781 1418.66699219 1193 1378.66699219 1193 1332 c 0
 1193 1284.66699219 1176 1244 1142 1210 c 1
 1149.33300781 1144 1174.16699219 1081.66699219 1216.5 1023 c 128
 1258.83300781 964.333007812 1303 913.666992188 1349 871 c 1
 1333.66699219 877 1309.5 884.333007812 1276.5 893 c 128
 1243.5 901.666992188 1219 908 1203 912 c 1
 1213.66699219 888.666992188 1227.83300781 864.666992188 1245.5 840 c 128
 1263.16699219 815.333007812 1280 793.333007812 1296 774 c 0
 1342 713.333007812 1365 645 1365 569 c 0
 1365 446.333007812 1313.66699219 351.333007812 1211 284 c 1
 1249 220 1297 164.333007812 1355 117 c 0
 1365 109 1375 100 1385 90 c 0
 1495 -8.6669921875 1556 -129.666992188 1568 -273 c 1
 1024 -273 l 1
710 331 m 1
 719.333007812 320.333007812 726.333007812 312.666992188 731 308 c 1
 13 -410 l 1
 4.3330078125 -410 0 -399.333007812 0 -378 c 1
 710 331 l 1
1359 936 m 1
 1354.33300781 940 1349.83300781 944.166992188 1345.5 948.5 c 128
 1341.16699219 952.833007812 1338 956.333007812 1336 959 c 1
 2015 1637 l 1
 2037 1637 2048 1634.66699219 2048 1630 c 1
 1359 936 l 1
434 -218 m 1
 430 -242 427.666992188 -259.666992188 427 -271 c 1
 286 -410 l 1
 241 -410 l 1
 434 -218 l 1
1395 696 m 1
 1391 707.333007812 1386.66699219 718.333007812 1382 729 c 1
 2048 1394 l 1
 2048 1349 l 1
 1395 696 l 1
1387 413 m 1
 1397 433.666992188 1404.66699219 456.333007812 1410 481 c 1
 2048 1118 l 1
 2048 1073 l 1
 1387 413 l 1
1395 143 m 1
 1389.66699219 148.333007812 1386 151.666992188 1384 153 c 0
 1379.33300781 157.666992188 1375 161.666992188 1371 165 c 1
 2048 841 l 1
 2048 796 l 1
 1395 143 l 1
1528 -7 m 1
 1522.66699219 1.6669921875 1516.33300781 11 1509 21 c 1
 2048 560 l 1
 2048 513 l 1
 1528 -7 l 1
1610 -203 m 1
 1606 -185.666992188 1603 -173 1601 -165 c 1
 2048 281 l 1
 2048 236 l 1
 1610 -203 l 1
1630 -410 m 1
 2048 6 l 1
 2048 -40 l 1
 1677 -410 l 1
 1630 -410 l 1
0 1513 m 1
 0 1557 l 1
 79 1637 l 1
 124 1637 l 1
 0 1513 l 1
1949 -410 m 1
 1906 -410 l 1
 2048 -270 l 1
 2048 -315 l 1
 1949 -410 l 1
630 529 m 1
 0 -101 l 1
 0 -149 l 1
 637 489 l 1
 635 497 632.666992188 510.333007812 630 529 c 1
1239 1091 m 1
 1235.66699219 1095.66699219 1232.66699219 1100.5 1230 1105.5 c 128
 1227.33300781 1110.5 1224.66699219 1115.66699219 1222 1121 c 1
 1738 1637 l 1
 1783 1637 l 1
 1239 1091 l 1
809 1259 m 1
 0 448 l 1
 0 404 l 1
 823 1228 l 2
 823.666992188 1226.66699219 819 1237 809 1259 c 1
1126 1533 m 1
 1118 1537 1107.66699219 1541.33300781 1095 1546 c 1
 1185 1637 l 1
 1230 1637 l 1
 1126 1533 l 1
0 726 m 1
 909 1637 l 1
 954 1637 l 1
 0 684 l 1
 0 726 l 1
0 1281 m 1
 356 1637 l 1
 401 1637 l 1
 0 1237 l 1
 0 1281 l 1
0 1003 m 1
 632 1637 l 1
 677 1637 l 1
 0 960 l 1
 0 1003 l 1
647 822 m 1
 0 175 l 1
 0 127 l 1
 713 841 l 1
 701 837.666992188 689.166992188 834.166992188 677.5 830.5 c 128
 665.833007812 826.833007812 655.666992188 824 647 822 c 1
1245 1375 m 1
 1243 1384.33300781 1239.66699219 1396.33300781 1235 1411 c 1
 1462 1637 l 1
 1507 1637 l 1
 1245 1375 l 1
1439 -325 m 1
 1487 -325 l 1
 1402 -410 l 1
 1353 -410 l 1
 1439 -325 l 1
1162 -325 m 1
 1210 -325 l 1
 1124 -410 l 1
 1077 -410 l 1
 1162 -325 l 1
880 -325 m 1
 926 -325 l 1
 839 -410 l 1
 794 -410 l 1
 880 -325 l 1
604 -325 m 1
 649 -325 l 1
 563 -410 l 1
 518 -410 l 1
 604 -325 l 1
EndSplineSet
Validated: 9
EndChar

StartChar: E
Encoding: 69 69 7
Width: 2048
VWidth: 1638
Flags: HW
LayerCount: 2
Fore
SplineSet
401 440 m 0
 395.666992188 433.333007812 388.666992188 427 380 421 c 0
 361.333007812 407 348 408.333007812 340 425 c 0
 335.333007812 433 335.666992188 445.333007812 341 462 c 1
 350.333007812 470 356.666992188 475.333007812 360 478 c 0
 380.666992188 502.666992188 397.666992188 524.333007812 411 543 c 1
 417.666992188 544.333007812 422.666992188 544.666992188 426 544 c 0
 449.333007812 540 455.333007812 525.666992188 444 501 c 0
 438 489 430.833007812 478.166992188 422.5 468.5 c 128
 414.166992188 458.833007812 407 449.333007812 401 440 c 0
697 884 m 1
 710.333007812 925.333007812 735.666992188 947.666992188 773 951 c 0
 798.333007812 953 820.333007812 954 839 954 c 128
 857.666992188 954 877.666992188 957.333007812 899 964 c 1
 877.666992188 904 853.333007812 865 826 847 c 0
 811.333007812 838.333007812 791 833 765 831 c 0
 745.666992188 829.666992188 730.666992188 831 720 835 c 128
 709.333007812 839 701.666992188 855.333007812 697 884 c 1
631 352 m 0
 663 374.666992188 685.833007812 398.5 699.5 423.5 c 128
 713.166992188 448.5 732 472.333007812 756 495 c 1
 756.666992188 503 757.666992188 512 759 522 c 128
 760.333007812 532 761.666992188 542.666992188 763 554 c 1
 767.666992188 558.666992188 771.333007812 561.333007812 774 562 c 0
 793.333007812 568 804.666992188 559.333007812 808 536 c 0
 808 529.333007812 807.5 522.833007812 806.5 516.5 c 128
 805.5 510.166992188 805.666992188 504.666992188 807 500 c 0
 811 495.333007812 826 490.333007812 852 485 c 1
 948 481.666992188 1036.33300781 517.666992188 1117 593 c 0
 1117 593.666992188 1119.16699219 596.666992188 1123.5 602 c 128
 1127.83300781 607.333007812 1130.33300781 610.666992188 1131 612 c 0
 1151 642 1167 704.333007812 1179 799 c 0
 1180.33300781 801.666992188 1184 804.666992188 1190 808 c 0
 1207.33300781 814 1218.33300781 805.333007812 1223 782 c 1
 1217 696 1204 634.666992188 1184 598 c 0
 1173.33300781 578.666992188 1161.33300781 561.666992188 1148 547 c 1
 1159.33300781 553 1170.66699219 558.666992188 1182 564 c 128
 1193.33300781 569.333007812 1204.33300781 575.333007812 1215 582 c 0
 1249 602.666992188 1273.33300781 642.666992188 1288 702 c 1
 1295.33300781 714.666992188 1306 720.333007812 1320 719 c 0
 1334.66699219 716.333007812 1340.33300781 705.333007812 1337 686 c 0
 1321.66699219 602.666992188 1289 548.666992188 1239 524 c 0
 1223 516 1206.83300781 508.833007812 1190.5 502.5 c 128
 1174.16699219 496.166992188 1158.33300781 490 1143 484 c 1
 1182.33300781 486 1225 492.333007812 1271 503 c 0
 1279.66699219 503 1285.66699219 499.333007812 1289 492 c 0
 1295 478.666992188 1288.66699219 466.666992188 1270 456 c 1
 1176 430 1116.33300781 418.333007812 1091 421 c 1
 1073 364.333007812 1029 302 959 234 c 0
 920.333007812 196.666992188 880.333007812 160.5 839 125.5 c 128
 797.666992188 90.5 757 55.6669921875 717 21 c 0
 628.333007812 -57 574.333007812 -133 555 -207 c 1
 707.666992188 -207.666992188 834.5 -208 935.5 -208 c 128
 1087 -208 1087 -208 1214 -208 c 128
 1298.66699219 -208 1384 -207.833007812 1470 -207.5 c 128
 1556 -207.166992188 1660.66699219 -207 1784 -207 c 0
 1793.33300781 -207 1797.16699219 -190.333007812 1795.5 -157 c 128
 1793.83300781 -123.666992188 1791.33300781 -92.6669921875 1788 -64 c 1
 1752 -68 1718 -49.1669921875 1686 -7.5 c 128
 1654 34.1669921875 1639.33300781 82 1642 136 c 0
 1642.66699219 276 1633.83300781 402.166992188 1615.5 514.5 c 128
 1597.16699219 626.833007812 1561 724.333007812 1507 807 c 0
 1419 940.333007812 1279.33300781 1053.66699219 1088 1147 c 1
 1085.33300781 1130.33300781 1082.33300781 1115 1079 1101 c 0
 1073.66699219 1079.66699219 1063.66699219 1072.66699219 1049 1080 c 0
 1035 1084.66699219 1027.66699219 1093.66699219 1027 1107 c 1
 1029.66699219 1119 1031.33300781 1128 1032 1134 c 0
 1031.33300781 1136 1030.66699219 1138.5 1030 1141.5 c 128
 1029.33300781 1144.5 1029 1147.33300781 1029 1150 c 0
 1022.33300781 1184.66699219 1003.33300781 1224 972 1268 c 1
 966.666992188 1240 961.333007812 1221 956 1211 c 128
 950.666992188 1201 946 1192.33300781 942 1185 c 0
 934.666992188 1174.33300781 928.166992188 1164 922.5 1154 c 128
 916.833007812 1144 910.333007812 1133 903 1121 c 1
 895.666992188 1129 887.833007812 1138.5 879.5 1149.5 c 128
 871.166992188 1160.5 863.666992188 1170 857 1178 c 0
 848 1187 848 1187 839.5 1195.5 c 128
 833.833007812 1201.16699219 823 1206 807 1210 c 1
 821 1158 817.333007812 1122.33300781 796 1103 c 0
 785.333007812 1092.33300781 773.666992188 1078.16699219 761 1060.5 c 128
 748.333007812 1042.83300781 734 1026.66699219 718 1012 c 0
 708.666992188 1002 697.166992188 990.5 683.5 977.5 c 128
 669.833007812 964.5 658.333007812 947.666992188 649 927 c 0
 636.333007812 888.333007812 611.5 849.5 574.5 810.5 c 128
 537.5 771.5 497 732.333007812 453 693 c 0
 357 607.666992188 302.666992188 545.666992188 290 507 c 0
 272.666992188 460.333007812 273.666992188 415 293 371 c 0
 311 331.666992188 335.666992188 306 367 294 c 0
 385.666992188 286.666992188 408.666992188 300.666992188 436 336 c 0
 465.333007812 371.333007812 484.666992188 387.666992188 494 385 c 0
 511.333007812 380.333007812 517 368 511 348 c 0
 507.666992188 336.666992188 497 320.333007812 479 299 c 0
 460.333007812 278.333007812 450.666992188 264.666992188 450 258 c 0
 446.666992188 250 453.333007812 243.666992188 470 239 c 0
 490.666992188 233.666992188 529.333007812 258.666992188 586 314 c 0
 592.666992188 320.666992188 599.833007812 326.833007812 607.5 332.5 c 128
 615.166992188 338.166992188 623 344.666992188 631 352 c 0
664 304 m 1
 654.666992188 294 647.166992188 286.833007812 641.5 282.5 c 128
 635.833007812 278.166992188 630.666992188 274 626 270 c 0
 620 264.666992188 598.666992188 242.666992188 562 204 c 0
 546.666992188 188 528.333007812 177.333007812 507 172 c 0
 491.666992188 168 472 169.666992188 448 177 c 0
 364.666992188 199 299 243 251 309 c 0
 231.666992188 333.666992188 218.166992188 363.5 210.5 398.5 c 128
 202.833007812 433.5 206.666992188 478 222 532 c 0
 236.666992188 587.333007812 289.333007812 649.666992188 380 719 c 0
 479.333007812 794.333007812 538 854.666992188 556 900 c 1
 570.666992188 926 587.333007812 954.666992188 606 986 c 128
 624.666992188 1017.33300781 647 1047.66699219 673 1077 c 1
 689 1088.33300781 704.166992188 1101.5 718.5 1116.5 c 128
 732.833007812 1131.5 747.333007812 1147 762 1163 c 1
 762 1286 l 1
 799.333007812 1278.66699219 826 1268 842 1254 c 0
 850 1245.33300781 859 1237.33300781 869 1230 c 128
 879 1222.66699219 888 1214.66699219 896 1206 c 1
 912.666992188 1236 923.333007812 1261 928 1281 c 0
 928.666992188 1285.66699219 930.833007812 1295 934.5 1309 c 128
 938.166992188 1323 942 1346 946 1378 c 1
 956 1380 964.666992188 1377.33300781 972 1370 c 0
 1003.33300781 1336 1032.66699219 1297.33300781 1060 1254 c 1
 1182 1205.33300781 1293.5 1147.66699219 1394.5 1081 c 128
 1495.5 1014.33300781 1572.66699219 945 1626 873 c 0
 1779.33300781 665 1856 359.666992188 1856 -43 c 0
 1856 -127.666992188 1851.66699219 -205 1843 -275 c 1
 478 -275 l 1
 469.333007812 -188.333007812 515.333007812 -96.3330078125 616 1 c 0
 661.333007812 45 708.5 87.6669921875 757.5 129 c 128
 806.5 170.333007812 854.333007812 212.333007812 901 255 c 0
 987.666992188 335 1035.66699219 399 1045 447 c 1
 1041.66699219 455 1035.33300781 460.333007812 1026 463 c 1
 1002.66699219 449 979.333007812 440 956 436 c 128
 932.666992188 432 909.666992188 429.333007812 887 428 c 0
 872.333007812 427.333007812 857.833007812 426.833007812 843.5 426.5 c 128
 829.166992188 426.166992188 812.333007812 429.333007812 793 436 c 1
 767 406.666992188 744.833007812 381.5 726.5 360.5 c 128
 708.166992188 339.5 687.333007812 320.666992188 664 304 c 1
EndSplineSet
Validated: 33
EndChar

StartChar: F
Encoding: 70 70 8
Width: 2048
VWidth: 1638
Flags: HW
LayerCount: 2
Fore
SplineSet
309 161 m 1
 0 -149 l 1
 0 -101 l 1
 281 179 l 1
 285 176.333007812 294.333007812 170.333007812 309 161 c 1
159 333 m 1
 161.666992188 324.333007812 166.333007812 313.333007812 173 300 c 1
 0 127 l 1
 0 175 l 1
 159 333 l 1
550 127 m 1
 13 -410 l 1
 4.3330078125 -410 0 -399.333007812 0 -378 c 1
 491 113 l 1
 502.333007812 111.666992188 511 112 517 114 c 0
 527.666992188 115.333007812 538.666992188 119.666992188 550 127 c 1
1716 -325 m 1
 1763 -325 l 1
 1677 -410 l 1
 1630 -410 l 1
 1716 -325 l 1
1439 -325 m 1
 1488 -325 l 1
 1402 -410 l 1
 1353 -410 l 1
 1439 -325 l 1
1162 -325 m 1
 1210 -325 l 1
 1124 -410 l 1
 1077 -410 l 1
 1162 -325 l 1
879 -325 m 1
 925 -325 l 1
 839 -410 l 1
 794 -410 l 1
 879 -325 l 1
604 -325 m 1
 649 -325 l 1
 563 -410 l 1
 518 -410 l 1
 604 -325 l 1
1947 -140 m 1
 1947.66699219 -130.666992188 1948 -118.333007812 1948 -103 c 0
 1948 -101.666992188 1947.83300781 -100.5 1947.5 -99.5 c 128
 1947.16699219 -98.5 1947 -97 1947 -95 c 2
 2048 6 l 1
 2048 -40 l 1
 1947 -140 l 1
1939 127 m 1
 1938 137 1938 137 1937 147 c 128
 1936.33300781 153.666992188 1936 161 1936 169 c 1
 2048 281 l 1
 2048 236 l 1
 1939 127 l 1
1908 372 m 1
 1906 378 1904.5 384.333007812 1903.5 391 c 128
 1902.5 397.666992188 1901.33300781 404.333007812 1900 411 c 1
 2048 560 l 1
 2048 513 l 1
 1908 372 l 1
1850 598 m 1
 1846.66699219 608.666992188 1842.66699219 619.666992188 1838 631 c 1
 2048 841 l 1
 2048 796 l 1
 1850 598 l 1
1767 791 m 1
 1763.66699219 795.666992188 1760.83300781 800.5 1758.5 805.5 c 128
 1756.16699219 810.5 1753.33300781 815.666992188 1750 821 c 1
 2048 1118 l 1
 2048 1073 l 1
 1767 791 l 1
1513 1092 m 1
 1489 1110 1489 1110 1489 1110 c 1
 2015 1637 l 1
 2037 1637 2048 1634.66699219 2048 1630 c 1
 1513 1092 l 1
441 -257 m 1
 441.666992188 -247.666992188 442.333007812 -238.833007812 443 -230.5 c 128
 443.666992188 -222.166992188 446 -212.666992188 450 -202 c 1
 241 -410 l 1
 286 -410 l 1
 441 -257 l 1
1660 960 m 1
 1637 983 1637 983 1637 983 c 1
 2048 1394 l 1
 2048 1349 l 1
 1660 960 l 1
0 1513 m 1
 0 1557 l 1
 79 1637 l 1
 124 1637 l 1
 0 1513 l 1
1949 -410 m 1
 1906 -410 l 1
 2048 -270 l 1
 2048 -315 l 1
 1949 -410 l 1
1349 1201 m 1
 1344.33300781 1203 1339.33300781 1205.66699219 1334 1209 c 128
 1328.66699219 1212.33300781 1324 1215.33300781 1320 1218 c 1
 1738 1637 l 1
 1783 1637 l 1
 1349 1201 l 1
459 864 m 1
 0 404 l 1
 0 448 l 1
 515 965 l 1
 505 947.666992188 495.5 930.5 486.5 913.5 c 128
 477.5 896.5 468.333007812 880 459 864 c 1
879 1284 m 1
 895 1301 l 1
 905 1356 l 1
 854 1305 l 1
 860 1300.33300781 868.333007812 1293.33300781 879 1284 c 1
1025 1430 m 1
 1021.66699219 1433.33300781 1017.66699219 1437 1013 1441 c 128
 1008.33300781 1445 1004.33300781 1449 1001 1453 c 1
 1185 1637 l 1
 1230 1637 l 1
 1025 1430 l 1
0 726 m 1
 909 1637 l 1
 954 1637 l 1
 0 684 l 1
 0 726 l 1
0 1281 m 1
 356 1637 l 1
 401 1637 l 1
 0 1237 l 1
 0 1281 l 1
0 1003 m 1
 632 1637 l 1
 677 1637 l 1
 0 960 l 1
 0 1003 l 1
1168 1296 m 1
 1162 1298 1156.5 1300.33300781 1151.5 1303 c 128
 1146.5 1305.66699219 1141.33300781 1308 1136 1310 c 1
 1462 1637 l 1
 1507 1637 l 1
 1168 1296 l 1
664 304 m 1
 654.666992188 294 647.166992188 286.833007812 641.5 282.5 c 128
 635.833007812 278.166992188 630.666992188 274 626 270 c 0
 620 264.666992188 598.666992188 242.666992188 562 204 c 0
 546.666992188 188 528.333007812 177.333007812 507 172 c 0
 491.666992188 168 472 169.666992188 448 177 c 0
 364.666992188 199 299 243 251 309 c 0
 231.666992188 333.666992188 218.166992188 363.5 210.5 398.5 c 128
 202.833007812 433.5 206.666992188 478 222 532 c 0
 236.666992188 587.333007812 289.333007812 649.666992188 380 719 c 0
 479.333007812 794.333007812 538 854.666992188 556 900 c 1
 570.666992188 926 587.333007812 954.666992188 606 986 c 128
 624.666992188 1017.33300781 647 1047.66699219 673 1077 c 1
 689 1088.33300781 704.166992188 1101.5 718.5 1116.5 c 128
 732.833007812 1131.5 747.333007812 1147 762 1163 c 1
 762 1286 l 1
 799.333007812 1278.66699219 826 1268 842 1254 c 0
 850 1245.33300781 859 1237.33300781 869 1230 c 128
 879 1222.66699219 888 1214.66699219 896 1206 c 1
 912.666992188 1236 923.333007812 1261 928 1281 c 0
 928.666992188 1285.66699219 930.833007812 1295 934.5 1309 c 128
 938.166992188 1323 942 1346 946 1378 c 1
 956 1380 964.666992188 1377.33300781 972 1370 c 0
 1003.33300781 1336 1032.66699219 1297.33300781 1060 1254 c 1
 1182 1205.33300781 1293.5 1147.66699219 1394.5 1081 c 128
 1495.5 1014.33300781 1572.66699219 945 1626 873 c 0
 1779.33300781 665 1856 359.666992188 1856 -43 c 0
 1856 -127.666992188 1851.66699219 -205 1843 -275 c 1
 478 -275 l 1
 469.333007812 -188.333007812 515.333007812 -96.3330078125 616 1 c 0
 661.333007812 45 708.5 87.6669921875 757.5 129 c 128
 806.5 170.333007812 854.333007812 212.333007812 901 255 c 0
 987.666992188 335 1035.66699219 399 1045 447 c 1
 1041.66699219 455 1035.33300781 460.333007812 1026 463 c 1
 1002.66699219 449 979.333007812 440 956 436 c 128
 932.666992188 432 909.666992188 429.333007812 887 428 c 0
 872.333007812 427.333007812 857.833007812 426.833007812 843.5 426.5 c 128
 829.166992188 426.166992188 812.333007812 429.333007812 793 436 c 1
 767 406.666992188 744.833007812 381.5 726.5 360.5 c 128
 708.166992188 339.5 687.333007812 320.666992188 664 304 c 1
631 352 m 0
 663 374.666992188 685.833007812 398.5 699.5 423.5 c 128
 713.166992188 448.5 732 472.333007812 756 495 c 1
 756.666992188 503 757.666992188 512 759 522 c 128
 760.333007812 532 761.666992188 542.666992188 763 554 c 1
 767.666992188 558.666992188 771.333007812 561.333007812 774 562 c 0
 793.333007812 568 804.666992188 559.333007812 808 536 c 0
 808 529.333007812 807.5 522.833007812 806.5 516.5 c 128
 805.5 510.166992188 805.666992188 504.666992188 807 500 c 0
 811 495.333007812 826 490.333007812 852 485 c 1
 948 481.666992188 1036.33300781 517.666992188 1117 593 c 0
 1117 593.666992188 1119.16699219 596.666992188 1123.5 602 c 128
 1127.83300781 607.333007812 1130.33300781 610.666992188 1131 612 c 0
 1151 642 1167 704.333007812 1179 799 c 0
 1180.33300781 801.666992188 1184 804.666992188 1190 808 c 0
 1207.33300781 814 1218.33300781 805.333007812 1223 782 c 1
 1217 696 1204 634.666992188 1184 598 c 0
 1173.33300781 578.666992188 1161.33300781 561.666992188 1148 547 c 1
 1159.33300781 553 1170.66699219 558.666992188 1182 564 c 128
 1193.33300781 569.333007812 1204.33300781 575.333007812 1215 582 c 0
 1249 602.666992188 1273.33300781 642.666992188 1288 702 c 1
 1295.33300781 714.666992188 1306 720.333007812 1320 719 c 0
 1334.66699219 716.333007812 1340.33300781 705.333007812 1337 686 c 0
 1321.66699219 602.666992188 1289 548.666992188 1239 524 c 0
 1223 516 1206.83300781 508.833007812 1190.5 502.5 c 128
 1174.16699219 496.166992188 1158.33300781 490 1143 484 c 1
 1182.33300781 486 1225 492.333007812 1271 503 c 0
 1279.66699219 503 1285.66699219 499.333007812 1289 492 c 0
 1295 478.666992188 1288.66699219 466.666992188 1270 456 c 1
 1176 430 1116.33300781 418.333007812 1091 421 c 1
 1073 364.333007812 1029 302 959 234 c 0
 920.333007812 196.666992188 880.333007812 160.5 839 125.5 c 128
 797.666992188 90.5 757 55.6669921875 717 21 c 0
 628.333007812 -57 574.333007812 -133 555 -207 c 1
 707.666992188 -207.666992188 834.5 -208 935.5 -208 c 128
 1087 -208 1087 -208 1214 -208 c 128
 1298.66699219 -208 1384 -207.833007812 1470 -207.5 c 128
 1556 -207.166992188 1660.66699219 -207 1784 -207 c 0
 1793.33300781 -207 1797.16699219 -190.333007812 1795.5 -157 c 128
 1793.83300781 -123.666992188 1791.33300781 -92.6669921875 1788 -64 c 1
 1752 -68 1718 -49.1669921875 1686 -7.5 c 128
 1654 34.1669921875 1639.33300781 82 1642 136 c 0
 1642.66699219 276 1633.83300781 402.166992188 1615.5 514.5 c 128
 1597.16699219 626.833007812 1561 724.333007812 1507 807 c 0
 1419 940.333007812 1279.33300781 1053.66699219 1088 1147 c 1
 1085.33300781 1130.33300781 1082.33300781 1115 1079 1101 c 0
 1073.66699219 1079.66699219 1063.66699219 1072.66699219 1049 1080 c 0
 1035 1084.66699219 1027.66699219 1093.66699219 1027 1107 c 1
 1029.66699219 1119 1031.33300781 1128 1032 1134 c 0
 1031.33300781 1136 1030.66699219 1138.5 1030 1141.5 c 128
 1029.33300781 1144.5 1029 1147.33300781 1029 1150 c 0
 1022.33300781 1184.66699219 1003.33300781 1224 972 1268 c 1
 966.666992188 1240 961.333007812 1221 956 1211 c 128
 950.666992188 1201 946 1192.33300781 942 1185 c 0
 934.666992188 1174.33300781 928.166992188 1164 922.5 1154 c 128
 916.833007812 1144 910.333007812 1133 903 1121 c 1
 895.666992188 1129 887.833007812 1138.5 879.5 1149.5 c 128
 871.166992188 1160.5 863.666992188 1170 857 1178 c 0
 848 1187 848 1187 839.5 1195.5 c 128
 833.833007812 1201.16699219 823 1206 807 1210 c 1
 821 1158 817.333007812 1122.33300781 796 1103 c 0
 785.333007812 1092.33300781 773.666992188 1078.16699219 761 1060.5 c 128
 748.333007812 1042.83300781 734 1026.66699219 718 1012 c 0
 708.666992188 1002 697.166992188 990.5 683.5 977.5 c 128
 669.833007812 964.5 658.333007812 947.666992188 649 927 c 0
 636.333007812 888.333007812 611.5 849.5 574.5 810.5 c 128
 537.5 771.5 497 732.333007812 453 693 c 0
 357 607.666992188 302.666992188 545.666992188 290 507 c 0
 272.666992188 460.333007812 273.666992188 415 293 371 c 0
 311 331.666992188 335.666992188 306 367 294 c 0
 385.666992188 286.666992188 408.666992188 300.666992188 436 336 c 0
 465.333007812 371.333007812 484.666992188 387.666992188 494 385 c 0
 511.333007812 380.333007812 517 368 511 348 c 0
 507.666992188 336.666992188 497 320.333007812 479 299 c 0
 460.333007812 278.333007812 450.666992188 264.666992188 450 258 c 0
 446.666992188 250 453.333007812 243.666992188 470 239 c 0
 490.666992188 233.666992188 529.333007812 258.666992188 586 314 c 0
 592.666992188 320.666992188 599.833007812 326.833007812 607.5 332.5 c 128
 615.166992188 338.166992188 623 344.666992188 631 352 c 0
697 884 m 1
 710.333007812 925.333007812 735.666992188 947.666992188 773 951 c 0
 798.333007812 953 820.333007812 954 839 954 c 128
 857.666992188 954 877.666992188 957.333007812 899 964 c 1
 877.666992188 904 853.333007812 865 826 847 c 0
 811.333007812 838.333007812 791 833 765 831 c 0
 745.666992188 829.666992188 730.666992188 831 720 835 c 128
 709.333007812 839 701.666992188 855.333007812 697 884 c 1
401 440 m 0
 395.666992188 433.333007812 388.666992188 427 380 421 c 0
 361.333007812 407 348 408.333007812 340 425 c 0
 335.333007812 433 335.666992188 445.333007812 341 462 c 1
 350.333007812 470 356.666992188 475.333007812 360 478 c 0
 380.666992188 502.666992188 397.666992188 524.333007812 411 543 c 1
 417.666992188 544.333007812 422.666992188 544.666992188 426 544 c 0
 449.333007812 540 455.333007812 525.666992188 444 501 c 0
 438 489 430.833007812 478.166992188 422.5 468.5 c 128
 414.166992188 458.833007812 407 449.333007812 401 440 c 0
EndSplineSet
Validated: 41
EndChar

StartChar: G
Encoding: 71 71 9
Width: 2048
VWidth: 1638
Flags: HW
LayerCount: 2
Fore
SplineSet
1156 426 m 1
 1172.66699219 429.333007812 1191.5 433.166992188 1212.5 437.5 c 128
 1233.5 441.833007812 1256 448 1280 456 c 0
 1301.33300781 462.666992188 1308.33300781 474.666992188 1301 492 c 0
 1296.33300781 499.333007812 1289.66699219 503 1281 503 c 0
 1233.66699219 492.333007812 1189 486 1147 484 c 1
 1163 490 1179.66699219 496.166992188 1197 502.5 c 128
 1214.33300781 508.833007812 1231.33300781 516 1248 524 c 0
 1300 548.666992188 1334.33300781 602.666992188 1351 686 c 0
 1354.33300781 705.333007812 1348 716.333007812 1332 719 c 0
 1318 720.333007812 1307 714.666992188 1299 702 c 1
 1283 642.666992188 1257.66699219 602.666992188 1223 582 c 0
 1211.66699219 575.333007812 1200 569.333007812 1188 564 c 128
 1176 558.666992188 1164 553 1152 547 c 1
 1165.33300781 561 1177.66699219 578 1189 598 c 0
 1209.66699219 632.666992188 1223.66699219 694 1231 782 c 1
 1226.33300781 805.333007812 1214.66699219 814 1196 808 c 0
 1190 804.666992188 1186 801.666992188 1184 799 c 0
 1172 704.333007812 1155.66699219 642 1135 612 c 0
 1127.66699219 604.666992188 1122.66699219 598.333007812 1120 593 c 0
 1114 588.333007812 1108.5 583.833007812 1103.5 579.5 c 128
 1098.5 575.166992188 1093.66699219 571 1089 567 c 0
 1077.66699219 552.333007812 1072 535.666992188 1072 517 c 0
 1072 494.333007812 1078.5 473.666992188 1091.5 455 c 128
 1104.5 436.333007812 1126 426.666992188 1156 426 c 1
1085 1100 m 1
 1269.66699219 1009.33300781 1406 898 1494 766 c 0
 1548 684 1584 586.666992188 1602 474 c 128
 1620 361.333007812 1629 235 1629 95 c 1
 1625.66699219 41 1640.83300781 -6.3330078125 1674.5 -47 c 128
 1708.16699219 -87.6669921875 1746 -103.666992188 1788 -95 c 1
 1800.66699219 310.333007812 1728.66699219 619.333007812 1572 832 c 0
 1524 896 1457 958 1371 1018 c 128
 1285 1078 1189 1131.66699219 1083 1179 c 1
 1083 1165 1083.33300781 1150.83300781 1084 1136.5 c 128
 1084.66699219 1122.16699219 1085 1110 1085 1100 c 1
497 263 m 0
 504.333007812 275 512.833007812 286.833007812 522.5 298.5 c 128
 532.166992188 310.166992188 541 323.333007812 549 338 c 0
 563.666992188 368 556.333007812 385.666992188 527 391 c 0
 521.666992188 392.333007812 515.666992188 391.666992188 509 389 c 1
 489.666992188 363 468.666992188 336.666992188 446 310 c 0
 442.666992188 307.333007812 435 300.666992188 423 290 c 1
 417 270 416.666992188 254.666992188 422 244 c 0
 430.666992188 224 447 222.666992188 471 240 c 0
 483 249.333007812 491.666992188 257 497 263 c 0
849 520 m 0
 851 528 853.5 536 856.5 544 c 128
 859.5 552 862 560 864 568 c 0
 870 594 862.666992188 607 842 607 c 0
 834.666992188 607 825.666992188 601 815 589 c 1
 810.333007812 578.333007812 805.666992188 567.833007812 801 557.5 c 128
 796.333007812 547.166992188 792.666992188 537.666992188 790 529 c 0
 788 522.333007812 785 513 781 501 c 0
 779.666992188 491 783.666992188 483.666992188 793 479 c 0
 807 471 821.333007812 477.333007812 836 498 c 0
 840.666992188 502.666992188 845 510 849 520 c 0
382 440 m 0
 388.666992188 449.333007812 396.333007812 458.833007812 405 468.5 c 128
 413.666992188 478.166992188 421.333007812 489 428 501 c 0
 441.333007812 525.666992188 435 540 409 544 c 0
 405 544.666992188 399.333007812 544.333007812 392 543 c 1
 376 522.333007812 357.333007812 500.666992188 336 478 c 0
 328 472 321.333007812 466.666992188 316 462 c 1
 310.666992188 445.333007812 310.333007812 433 315 425 c 0
 323 408.333007812 337.666992188 407 359 421 c 0
 369.666992188 429 377.333007812 435.333007812 382 440 c 0
677 884 m 1
 681.666992188 855.333007812 689.333007812 839 700 835 c 128
 710.666992188 831 725.666992188 829.666992188 745 831 c 0
 771 833 791 838.333007812 805 847 c 0
 833 865 857.666992188 904 879 964 c 1
 857.666992188 957.333007812 837.666992188 954 819 954 c 128
 800.333007812 954 778 953 752 951 c 0
 715.333007812 947.666992188 690.333007812 925.333007812 677 884 c 1
664 304 m 1
 654.666992188 294 647.166992188 286.833007812 641.5 282.5 c 128
 635.833007812 278.166992188 631 274 627 270 c 0
 623.666992188 266.666992188 602 244.666992188 562 204 c 0
 546.666992188 187.333007812 528.333007812 176.666992188 507 172 c 0
 493 168 473.333007812 169.666992188 448 177 c 0
 364.666992188 199 299 243 251 309 c 0
 232.333007812 333.666992188 219.166992188 363.5 211.5 398.5 c 128
 203.833007812 433.5 207.333007812 478 222 532 c 0
 236.666992188 586.666992188 289.666992188 649 381 719 c 0
 480.333007812 795 538.666992188 855.333007812 556 900 c 1
 570.666992188 926 587.5 954.666992188 606.5 986 c 128
 625.5 1017.33300781 648 1047.66699219 674 1077 c 1
 690 1088.33300781 705.166992188 1101.5 719.5 1116.5 c 128
 733.833007812 1131.5 748 1147 762 1163 c 1
 762 1286 l 1
 798.666992188 1278.66699219 825.666992188 1268 843 1254 c 0
 851 1245.33300781 859.833007812 1237.33300781 869.5 1230 c 128
 879.166992188 1222.66699219 888 1214.66699219 896 1206 c 1
 912.666992188 1236 923.333007812 1261 928 1281 c 0
 928.666992188 1285.66699219 931 1295 935 1309 c 128
 939 1323 943 1346 947 1378 c 1
 957 1380.66699219 965.666992188 1378 973 1370 c 0
 1003.66699219 1335.33300781 1032.66699219 1296.66699219 1060 1254 c 1
 1182 1205.33300781 1293.5 1147.66699219 1394.5 1081 c 128
 1495.5 1014.33300781 1573 945 1627 873 c 0
 1779.66699219 665.666992188 1856 360.333007812 1856 -43 c 0
 1856 -127.666992188 1851.66699219 -205 1843 -275 c 1
 478 -275 l 1
 469.333007812 -188.333007812 515.333007812 -96.3330078125 616 1 c 0
 661.333007812 45 708.5 87.6669921875 757.5 129 c 128
 806.5 170.333007812 854.333007812 212.333007812 901 255 c 0
 987.666992188 335 1035.66699219 399 1045 447 c 1
 1041.66699219 455 1035.33300781 460.333007812 1026 463 c 1
 1002.66699219 449 979.333007812 440 956 436 c 128
 932.666992188 432 909.666992188 429.333007812 887 428 c 0
 872.333007812 427.333007812 857.833007812 426.833007812 843.5 426.5 c 128
 829.166992188 426.166992188 812.333007812 429.333007812 793 436 c 1
 767 406.666992188 744.833007812 381.5 726.5 360.5 c 128
 708.166992188 339.5 687.333007812 320.666992188 664 304 c 1
EndSplineSet
Validated: 33
EndChar

StartChar: H
Encoding: 72 72 10
Width: 2048
VWidth: 1638
Flags: HW
LayerCount: 2
Fore
SplineSet
309 161 m 1
 0 -149 l 1
 0 -101 l 1
 281 179 l 1
 285 176.333007812 294.333007812 170.333007812 309 161 c 1
159 333 m 1
 161.666992188 324.333007812 166.333007812 313.333007812 173 300 c 1
 0 127 l 1
 0 175 l 1
 159 333 l 1
550 127 m 1
 13 -410 l 1
 4.3330078125 -410 0 -399.333007812 0 -378 c 1
 491 113 l 1
 502.333007812 111.666992188 511 112 517 114 c 0
 527.666992188 115.333007812 538.666992188 119.666992188 550 127 c 1
1716 -325 m 1
 1763 -325 l 1
 1677 -410 l 1
 1630 -410 l 1
 1716 -325 l 1
1439 -325 m 1
 1488 -325 l 1
 1402 -410 l 1
 1353 -410 l 1
 1439 -325 l 1
1162 -325 m 1
 1210 -325 l 1
 1124 -410 l 1
 1077 -410 l 1
 1162 -325 l 1
879 -325 m 1
 925 -325 l 1
 839 -410 l 1
 794 -410 l 1
 879 -325 l 1
604 -325 m 1
 649 -325 l 1
 563 -410 l 1
 518 -410 l 1
 604 -325 l 1
1947 -140 m 1
 1947.66699219 -130.666992188 1948 -118.333007812 1948 -103 c 0
 1948 -101.666992188 1947.83300781 -100.5 1947.5 -99.5 c 128
 1947.16699219 -98.5 1947 -97 1947 -95 c 2
 2048 6 l 1
 2048 -40 l 1
 1947 -140 l 1
1939 127 m 1
 1938 137 1938 137 1937 147 c 128
 1936.33300781 153.666992188 1936 161 1936 169 c 1
 2048 281 l 1
 2048 236 l 1
 1939 127 l 1
1908 372 m 1
 1906 378 1904.5 384.333007812 1903.5 391 c 128
 1902.5 397.666992188 1901.33300781 404.333007812 1900 411 c 1
 2048 560 l 1
 2048 513 l 1
 1908 372 l 1
1850 598 m 1
 1846.66699219 608.666992188 1842.66699219 619.666992188 1838 631 c 1
 2048 841 l 1
 2048 796 l 1
 1850 598 l 1
1767 791 m 1
 1763.66699219 795.666992188 1760.83300781 800.5 1758.5 805.5 c 128
 1756.16699219 810.5 1753.33300781 815.666992188 1750 821 c 1
 2048 1118 l 1
 2048 1073 l 1
 1767 791 l 1
1513 1092 m 1
 1489 1110 1489 1110 1489 1110 c 1
 2015 1637 l 1
 2037 1637 2048 1634.66699219 2048 1630 c 1
 1513 1092 l 1
441 -257 m 1
 441.666992188 -247.666992188 442.333007812 -238.833007812 443 -230.5 c 128
 443.666992188 -222.166992188 446 -212.666992188 450 -202 c 1
 241 -410 l 1
 286 -410 l 1
 441 -257 l 1
1660 960 m 1
 1637 983 1637 983 1637 983 c 1
 2048 1394 l 1
 2048 1349 l 1
 1660 960 l 1
0 1513 m 1
 0 1557 l 1
 79 1637 l 1
 124 1637 l 1
 0 1513 l 1
1949 -410 m 1
 1906 -410 l 1
 2048 -270 l 1
 2048 -315 l 1
 1949 -410 l 1
1349 1201 m 1
 1344.33300781 1203 1339.33300781 1205.66699219 1334 1209 c 128
 1328.66699219 1212.33300781 1324 1215.33300781 1320 1218 c 1
 1738 1637 l 1
 1783 1637 l 1
 1349 1201 l 1
459 864 m 1
 0 404 l 1
 0 448 l 1
 515 965 l 1
 505 947.666992188 495.5 930.5 486.5 913.5 c 128
 477.5 896.5 468.333007812 880 459 864 c 1
879 1284 m 1
 895 1301 l 1
 905 1356 l 1
 854 1305 l 1
 860 1300.33300781 868.333007812 1293.33300781 879 1284 c 1
1025 1430 m 1
 1021.66699219 1433.33300781 1017.66699219 1437 1013 1441 c 128
 1008.33300781 1445 1004.33300781 1449 1001 1453 c 1
 1185 1637 l 1
 1230 1637 l 1
 1025 1430 l 1
0 726 m 1
 909 1637 l 1
 954 1637 l 1
 0 684 l 1
 0 726 l 1
0 1281 m 1
 356 1637 l 1
 401 1637 l 1
 0 1237 l 1
 0 1281 l 1
0 1003 m 1
 632 1637 l 1
 677 1637 l 1
 0 960 l 1
 0 1003 l 1
1168 1296 m 1
 1162 1298 1156.5 1300.33300781 1151.5 1303 c 128
 1146.5 1305.66699219 1141.33300781 1308 1136 1310 c 1
 1462 1637 l 1
 1507 1637 l 1
 1168 1296 l 1
1156 426 m 1
 1172.66699219 429.333007812 1191.5 433.166992188 1212.5 437.5 c 128
 1233.5 441.833007812 1256 448 1280 456 c 0
 1301.33300781 462.666992188 1308.33300781 474.666992188 1301 492 c 0
 1296.33300781 499.333007812 1289.66699219 503 1281 503 c 0
 1233.66699219 492.333007812 1189 486 1147 484 c 1
 1163 490 1179.66699219 496.166992188 1197 502.5 c 128
 1214.33300781 508.833007812 1231.33300781 516 1248 524 c 0
 1300 548.666992188 1334.33300781 602.666992188 1351 686 c 0
 1354.33300781 705.333007812 1348 716.333007812 1332 719 c 0
 1318 720.333007812 1307 714.666992188 1299 702 c 1
 1283 642.666992188 1257.66699219 602.666992188 1223 582 c 0
 1211.66699219 575.333007812 1200 569.333007812 1188 564 c 128
 1176 558.666992188 1164 553 1152 547 c 1
 1165.33300781 561 1177.66699219 578 1189 598 c 0
 1209.66699219 632.666992188 1223.66699219 694 1231 782 c 1
 1226.33300781 805.333007812 1214.66699219 814 1196 808 c 0
 1190 804.666992188 1186 801.666992188 1184 799 c 0
 1172 704.333007812 1155.66699219 642 1135 612 c 0
 1127.66699219 604.666992188 1122.66699219 598.333007812 1120 593 c 0
 1114 588.333007812 1108.5 583.833007812 1103.5 579.5 c 128
 1098.5 575.166992188 1093.66699219 571 1089 567 c 0
 1077.66699219 552.333007812 1072 535.666992188 1072 517 c 0
 1072 494.333007812 1078.5 473.666992188 1091.5 455 c 128
 1104.5 436.333007812 1126 426.666992188 1156 426 c 1
1085 1100 m 1
 1269.66699219 1009.33300781 1406 898 1494 766 c 0
 1548 684 1584 586.666992188 1602 474 c 128
 1620 361.333007812 1629 235 1629 95 c 1
 1625.66699219 41 1640.83300781 -6.3330078125 1674.5 -47 c 128
 1708.16699219 -87.6669921875 1746 -103.666992188 1788 -95 c 1
 1800.66699219 310.333007812 1728.66699219 619.333007812 1572 832 c 0
 1524 896 1457 958 1371 1018 c 128
 1285 1078 1189 1131.66699219 1083 1179 c 1
 1083 1165 1083.33300781 1150.83300781 1084 1136.5 c 128
 1084.66699219 1122.16699219 1085 1110 1085 1100 c 1
497 263 m 0
 504.333007812 275 512.833007812 286.833007812 522.5 298.5 c 128
 532.166992188 310.166992188 541 323.333007812 549 338 c 0
 563.666992188 368 556.333007812 385.666992188 527 391 c 0
 521.666992188 392.333007812 515.666992188 391.666992188 509 389 c 1
 489.666992188 363 468.666992188 336.666992188 446 310 c 0
 442.666992188 307.333007812 435 300.666992188 423 290 c 1
 417 270 416.666992188 254.666992188 422 244 c 0
 430.666992188 224 447 222.666992188 471 240 c 0
 483 249.333007812 491.666992188 257 497 263 c 0
849 520 m 0
 851 528 853.5 536 856.5 544 c 128
 859.5 552 862 560 864 568 c 0
 870 594 862.666992188 607 842 607 c 0
 834.666992188 607 825.666992188 601 815 589 c 1
 810.333007812 578.333007812 805.666992188 567.833007812 801 557.5 c 128
 796.333007812 547.166992188 792.666992188 537.666992188 790 529 c 0
 788 522.333007812 785 513 781 501 c 0
 779.666992188 491 783.666992188 483.666992188 793 479 c 0
 807 471 821.333007812 477.333007812 836 498 c 0
 840.666992188 502.666992188 845 510 849 520 c 0
382 440 m 0
 388.666992188 449.333007812 396.333007812 458.833007812 405 468.5 c 128
 413.666992188 478.166992188 421.333007812 489 428 501 c 0
 441.333007812 525.666992188 435 540 409 544 c 0
 405 544.666992188 399.333007812 544.333007812 392 543 c 1
 376 522.333007812 357.333007812 500.666992188 336 478 c 0
 328 472 321.333007812 466.666992188 316 462 c 1
 310.666992188 445.333007812 310.333007812 433 315 425 c 0
 323 408.333007812 337.666992188 407 359 421 c 0
 369.666992188 429 377.333007812 435.333007812 382 440 c 0
677 884 m 1
 681.666992188 855.333007812 689.333007812 839 700 835 c 128
 710.666992188 831 725.666992188 829.666992188 745 831 c 0
 771 833 791 838.333007812 805 847 c 0
 833 865 857.666992188 904 879 964 c 1
 857.666992188 957.333007812 837.666992188 954 819 954 c 128
 800.333007812 954 778 953 752 951 c 0
 715.333007812 947.666992188 690.333007812 925.333007812 677 884 c 1
664 304 m 1
 654.666992188 294 647.166992188 286.833007812 641.5 282.5 c 128
 635.833007812 278.166992188 631 274 627 270 c 0
 623.666992188 266.666992188 602 244.666992188 562 204 c 0
 546.666992188 187.333007812 528.333007812 176.666992188 507 172 c 0
 493 168 473.333007812 169.666992188 448 177 c 0
 364.666992188 199 299 243 251 309 c 0
 232.333007812 333.666992188 219.166992188 363.5 211.5 398.5 c 128
 203.833007812 433.5 207.333007812 478 222 532 c 0
 236.666992188 586.666992188 289.666992188 649 381 719 c 0
 480.333007812 795 538.666992188 855.333007812 556 900 c 1
 570.666992188 926 587.5 954.666992188 606.5 986 c 128
 625.5 1017.33300781 648 1047.66699219 674 1077 c 1
 690 1088.33300781 705.166992188 1101.5 719.5 1116.5 c 128
 733.833007812 1131.5 748 1147 762 1163 c 1
 762 1286 l 1
 798.666992188 1278.66699219 825.666992188 1268 843 1254 c 0
 851 1245.33300781 859.833007812 1237.33300781 869.5 1230 c 128
 879.166992188 1222.66699219 888 1214.66699219 896 1206 c 1
 912.666992188 1236 923.333007812 1261 928 1281 c 0
 928.666992188 1285.66699219 931 1295 935 1309 c 128
 939 1323 943 1346 947 1378 c 1
 957 1380.66699219 965.666992188 1378 973 1370 c 0
 1003.66699219 1335.33300781 1032.66699219 1296.66699219 1060 1254 c 1
 1182 1205.33300781 1293.5 1147.66699219 1394.5 1081 c 128
 1495.5 1014.33300781 1573 945 1627 873 c 0
 1779.66699219 665.666992188 1856 360.333007812 1856 -43 c 0
 1856 -127.666992188 1851.66699219 -205 1843 -275 c 1
 478 -275 l 1
 469.333007812 -188.333007812 515.333007812 -96.3330078125 616 1 c 0
 661.333007812 45 708.5 87.6669921875 757.5 129 c 128
 806.5 170.333007812 854.333007812 212.333007812 901 255 c 0
 987.666992188 335 1035.66699219 399 1045 447 c 1
 1041.66699219 455 1035.33300781 460.333007812 1026 463 c 1
 1002.66699219 449 979.333007812 440 956 436 c 128
 932.666992188 432 909.666992188 429.333007812 887 428 c 0
 872.333007812 427.333007812 857.833007812 426.833007812 843.5 426.5 c 128
 829.166992188 426.166992188 812.333007812 429.333007812 793 436 c 1
 767 406.666992188 744.833007812 381.5 726.5 360.5 c 128
 708.166992188 339.5 687.333007812 320.666992188 664 304 c 1
EndSplineSet
Validated: 41
EndChar

StartChar: I
Encoding: 73 73 11
Width: 2048
VWidth: 1638
Flags: HW
LayerCount: 2
Fore
SplineSet
1031 210 m 256
 955.666992188 210 891.333007812 203.333007812 838 190 c 128
 784.666992188 176.666992188 758 160.666992188 758 142 c 256
 758 123.333007812 784.666992188 107.5 838 94.5 c 128
 891.333007812 81.5 955.666992188 75 1031 75 c 256
 1106.33300781 75 1170.83300781 81.5 1224.5 94.5 c 128
 1278.16699219 107.5 1305 123.333007812 1305 142 c 256
 1305 160.666992188 1278.16699219 176.666992188 1224.5 190 c 128
 1170.83300781 203.333007812 1106.33300781 210 1031 210 c 256
1257 1442 m 256
 1228.33300781 1442 1214 1428 1214 1400 c 0
 1214 1371.33300781 1228.33300781 1357 1257 1357 c 256
 1285.66699219 1357 1300 1371.33300781 1300 1400 c 0
 1300 1428 1285.66699219 1442 1257 1442 c 256
1017 1445 m 256
 989.666992188 1445 976 1431.33300781 976 1404 c 256
 976 1376.66699219 989.666992188 1363 1017 1363 c 256
 1044.33300781 1363 1058 1376.66699219 1058 1404 c 256
 1058 1431.33300781 1044.33300781 1445 1017 1445 c 256
1180 876 m 1
 1180 927 l 1
 1052 927 l 1
 1052 1098 l 1
 1001 1098 l 1
 1001 927 l 1
 873 927 l 1
 873 876 l 1
 1001 876 l 1
 1001 637 l 1
 1052 637 l 1
 1052 876 l 1
 1180 876 l 1
1223 833 m 1
 1095 833 l 1
 1095 594 l 1
 958 594 l 1
 958 833 l 1
 830 833 l 1
 830 969 l 1
 958 969 l 1
 958 1140 l 1
 1095 1140 l 1
 1095 969 l 1
 1223 969 l 1
 1223 833 l 1
1123 289 m 1
 1026 329 l 1
 930 289 l 1
 1026 249 l 1
 1123 289 l 1
1415 826 m 1
 1422.33300781 862 1411.16699219 928.5 1381.5 1025.5 c 128
 1351.83300781 1122.5 1308 1203 1250 1267 c 1
 1241.33300781 1272.33300781 1233.66699219 1274.66699219 1227 1274 c 0
 1217 1272.66699219 1207.83300781 1267.66699219 1199.5 1259 c 128
 1191.16699219 1250.33300781 1190 1240 1196 1228 c 1
 1266.66699219 1180 1320.66699219 1111 1358 1021 c 128
 1395.33300781 931 1414.33300781 866 1415 826 c 1
803 443 m 1
 867 464.333007812 941.333007812 475 1026 475 c 0
 1114 475 1189 464.333007812 1251 443 c 1
 1332.33300781 607 1373 735.666992188 1373 829 c 0
 1373 987 1258.66699219 1140.66699219 1030 1290 c 1
 802 1140.66699219 688 987 688 829 c 0
 688 728.333007812 726.333007812 599.666992188 803 443 c 1
1232 341 m 1
 1214 404 l 1
 1158 417.333007812 1095 424 1025 424 c 0
 956.333007812 424 896 418 844 406 c 1
 824 342 l 1
 879.333007812 356.666992188 946.333007812 364 1025 364 c 0
 1107.66699219 364 1176.66699219 356.333007812 1232 341 c 1
1268 234 m 1
 1246 305 l 1
 1157 286 l 1
 1245 229 l 1
 1268 234 l 1
790 233 m 1
 808 229 l 1
 896 286 l 1
 811 305 l 1
 790 233 l 1
1025 -168 m 1
 975.666992188 -239.333007812 909 -275 825 -275 c 0
 816.333007812 -275 807.833007812 -274.5 799.5 -273.5 c 128
 791.166992188 -272.5 783 -271.666992188 775 -271 c 0
 755.666992188 -270.333007812 727.333007812 -266.833007812 690 -260.5 c 128
 652.666992188 -254.166992188 611 -239.333007812 565 -216 c 1
 524.333007812 -180.666992188 472.666992188 -163 410 -163 c 0
 362 -163 320.333007812 -174.333007812 285 -197 c 0
 275 -201.666992188 262.666992188 -211.333007812 248 -226 c 0
 221.333007812 -254.666992188 199.666992188 -270.333007812 183 -273 c 1
 169.666992188 -266.333007812 162.666992188 -255 162 -239 c 0
 158.666992188 -207.666992188 181.666992188 -167.333007812 231 -118 c 1
 222.333007812 -119.333007812 206 -123.333007812 182 -130 c 0
 162 -136 148.666992188 -139 142 -139 c 0
 120 -142.333007812 108.333007812 -142.666992188 107 -140 c 0
 99.6669921875 -132.666992188 102.333007812 -117.666992188 115 -95 c 0
 125.666992188 -75.6669921875 146.333007812 -58.6669921875 177 -44 c 0
 181 -42 193.666992188 -36.3330078125 215 -27 c 0
 277 5.6669921875 342 22 410 22 c 0
 509.333007812 22 599 -11.6669921875 679 -79 c 1
 711 -89.6669921875 743.333007812 -95 776 -95 c 0
 876 -95 927.666992188 -53.6669921875 931 29 c 1
 866.333007812 35 812.5 46 769.5 62 c 128
 726.5 78 705 96.6669921875 705 118 c 1
 785 384 l 1
 738.333007812 457.333007812 699.666992188 532 669 608 c 128
 638.333007812 684 623 756 623 824 c 0
 623 1028 733.666992188 1184.66699219 955 1294 c 1
 955 1302.66699219 956 1315.66699219 958 1333 c 1
 935.333007812 1351.66699219 924 1375.33300781 924 1404 c 0
 924 1465.33300781 955 1496 1017 1496 c 0
 1078.33300781 1496 1109 1465.33300781 1109 1404 c 0
 1109 1377.33300781 1099.33300781 1355 1080 1337 c 1
 1080 1316.33300781 1082.66699219 1302.33300781 1088 1295 c 0
 1099.33300781 1279 1114.33300781 1270.66699219 1133 1270 c 0
 1152.33300781 1270.66699219 1168.33300781 1279.33300781 1181 1296 c 0
 1183.66699219 1300 1186.33300781 1312.33300781 1189 1333 c 1
 1171.66699219 1351 1163 1373.33300781 1163 1400 c 0
 1163 1462.66699219 1194.33300781 1494 1257 1494 c 256
 1319.66699219 1494 1351 1462.66699219 1351 1400 c 0
 1351 1364.66699219 1335.66699219 1337.33300781 1305 1318 c 1
 1302.33300781 1304.66699219 1301.66699219 1294 1303 1286 c 1
 1415.66699219 1152.66699219 1464.66699219 998.666992188 1450 824 c 0
 1445.33300781 774 1437.66699219 724.833007812 1427 676.5 c 128
 1416.33300781 628.166992188 1397.66699219 582.666992188 1371 540 c 1
 1361 517.333007812 1345.5 491.833007812 1324.5 463.5 c 128
 1303.5 435.166992188 1285.33300781 408.666992188 1270 384 c 1
 1349 118 l 1
 1348.33300781 96.6669921875 1326.33300781 78 1283 62 c 128
 1239.66699219 46 1185 35 1119 29 c 1
 1122.33300781 -53.6669921875 1174.33300781 -95 1275 -95 c 0
 1307.66699219 -95 1340 -89.6669921875 1372 -79 c 1
 1451.33300781 -11.6669921875 1541 22 1641 22 c 0
 1709 22 1773.66699219 5.6669921875 1835 -27 c 0
 1843 -31 1850 -34.3330078125 1856 -37 c 128
 1862 -39.6669921875 1868 -42 1874 -44 c 0
 1904 -59.3330078125 1924.66699219 -76.3330078125 1936 -95 c 0
 1938 -101 1941 -108.666992188 1945 -118 c 128
 1949 -127.333007812 1948.66699219 -134.666992188 1944 -140 c 0
 1942 -142.666992188 1930.33300781 -142.333007812 1909 -139 c 0
 1902.33300781 -139 1889 -136 1869 -130 c 0
 1844.33300781 -123.333007812 1827.66699219 -119.333007812 1819 -118 c 1
 1868.33300781 -168 1891.66699219 -208.333007812 1889 -239 c 0
 1887.66699219 -254.333007812 1880.33300781 -265.666992188 1867 -273 c 1
 1850.33300781 -270.333007812 1828.66699219 -254.666992188 1802 -226 c 0
 1788.66699219 -212.666992188 1776.66699219 -203 1766 -197 c 0
 1728.66699219 -174.333007812 1687 -163 1641 -163 c 0
 1577 -163 1525 -180.666992188 1485 -216 c 1
 1439 -239.333007812 1397.33300781 -254.166992188 1360 -260.5 c 128
 1322.66699219 -266.833007812 1294.66699219 -270.333007812 1276 -271 c 0
 1268 -271.666992188 1259.66699219 -272.5 1251 -273.5 c 128
 1242.33300781 -274.5 1234 -275 1226 -275 c 0
 1140 -275 1073 -239.333007812 1025 -168 c 1
1025 -95 m 256
 1027 -95 1049 -115.333007812 1091 -156 c 0
 1129.66699219 -192.666992188 1177 -211 1233 -211 c 0
 1240 -211 1240 -211 1253 -211 c 128
 1266 -211 1266 -211 1274 -211 c 0
 1302.66699219 -209 1330 -205.5 1356 -200.5 c 128
 1382 -195.5 1413 -185.666992188 1449 -171 c 1
 1518.33300781 -123 1582.33300781 -99 1641 -99 c 0
 1666.33300781 -99 1689.66699219 -102 1711 -108 c 0
 1719.66699219 -110 1724.83300781 -112.166992188 1726.5 -114.5 c 128
 1728.16699219 -116.833007812 1735.66699219 -121 1749 -127 c 0
 1790.33300781 -148.333007812 1800.83300781 -150.5 1780.5 -133.5 c 128
 1760.16699219 -116.5 1752.33300781 -104 1757 -96 c 0
 1761 -87.3330078125 1776.5 -78 1803.5 -68 c 128
 1830.5 -58 1811 -50 1745 -44 c 1
 1711.66699219 -32.6669921875 1677 -27 1641 -27 c 0
 1561 -27 1479.33300781 -59.3330078125 1396 -124 c 1
 1366.66699219 -140 1341.83300781 -149 1321.5 -151 c 128
 1301.16699219 -153 1282 -153.333007812 1264 -152 c 0
 1212 -150 1177.16699219 -142.833007812 1159.5 -130.5 c 128
 1141.83300781 -118.166992188 1126 -104.333007812 1112 -89 c 0
 1098.66699219 -75 1085.66699219 -48 1073 -8 c 0
 1066.33300781 13.3330078125 1050.33300781 25.3330078125 1025 28 c 1
 999 25.3330078125 983 13.3330078125 977 -8 c 0
 965 -48 952 -75 938 -89 c 0
 924 -104.333007812 908.166992188 -118.166992188 890.5 -130.5 c 128
 872.833007812 -142.833007812 838.333007812 -150 787 -152 c 0
 768.333007812 -153.333007812 748.833007812 -153 728.5 -151 c 128
 708.166992188 -149 683.666992188 -140 655 -124 c 1
 570.333007812 -59.3330078125 488.666992188 -27 410 -27 c 0
 373.333007812 -27 338.666992188 -32.6669921875 306 -44 c 1
 239.333007812 -50 219.5 -58 246.5 -68 c 128
 273.5 -78 289.333007812 -87.3330078125 294 -96 c 0
 298 -104 289.833007812 -116.5 269.5 -133.5 c 128
 249.166992188 -150.5 260 -148.333007812 302 -127 c 0
 314 -121 321 -116.833007812 323 -114.5 c 128
 325 -112.166992188 330.333007812 -110 339 -108 c 0
 359.666992188 -102 383.333007812 -99 410 -99 c 0
 468 -99 531.666992188 -123 601 -171 c 1
 637 -185.666992188 667.833007812 -195.5 693.5 -200.5 c 128
 719.166992188 -205.5 747 -209 777 -211 c 0
 784 -211 784 -211 796.5 -211 c 128
 809 -211 809 -211 818 -211 c 0
 873.333007812 -211 920.666992188 -192.666992188 960 -156 c 0
 1001.33300781 -115.333007812 1023 -95 1025 -95 c 256
EndSplineSet
Validated: 33
EndChar

StartChar: J
Encoding: 74 74 12
Width: 2048
VWidth: 1638
Flags: HW
LayerCount: 2
Fore
SplineSet
1385 1514 m 1
 1371 1526 1362.66699219 1533 1360 1535 c 1
 1462 1637 l 1
 1507 1637 l 1
 1385 1514 l 1
570 745 m 1
 0 175 l 1
 0 127 l 1
 581 709 l 1
 579 714.333007812 577 720.166992188 575 726.5 c 128
 573 732.833007812 571.333007812 739 570 745 c 1
0 1003 m 1
 632 1637 l 1
 677 1637 l 1
 0 960 l 1
 0 1003 l 1
0 1281 m 1
 356 1637 l 1
 401 1637 l 1
 0 1237 l 1
 0 1281 l 1
0 726 m 1
 909 1637 l 1
 954 1637 l 1
 0 684 l 1
 0 726 l 1
1123 1530 m 1
 1113.66699219 1536.66699219 1104.33300781 1542 1095 1546 c 1
 1185 1637 l 1
 1230 1637 l 1
 1123 1530 l 1
581 986 m 1
 0 404 l 1
 0 448 l 1
 604 1054 l 1
 594 1030 586.333007812 1007.33300781 581 986 c 1
1414 1267 m 1
 1410 1273.66699219 1404 1283 1396 1295 c 1
 1738 1637 l 1
 1783 1637 l 1
 1414 1267 l 1
641 540 m 1
 648 526 648 526 656 510 c 1
 0 -149 l 1
 0 -101 l 1
 641 540 l 1
1949 -410 m 1
 1906 -410 l 1
 2048 -270 l 1
 2048 -315 l 1
 1949 -410 l 1
0 1513 m 1
 0 1557 l 1
 79 1637 l 1
 124 1637 l 1
 0 1513 l 1
1991 -97 m 2
 1990.33300781 -95 1988.66699219 -90.6669921875 1986 -84 c 0
 1982.66699219 -78 1979.33300781 -72.3330078125 1976 -67 c 1
 2048 6 l 1
 2048 -40 l 1
 1991 -97 l 2
1795 -291 m 1
 1677 -410 l 1
 1630 -410 l 1
 1775 -264 l 2
 1776.33300781 -265.333007812 1783 -274.333007812 1795 -291 c 1
1854 43 m 1
 1847.33300781 46.3330078125 1837.33300781 50.6669921875 1824 56 c 1
 2048 281 l 1
 2048 236 l 1
 1854 43 l 1
1522 -244 m 1
 1548 -226 1573 -216.333007812 1597 -215 c 1
 1402 -410 l 1
 1353 -410 l 1
 1522 -244 l 1
1619 85 m 1
 1600.33300781 83 1582 80 1564 76 c 1
 2048 560 l 1
 2048 513 l 1
 1619 85 l 1
1167 -322 m 2
 1169.66699219 -322 1172.5 -322.166992188 1175.5 -322.5 c 128
 1178.5 -322.833007812 1181.66699219 -323 1185 -323 c 2
 1185 -323 1185 -323 1215 -320 c 1
 1124 -410 l 1
 1077 -410 l 1
 1167 -322 l 2
1397 145 m 1
 1386 180 l 1
 2048 841 l 1
 2048 796 l 1
 1397 145 l 1
884 -322 m 1
 910.666992188 -320.666992188 933 -313.333007812 951 -300 c 1
 839 -410 l 1
 794 -410 l 1
 884 -322 l 1
1334 359 m 1
 1323 393 l 1
 2048 1118 l 1
 2048 1073 l 1
 1334 359 l 1
630 -299 m 1
 654 -308.333007812 665 -312.333007812 663 -311 c 2
 563 -410 l 1
 518 -410 l 1
 630 -299 l 1
687 35 m 1
 697 31 708 27 720 23 c 1
 679 -19 l 1
 665.666992188 -9 657 -2.6669921875 653 0 c 1
 687 35 l 1
1510 810 m 1
 1510 815.333007812 1510.33300781 821 1511 827 c 128
 1511.66699219 833 1512 839 1512 845 c 0
 1512.66699219 848.333007812 1513 853.333007812 1513 860 c 1
 2048 1394 l 1
 2048 1349 l 1
 1510 810 l 1
433 -220 m 1
 450.333007812 -221.333007812 463.333007812 -223 472 -225 c 1
 286 -410 l 1
 241 -410 l 1
 433 -220 l 1
711 333 m 1
 692 270 l 1
 496 74 l 1
 478.666992188 76.6669921875 466.333007812 78.6669921875 459 80 c 1
 711 333 l 1
1495 1075 m 1
 1492.33300781 1087.66699219 1489.33300781 1098.66699219 1486 1108 c 1
 2015 1637 l 1
 2037 1637 2048 1634.66699219 2048 1630 c 1
 1495 1075 l 1
116 -262 m 1
 118 -275.333007812 123 -285.333007812 131 -292 c 1
 13 -410 l 1
 4.3330078125 -410 0 -399.333007812 0 -378 c 1
 116 -262 l 1
1031 210 m 256
 955.666992188 210 891.333007812 203.333007812 838 190 c 128
 784.666992188 176.666992188 758 160.666992188 758 142 c 256
 758 123.333007812 784.666992188 107.5 838 94.5 c 128
 891.333007812 81.5 955.666992188 75 1031 75 c 256
 1106.33300781 75 1170.83300781 81.5 1224.5 94.5 c 128
 1278.16699219 107.5 1305 123.333007812 1305 142 c 256
 1305 160.666992188 1278.16699219 176.666992188 1224.5 190 c 128
 1170.83300781 203.333007812 1106.33300781 210 1031 210 c 256
1257 1442 m 256
 1228.33300781 1442 1214 1428 1214 1400 c 0
 1214 1371.33300781 1228.33300781 1357 1257 1357 c 256
 1285.66699219 1357 1300 1371.33300781 1300 1400 c 0
 1300 1428 1285.66699219 1442 1257 1442 c 256
1017 1445 m 256
 989.666992188 1445 976 1431.33300781 976 1404 c 256
 976 1376.66699219 989.666992188 1363 1017 1363 c 256
 1044.33300781 1363 1058 1376.66699219 1058 1404 c 256
 1058 1431.33300781 1044.33300781 1445 1017 1445 c 256
1180 876 m 1
 1180 927 l 1
 1052 927 l 1
 1052 1098 l 1
 1001 1098 l 1
 1001 927 l 1
 873 927 l 1
 873 876 l 1
 1001 876 l 1
 1001 637 l 1
 1052 637 l 1
 1052 876 l 1
 1180 876 l 1
1223 833 m 1
 1095 833 l 1
 1095 594 l 1
 958 594 l 1
 958 833 l 1
 830 833 l 1
 830 969 l 1
 958 969 l 1
 958 1140 l 1
 1095 1140 l 1
 1095 969 l 1
 1223 969 l 1
 1223 833 l 1
1123 289 m 1
 1026 329 l 1
 930 289 l 1
 1026 249 l 1
 1123 289 l 1
1415 826 m 1
 1422.33300781 862 1411.16699219 928.5 1381.5 1025.5 c 128
 1351.83300781 1122.5 1308 1203 1250 1267 c 1
 1241.33300781 1272.33300781 1233.66699219 1274.66699219 1227 1274 c 0
 1217 1272.66699219 1207.83300781 1267.66699219 1199.5 1259 c 128
 1191.16699219 1250.33300781 1190 1240 1196 1228 c 1
 1266.66699219 1180 1320.66699219 1111 1358 1021 c 128
 1395.33300781 931 1414.33300781 866 1415 826 c 1
803 443 m 1
 867 464.333007812 941.333007812 475 1026 475 c 0
 1114 475 1189 464.333007812 1251 443 c 1
 1332.33300781 607 1373 735.666992188 1373 829 c 0
 1373 987 1258.66699219 1140.66699219 1030 1290 c 1
 802 1140.66699219 688 987 688 829 c 0
 688 728.333007812 726.333007812 599.666992188 803 443 c 1
1232 341 m 1
 1214 404 l 1
 1158 417.333007812 1095 424 1025 424 c 0
 956.333007812 424 896 418 844 406 c 1
 824 342 l 1
 879.333007812 356.666992188 946.333007812 364 1025 364 c 0
 1107.66699219 364 1176.66699219 356.333007812 1232 341 c 1
1268 234 m 1
 1246 305 l 1
 1157 286 l 1
 1245 229 l 1
 1268 234 l 1
790 233 m 1
 808 229 l 1
 896 286 l 1
 811 305 l 1
 790 233 l 1
1025 -168 m 1
 975.666992188 -239.333007812 909 -275 825 -275 c 0
 816.333007812 -275 807.833007812 -274.5 799.5 -273.5 c 128
 791.166992188 -272.5 783 -271.666992188 775 -271 c 0
 755.666992188 -270.333007812 727.333007812 -266.833007812 690 -260.5 c 128
 652.666992188 -254.166992188 611 -239.333007812 565 -216 c 1
 524.333007812 -180.666992188 472.666992188 -163 410 -163 c 0
 362 -163 320.333007812 -174.333007812 285 -197 c 0
 275 -201.666992188 262.666992188 -211.333007812 248 -226 c 0
 221.333007812 -254.666992188 199.666992188 -270.333007812 183 -273 c 1
 169.666992188 -266.333007812 162.666992188 -255 162 -239 c 0
 158.666992188 -207.666992188 181.666992188 -167.333007812 231 -118 c 1
 222.333007812 -119.333007812 206 -123.333007812 182 -130 c 0
 162 -136 148.666992188 -139 142 -139 c 0
 120 -142.333007812 108.333007812 -142.666992188 107 -140 c 0
 99.6669921875 -132.666992188 102.333007812 -117.666992188 115 -95 c 0
 125.666992188 -75.6669921875 146.333007812 -58.6669921875 177 -44 c 0
 181 -42 193.666992188 -36.3330078125 215 -27 c 0
 277 5.6669921875 342 22 410 22 c 0
 509.333007812 22 599 -11.6669921875 679 -79 c 1
 711 -89.6669921875 743.333007812 -95 776 -95 c 0
 876 -95 927.666992188 -53.6669921875 931 29 c 1
 866.333007812 35 812.5 46 769.5 62 c 128
 726.5 78 705 96.6669921875 705 118 c 1
 785 384 l 1
 738.333007812 457.333007812 699.666992188 532 669 608 c 128
 638.333007812 684 623 756 623 824 c 0
 623 1028 733.666992188 1184.66699219 955 1294 c 1
 955 1302.66699219 956 1315.66699219 958 1333 c 1
 935.333007812 1351.66699219 924 1375.33300781 924 1404 c 0
 924 1465.33300781 955 1496 1017 1496 c 0
 1078.33300781 1496 1109 1465.33300781 1109 1404 c 0
 1109 1377.33300781 1099.33300781 1355 1080 1337 c 1
 1080 1316.33300781 1082.66699219 1302.33300781 1088 1295 c 0
 1099.33300781 1279 1114.33300781 1270.66699219 1133 1270 c 0
 1152.33300781 1270.66699219 1168.33300781 1279.33300781 1181 1296 c 0
 1183.66699219 1300 1186.33300781 1312.33300781 1189 1333 c 1
 1171.66699219 1351 1163 1373.33300781 1163 1400 c 0
 1163 1462.66699219 1194.33300781 1494 1257 1494 c 256
 1319.66699219 1494 1351 1462.66699219 1351 1400 c 0
 1351 1364.66699219 1335.66699219 1337.33300781 1305 1318 c 1
 1302.33300781 1304.66699219 1301.66699219 1294 1303 1286 c 1
 1415.66699219 1152.66699219 1464.66699219 998.666992188 1450 824 c 0
 1445.33300781 774 1437.66699219 724.833007812 1427 676.5 c 128
 1416.33300781 628.166992188 1397.66699219 582.666992188 1371 540 c 1
 1361 517.333007812 1345.5 491.833007812 1324.5 463.5 c 128
 1303.5 435.166992188 1285.33300781 408.666992188 1270 384 c 1
 1349 118 l 1
 1348.33300781 96.6669921875 1326.33300781 78 1283 62 c 128
 1239.66699219 46 1185 35 1119 29 c 1
 1122.33300781 -53.6669921875 1174.33300781 -95 1275 -95 c 0
 1307.66699219 -95 1340 -89.6669921875 1372 -79 c 1
 1451.33300781 -11.6669921875 1541 22 1641 22 c 0
 1709 22 1773.66699219 5.6669921875 1835 -27 c 0
 1843 -31 1850 -34.3330078125 1856 -37 c 128
 1862 -39.6669921875 1868 -42 1874 -44 c 0
 1904 -59.3330078125 1924.66699219 -76.3330078125 1936 -95 c 0
 1938 -101 1941 -108.666992188 1945 -118 c 128
 1949 -127.333007812 1948.66699219 -134.666992188 1944 -140 c 0
 1942 -142.666992188 1930.33300781 -142.333007812 1909 -139 c 0
 1902.33300781 -139 1889 -136 1869 -130 c 0
 1844.33300781 -123.333007812 1827.66699219 -119.333007812 1819 -118 c 1
 1868.33300781 -168 1891.66699219 -208.333007812 1889 -239 c 0
 1887.66699219 -254.333007812 1880.33300781 -265.666992188 1867 -273 c 1
 1850.33300781 -270.333007812 1828.66699219 -254.666992188 1802 -226 c 0
 1788.66699219 -212.666992188 1776.66699219 -203 1766 -197 c 0
 1728.66699219 -174.333007812 1687 -163 1641 -163 c 0
 1577 -163 1525 -180.666992188 1485 -216 c 1
 1439 -239.333007812 1397.33300781 -254.166992188 1360 -260.5 c 128
 1322.66699219 -266.833007812 1294.66699219 -270.333007812 1276 -271 c 0
 1268 -271.666992188 1259.66699219 -272.5 1251 -273.5 c 128
 1242.33300781 -274.5 1234 -275 1226 -275 c 0
 1140 -275 1073 -239.333007812 1025 -168 c 1
1025 -95 m 256
 1027 -95 1049 -115.333007812 1091 -156 c 0
 1129.66699219 -192.666992188 1177 -211 1233 -211 c 0
 1240 -211 1240 -211 1253 -211 c 128
 1266 -211 1266 -211 1274 -211 c 0
 1302.66699219 -209 1330 -205.5 1356 -200.5 c 128
 1382 -195.5 1413 -185.666992188 1449 -171 c 1
 1518.33300781 -123 1582.33300781 -99 1641 -99 c 0
 1666.33300781 -99 1689.66699219 -102 1711 -108 c 0
 1719.66699219 -110 1724.83300781 -112.166992188 1726.5 -114.5 c 128
 1728.16699219 -116.833007812 1735.66699219 -121 1749 -127 c 0
 1790.33300781 -148.333007812 1800.83300781 -150.5 1780.5 -133.5 c 128
 1760.16699219 -116.5 1752.33300781 -104 1757 -96 c 0
 1761 -87.3330078125 1776.5 -78 1803.5 -68 c 128
 1830.5 -58 1811 -50 1745 -44 c 1
 1711.66699219 -32.6669921875 1677 -27 1641 -27 c 0
 1561 -27 1479.33300781 -59.3330078125 1396 -124 c 1
 1366.66699219 -140 1341.83300781 -149 1321.5 -151 c 128
 1301.16699219 -153 1282 -153.333007812 1264 -152 c 0
 1212 -150 1177.16699219 -142.833007812 1159.5 -130.5 c 128
 1141.83300781 -118.166992188 1126 -104.333007812 1112 -89 c 0
 1098.66699219 -75 1085.66699219 -48 1073 -8 c 0
 1066.33300781 13.3330078125 1050.33300781 25.3330078125 1025 28 c 1
 999 25.3330078125 983 13.3330078125 977 -8 c 0
 965 -48 952 -75 938 -89 c 0
 924 -104.333007812 908.166992188 -118.166992188 890.5 -130.5 c 128
 872.833007812 -142.833007812 838.333007812 -150 787 -152 c 0
 768.333007812 -153.333007812 748.833007812 -153 728.5 -151 c 128
 708.166992188 -149 683.666992188 -140 655 -124 c 1
 570.333007812 -59.3330078125 488.666992188 -27 410 -27 c 0
 373.333007812 -27 338.666992188 -32.6669921875 306 -44 c 1
 239.333007812 -50 219.5 -58 246.5 -68 c 128
 273.5 -78 289.333007812 -87.3330078125 294 -96 c 0
 298 -104 289.833007812 -116.5 269.5 -133.5 c 128
 249.166992188 -150.5 260 -148.333007812 302 -127 c 0
 314 -121 321 -116.833007812 323 -114.5 c 128
 325 -112.166992188 330.333007812 -110 339 -108 c 0
 359.666992188 -102 383.333007812 -99 410 -99 c 0
 468 -99 531.666992188 -123 601 -171 c 1
 637 -185.666992188 667.833007812 -195.5 693.5 -200.5 c 128
 719.166992188 -205.5 747 -209 777 -211 c 0
 784 -211 784 -211 796.5 -211 c 128
 809 -211 809 -211 818 -211 c 0
 873.333007812 -211 920.666992188 -192.666992188 960 -156 c 0
 1001.33300781 -115.333007812 1023 -95 1025 -95 c 256
EndSplineSet
Validated: 37
EndChar

StartChar: K
Encoding: 75 75 13
Width: 2048
VWidth: 1638
Flags: HW
LayerCount: 2
Fore
SplineSet
1156 -131 m 0
 1145.33300781 -124.333007812 1130.33300781 -110.333007812 1111 -89 c 0
 1107.66699219 -85.6669921875 1104.33300781 -82.5 1101 -79.5 c 128
 1097.66699219 -76.5 1094.33300781 -73 1091 -69 c 0
 1085.66699219 -65.6669921875 1080.33300781 -64 1075 -64 c 0
 1040.33300781 -64 1027.33300781 -77 1036 -103 c 0
 1040 -109 1041.66699219 -111.666992188 1041 -111 c 1
 1045.66699219 -115.666992188 1061.66699219 -130.666992188 1089 -156 c 0
 1101.66699219 -168 1113.66699219 -176.666992188 1125 -182 c 0
 1131 -186 1137 -188 1143 -188 c 0
 1163 -188 1173 -178 1173 -158 c 0
 1173 -150 1167.33300781 -141 1156 -131 c 0
1232 378 m 1
 1214 447 l 1
 1161.33300781 461.666992188 1098.33300781 469 1025 469 c 0
 957.666992188 469 897.333007812 462.333007812 844 449 c 1
 824 380 l 1
 882 395.333007812 949 403 1025 403 c 0
 1106.33300781 403 1175.33300781 394.666992188 1232 378 c 1
1123 269 m 1
 1026 229 l 1
 930 269 l 1
 1026 309 l 1
 1123 269 l 1
1236 321 m 1
 1179.33300781 336.333007812 1110 344 1028 344 c 0
 951.333007812 344 883.666992188 337 825 323 c 1
 811 284 l 1
 896 265 l 1
 808 209 l 1
 789 213 l 1
 765 141 l 1
 779 155.666992188 810.666992188 168 860 178 c 128
 909.333007812 188 966.333007812 193 1031 193 c 0
 1094.33300781 193 1150.5 188 1199.5 178 c 128
 1248.5 168 1280.33300781 156 1295 142 c 1
 1270 214 l 1
 1245 209 l 1
 1157 265 l 1
 1247 284 l 1
 1236 321 l 1
1203 844 m 1
 1203 956 l 1
 1083 956 l 1
 1083 1112 l 1
 972 1112 l 1
 972 956 l 1
 850 956 l 1
 850 844 l 1
 972 844 l 1
 972 621 l 1
 1083 621 l 1
 1083 844 l 1
 1203 844 l 1
892 -131 m 0
 884.666992188 -138.333007812 881 -146.666992188 881 -156 c 0
 881 -176 891 -186 911 -186 c 0
 917 -186 922.333007812 -184.333007812 927 -181 c 0
 938.333007812 -175 949.333007812 -166.666992188 960 -156 c 0
 984 -133.333007812 1000.66699219 -118 1010 -110 c 0
 1011.33300781 -108.666992188 1012 -106.333007812 1012 -103 c 0
 1012 -77 999 -64 973 -64 c 0
 968.333007812 -64 964 -66 960 -70 c 0
 954 -76 946.666992188 -82.3330078125 938 -89 c 0
 930 -95 922.833007812 -101.833007812 916.5 -109.5 c 128
 910.166992188 -117.166992188 902 -124.333007812 892 -131 c 0
1401 781 m 1
 1410.33300781 817 1400 884 1370 982 c 128
 1340 1080 1293.33300781 1162 1230 1228 c 0
 1222 1234 1213.66699219 1236.66699219 1205 1236 c 0
 1193.66699219 1235.33300781 1183 1230.66699219 1173 1222 c 128
 1163 1213.33300781 1161.66699219 1203 1169 1191 c 1
 1247 1139.66699219 1305.33300781 1068.5 1344 977.5 c 128
 1382.66699219 886.5 1401.66699219 821 1401 781 c 1
1025 -168 m 1
 975.666992188 -239.333007812 909 -275 825 -275 c 0
 816.333007812 -275 807.833007812 -274.5 799.5 -273.5 c 128
 791.166992188 -272.5 783 -271.666992188 775 -271 c 0
 755.666992188 -270.333007812 727.333007812 -266.833007812 690 -260.5 c 128
 652.666992188 -254.166992188 611 -239.333007812 565 -216 c 1
 524.333007812 -180.666992188 472.666992188 -163 410 -163 c 0
 362 -163 320.333007812 -174.333007812 285 -197 c 0
 275 -201.666992188 262.666992188 -211.333007812 248 -226 c 0
 221.333007812 -254.666992188 199.666992188 -270.333007812 183 -273 c 1
 169.666992188 -266.333007812 162.666992188 -255 162 -239 c 0
 158.666992188 -207.666992188 181.666992188 -167.333007812 231 -118 c 1
 222.333007812 -119.333007812 206 -123.333007812 182 -130 c 0
 162 -136 148.666992188 -139 142 -139 c 0
 120 -142.333007812 108.333007812 -142.666992188 107 -140 c 0
 99.6669921875 -132.666992188 102.333007812 -117.666992188 115 -95 c 0
 125.666992188 -75.6669921875 146.333007812 -58.6669921875 177 -44 c 0
 181 -42 193.666992188 -36.3330078125 215 -27 c 0
 277 5.6669921875 342 22 410 22 c 0
 509.333007812 22 599 -11.6669921875 679 -79 c 1
 711 -89.6669921875 743.333007812 -95 776 -95 c 0
 876 -95 927.666992188 -53.6669921875 931 29 c 1
 866.333007812 35 812.5 46 769.5 62 c 128
 726.5 78 705 96.6669921875 705 118 c 1
 785 384 l 1
 738.333007812 457.333007812 699.666992188 532 669 608 c 128
 638.333007812 684 623 756 623 824 c 0
 623 1028 733.666992188 1184.66699219 955 1294 c 1
 955 1302.66699219 956 1315.66699219 958 1333 c 1
 935.333007812 1351.66699219 924 1375.33300781 924 1404 c 0
 924 1465.33300781 955 1496 1017 1496 c 0
 1078.33300781 1496 1109 1465.33300781 1109 1404 c 0
 1109 1377.33300781 1099.33300781 1355 1080 1337 c 1
 1080 1316.33300781 1082.66699219 1302.33300781 1088 1295 c 0
 1099.33300781 1279 1114.33300781 1270.66699219 1133 1270 c 0
 1152.33300781 1270.66699219 1168.33300781 1279.33300781 1181 1296 c 0
 1183.66699219 1300 1186.33300781 1312.33300781 1189 1333 c 1
 1171.66699219 1351 1163 1373.33300781 1163 1400 c 0
 1163 1462.66699219 1194.33300781 1494 1257 1494 c 256
 1319.66699219 1494 1351 1462.66699219 1351 1400 c 0
 1351 1364.66699219 1335.66699219 1337.33300781 1305 1318 c 1
 1302.33300781 1304.66699219 1301.66699219 1294 1303 1286 c 1
 1415.66699219 1152.66699219 1464.66699219 998.666992188 1450 824 c 0
 1445.33300781 774 1437.66699219 724.833007812 1427 676.5 c 128
 1416.33300781 628.166992188 1397.66699219 582.666992188 1371 540 c 1
 1361 517.333007812 1345.5 491.833007812 1324.5 463.5 c 128
 1303.5 435.166992188 1285.33300781 408.666992188 1270 384 c 1
 1349 118 l 1
 1348.33300781 96.6669921875 1326.33300781 78 1283 62 c 128
 1239.66699219 46 1185 35 1119 29 c 1
 1122.33300781 -53.6669921875 1174.33300781 -95 1275 -95 c 0
 1307.66699219 -95 1340 -89.6669921875 1372 -79 c 1
 1451.33300781 -11.6669921875 1541 22 1641 22 c 0
 1709 22 1773.66699219 5.6669921875 1835 -27 c 0
 1843 -31 1850 -34.3330078125 1856 -37 c 128
 1862 -39.6669921875 1868 -42 1874 -44 c 0
 1904 -59.3330078125 1924.66699219 -76.3330078125 1936 -95 c 0
 1938 -101 1941 -108.666992188 1945 -118 c 128
 1949 -127.333007812 1948.66699219 -134.666992188 1944 -140 c 0
 1942 -142.666992188 1930.33300781 -142.333007812 1909 -139 c 0
 1902.33300781 -139 1889 -136 1869 -130 c 0
 1844.33300781 -123.333007812 1827.66699219 -119.333007812 1819 -118 c 1
 1868.33300781 -168 1891.66699219 -208.333007812 1889 -239 c 0
 1887.66699219 -254.333007812 1880.33300781 -265.666992188 1867 -273 c 1
 1850.33300781 -270.333007812 1828.66699219 -254.666992188 1802 -226 c 0
 1788.66699219 -212.666992188 1776.66699219 -203 1766 -197 c 0
 1728.66699219 -174.333007812 1687 -163 1641 -163 c 0
 1577 -163 1525 -180.666992188 1485 -216 c 1
 1439 -239.333007812 1397.33300781 -254.166992188 1360 -260.5 c 128
 1322.66699219 -266.833007812 1294.66699219 -270.333007812 1276 -271 c 0
 1268 -271.666992188 1259.66699219 -272.5 1251 -273.5 c 128
 1242.33300781 -274.5 1234 -275 1226 -275 c 0
 1140 -275 1073 -239.333007812 1025 -168 c 1
EndSplineSet
Validated: 33
EndChar

StartChar: L
Encoding: 76 76 14
Width: 2048
VWidth: 1638
Flags: HW
LayerCount: 2
Fore
SplineSet
1385 1514 m 1
 1371 1526 1362.66699219 1533 1360 1535 c 1
 1462 1637 l 1
 1507 1637 l 1
 1385 1514 l 1
570 745 m 1
 0 175 l 1
 0 127 l 1
 581 709 l 1
 579 714.333007812 577 720.166992188 575 726.5 c 128
 573 732.833007812 571.333007812 739 570 745 c 1
0 1003 m 1
 632 1637 l 1
 677 1637 l 1
 0 960 l 1
 0 1003 l 1
0 1281 m 1
 356 1637 l 1
 401 1637 l 1
 0 1237 l 1
 0 1281 l 1
0 726 m 1
 909 1637 l 1
 954 1637 l 1
 0 684 l 1
 0 726 l 1
1123 1530 m 1
 1113.66699219 1536.66699219 1104.33300781 1542 1095 1546 c 1
 1185 1637 l 1
 1230 1637 l 1
 1123 1530 l 1
581 986 m 1
 0 404 l 1
 0 448 l 1
 604 1054 l 1
 594 1030 586.333007812 1007.33300781 581 986 c 1
1414 1267 m 1
 1410 1273.66699219 1404 1283 1396 1295 c 1
 1738 1637 l 1
 1783 1637 l 1
 1414 1267 l 1
641 540 m 1
 648 526 648 526 656 510 c 1
 0 -149 l 1
 0 -101 l 1
 641 540 l 1
1949 -410 m 1
 1906 -410 l 1
 2048 -270 l 1
 2048 -315 l 1
 1949 -410 l 1
0 1513 m 1
 0 1557 l 1
 79 1637 l 1
 124 1637 l 1
 0 1513 l 1
1991 -97 m 2
 1990.33300781 -95 1988.66699219 -90.6669921875 1986 -84 c 0
 1982.66699219 -78 1979.33300781 -72.3330078125 1976 -67 c 1
 2048 6 l 1
 2048 -40 l 1
 1991 -97 l 2
1795 -291 m 1
 1677 -410 l 1
 1630 -410 l 1
 1775 -264 l 2
 1776.33300781 -265.333007812 1783 -274.333007812 1795 -291 c 1
1854 43 m 1
 1847.33300781 46.3330078125 1837.33300781 50.6669921875 1824 56 c 1
 2048 281 l 1
 2048 236 l 1
 1854 43 l 1
1522 -244 m 1
 1548 -226 1573 -216.333007812 1597 -215 c 1
 1402 -410 l 1
 1353 -410 l 1
 1522 -244 l 1
1619 85 m 1
 1600.33300781 83 1582 80 1564 76 c 1
 2048 560 l 1
 2048 513 l 1
 1619 85 l 1
1167 -322 m 2
 1169.66699219 -322 1172.5 -322.166992188 1175.5 -322.5 c 128
 1178.5 -322.833007812 1181.66699219 -323 1185 -323 c 2
 1185 -323 1185 -323 1215 -320 c 1
 1124 -410 l 1
 1077 -410 l 1
 1167 -322 l 2
1397 145 m 1
 1386 180 l 1
 2048 841 l 1
 2048 796 l 1
 1397 145 l 1
884 -322 m 1
 910.666992188 -320.666992188 933 -313.333007812 951 -300 c 1
 839 -410 l 1
 794 -410 l 1
 884 -322 l 1
1334 359 m 1
 1323 393 l 1
 2048 1118 l 1
 2048 1073 l 1
 1334 359 l 1
630 -299 m 1
 654 -308.333007812 665 -312.333007812 663 -311 c 2
 563 -410 l 1
 518 -410 l 1
 630 -299 l 1
687 35 m 1
 697 31 708 27 720 23 c 1
 679 -19 l 1
 665.666992188 -9 657 -2.6669921875 653 0 c 1
 687 35 l 1
1510 810 m 1
 1510 815.333007812 1510.33300781 821 1511 827 c 128
 1511.66699219 833 1512 839 1512 845 c 0
 1512.66699219 848.333007812 1513 853.333007812 1513 860 c 1
 2048 1394 l 1
 2048 1349 l 1
 1510 810 l 1
433 -220 m 1
 450.333007812 -221.333007812 463.333007812 -223 472 -225 c 1
 286 -410 l 1
 241 -410 l 1
 433 -220 l 1
711 333 m 1
 692 270 l 1
 496 74 l 1
 478.666992188 76.6669921875 466.333007812 78.6669921875 459 80 c 1
 711 333 l 1
1495 1075 m 1
 1492.33300781 1087.66699219 1489.33300781 1098.66699219 1486 1108 c 1
 2015 1637 l 1
 2037 1637 2048 1634.66699219 2048 1630 c 1
 1495 1075 l 1
116 -262 m 1
 118 -275.333007812 123 -285.333007812 131 -292 c 1
 13 -410 l 1
 4.3330078125 -410 0 -399.333007812 0 -378 c 1
 116 -262 l 1
1156 -131 m 0
 1145.33300781 -124.333007812 1130.33300781 -110.333007812 1111 -89 c 0
 1107.66699219 -85.6669921875 1104.33300781 -82.5 1101 -79.5 c 128
 1097.66699219 -76.5 1094.33300781 -73 1091 -69 c 0
 1085.66699219 -65.6669921875 1080.33300781 -64 1075 -64 c 0
 1040.33300781 -64 1027.33300781 -77 1036 -103 c 0
 1040 -109 1041.66699219 -111.666992188 1041 -111 c 1
 1045.66699219 -115.666992188 1061.66699219 -130.666992188 1089 -156 c 0
 1101.66699219 -168 1113.66699219 -176.666992188 1125 -182 c 0
 1131 -186 1137 -188 1143 -188 c 0
 1163 -188 1173 -178 1173 -158 c 0
 1173 -150 1167.33300781 -141 1156 -131 c 0
1232 378 m 1
 1214 447 l 1
 1161.33300781 461.666992188 1098.33300781 469 1025 469 c 0
 957.666992188 469 897.333007812 462.333007812 844 449 c 1
 824 380 l 1
 882 395.333007812 949 403 1025 403 c 0
 1106.33300781 403 1175.33300781 394.666992188 1232 378 c 1
1123 269 m 1
 1026 229 l 1
 930 269 l 1
 1026 309 l 1
 1123 269 l 1
1236 321 m 1
 1179.33300781 336.333007812 1110 344 1028 344 c 0
 951.333007812 344 883.666992188 337 825 323 c 1
 811 284 l 1
 896 265 l 1
 808 209 l 1
 789 213 l 1
 765 141 l 1
 779 155.666992188 810.666992188 168 860 178 c 128
 909.333007812 188 966.333007812 193 1031 193 c 0
 1094.33300781 193 1150.5 188 1199.5 178 c 128
 1248.5 168 1280.33300781 156 1295 142 c 1
 1270 214 l 1
 1245 209 l 1
 1157 265 l 1
 1247 284 l 1
 1236 321 l 1
1203 844 m 1
 1203 956 l 1
 1083 956 l 1
 1083 1112 l 1
 972 1112 l 1
 972 956 l 1
 850 956 l 1
 850 844 l 1
 972 844 l 1
 972 621 l 1
 1083 621 l 1
 1083 844 l 1
 1203 844 l 1
892 -131 m 0
 884.666992188 -138.333007812 881 -146.666992188 881 -156 c 0
 881 -176 891 -186 911 -186 c 0
 917 -186 922.333007812 -184.333007812 927 -181 c 0
 938.333007812 -175 949.333007812 -166.666992188 960 -156 c 0
 984 -133.333007812 1000.66699219 -118 1010 -110 c 0
 1011.33300781 -108.666992188 1012 -106.333007812 1012 -103 c 0
 1012 -77 999 -64 973 -64 c 0
 968.333007812 -64 964 -66 960 -70 c 0
 954 -76 946.666992188 -82.3330078125 938 -89 c 0
 930 -95 922.833007812 -101.833007812 916.5 -109.5 c 128
 910.166992188 -117.166992188 902 -124.333007812 892 -131 c 0
1401 781 m 1
 1410.33300781 817 1400 884 1370 982 c 128
 1340 1080 1293.33300781 1162 1230 1228 c 0
 1222 1234 1213.66699219 1236.66699219 1205 1236 c 0
 1193.66699219 1235.33300781 1183 1230.66699219 1173 1222 c 128
 1163 1213.33300781 1161.66699219 1203 1169 1191 c 1
 1247 1139.66699219 1305.33300781 1068.5 1344 977.5 c 128
 1382.66699219 886.5 1401.66699219 821 1401 781 c 1
1025 -168 m 1
 975.666992188 -239.333007812 909 -275 825 -275 c 0
 816.333007812 -275 807.833007812 -274.5 799.5 -273.5 c 128
 791.166992188 -272.5 783 -271.666992188 775 -271 c 0
 755.666992188 -270.333007812 727.333007812 -266.833007812 690 -260.5 c 128
 652.666992188 -254.166992188 611 -239.333007812 565 -216 c 1
 524.333007812 -180.666992188 472.666992188 -163 410 -163 c 0
 362 -163 320.333007812 -174.333007812 285 -197 c 0
 275 -201.666992188 262.666992188 -211.333007812 248 -226 c 0
 221.333007812 -254.666992188 199.666992188 -270.333007812 183 -273 c 1
 169.666992188 -266.333007812 162.666992188 -255 162 -239 c 0
 158.666992188 -207.666992188 181.666992188 -167.333007812 231 -118 c 1
 222.333007812 -119.333007812 206 -123.333007812 182 -130 c 0
 162 -136 148.666992188 -139 142 -139 c 0
 120 -142.333007812 108.333007812 -142.666992188 107 -140 c 0
 99.6669921875 -132.666992188 102.333007812 -117.666992188 115 -95 c 0
 125.666992188 -75.6669921875 146.333007812 -58.6669921875 177 -44 c 0
 181 -42 193.666992188 -36.3330078125 215 -27 c 0
 277 5.6669921875 342 22 410 22 c 0
 509.333007812 22 599 -11.6669921875 679 -79 c 1
 711 -89.6669921875 743.333007812 -95 776 -95 c 0
 876 -95 927.666992188 -53.6669921875 931 29 c 1
 866.333007812 35 812.5 46 769.5 62 c 128
 726.5 78 705 96.6669921875 705 118 c 1
 785 384 l 1
 738.333007812 457.333007812 699.666992188 532 669 608 c 128
 638.333007812 684 623 756 623 824 c 0
 623 1028 733.666992188 1184.66699219 955 1294 c 1
 955 1302.66699219 956 1315.66699219 958 1333 c 1
 935.333007812 1351.66699219 924 1375.33300781 924 1404 c 0
 924 1465.33300781 955 1496 1017 1496 c 0
 1078.33300781 1496 1109 1465.33300781 1109 1404 c 0
 1109 1377.33300781 1099.33300781 1355 1080 1337 c 1
 1080 1316.33300781 1082.66699219 1302.33300781 1088 1295 c 0
 1099.33300781 1279 1114.33300781 1270.66699219 1133 1270 c 0
 1152.33300781 1270.66699219 1168.33300781 1279.33300781 1181 1296 c 0
 1183.66699219 1300 1186.33300781 1312.33300781 1189 1333 c 1
 1171.66699219 1351 1163 1373.33300781 1163 1400 c 0
 1163 1462.66699219 1194.33300781 1494 1257 1494 c 256
 1319.66699219 1494 1351 1462.66699219 1351 1400 c 0
 1351 1364.66699219 1335.66699219 1337.33300781 1305 1318 c 1
 1302.33300781 1304.66699219 1301.66699219 1294 1303 1286 c 1
 1415.66699219 1152.66699219 1464.66699219 998.666992188 1450 824 c 0
 1445.33300781 774 1437.66699219 724.833007812 1427 676.5 c 128
 1416.33300781 628.166992188 1397.66699219 582.666992188 1371 540 c 1
 1361 517.333007812 1345.5 491.833007812 1324.5 463.5 c 128
 1303.5 435.166992188 1285.33300781 408.666992188 1270 384 c 1
 1349 118 l 1
 1348.33300781 96.6669921875 1326.33300781 78 1283 62 c 128
 1239.66699219 46 1185 35 1119 29 c 1
 1122.33300781 -53.6669921875 1174.33300781 -95 1275 -95 c 0
 1307.66699219 -95 1340 -89.6669921875 1372 -79 c 1
 1451.33300781 -11.6669921875 1541 22 1641 22 c 0
 1709 22 1773.66699219 5.6669921875 1835 -27 c 0
 1843 -31 1850 -34.3330078125 1856 -37 c 128
 1862 -39.6669921875 1868 -42 1874 -44 c 0
 1904 -59.3330078125 1924.66699219 -76.3330078125 1936 -95 c 0
 1938 -101 1941 -108.666992188 1945 -118 c 128
 1949 -127.333007812 1948.66699219 -134.666992188 1944 -140 c 0
 1942 -142.666992188 1930.33300781 -142.333007812 1909 -139 c 0
 1902.33300781 -139 1889 -136 1869 -130 c 0
 1844.33300781 -123.333007812 1827.66699219 -119.333007812 1819 -118 c 1
 1868.33300781 -168 1891.66699219 -208.333007812 1889 -239 c 0
 1887.66699219 -254.333007812 1880.33300781 -265.666992188 1867 -273 c 1
 1850.33300781 -270.333007812 1828.66699219 -254.666992188 1802 -226 c 0
 1788.66699219 -212.666992188 1776.66699219 -203 1766 -197 c 0
 1728.66699219 -174.333007812 1687 -163 1641 -163 c 0
 1577 -163 1525 -180.666992188 1485 -216 c 1
 1439 -239.333007812 1397.33300781 -254.166992188 1360 -260.5 c 128
 1322.66699219 -266.833007812 1294.66699219 -270.333007812 1276 -271 c 0
 1268 -271.666992188 1259.66699219 -272.5 1251 -273.5 c 128
 1242.33300781 -274.5 1234 -275 1226 -275 c 0
 1140 -275 1073 -239.333007812 1025 -168 c 1
EndSplineSet
Validated: 37
EndChar

StartChar: M
Encoding: 77 77 15
Width: 2048
VWidth: 1638
Flags: HW
LayerCount: 2
Fore
SplineSet
1024 1500 m 1
 1162 1500 l 1
 1162 1364 l 1
 1369 1364 l 1
 1369 1500 l 1
 1607 1500 l 1
 1607 1143 l 1
 1446 957 l 1
 1480.66699219 913 1481.33300781 866.666992188 1448 818 c 0
 1442.66699219 809.333007812 1440 801.333007812 1440 794 c 0
 1440 785.333007812 1442.66699219 777 1448 769 c 0
 1462 748.333007812 1468.83300781 719.166992188 1468.5 681.5 c 128
 1468.16699219 643.833007812 1461 614.333007812 1447 593 c 0
 1442.33300781 586.333007812 1440 579.333007812 1440 572 c 0
 1440 562.666992188 1443 554 1449 546 c 0
 1480.33300781 498.666992188 1479.66699219 452 1447 406 c 0
 1442.33300781 398 1440 390.333007812 1440 383 c 256
 1440 375.666992188 1442.33300781 368 1447 360 c 0
 1461.66699219 338 1469 307.5 1469 268.5 c 128
 1469 229.5 1461 200.666992188 1445 182 c 1
 1607 101 l 1
 1607 15 l 1
 1674 15 l 1
 1674 -275 l 1
 1024 -275 l 1
 373 -275 l 1
 373 14 l 1
 441 14 l 1
 441 100 l 1
 602 182 l 1
 586 200.666992188 578 229.333007812 578 268 c 128
 578 306.666992188 585.333007812 337 600 359 c 0
 605.333007812 366.333007812 608 374 608 382 c 0
 608 388.666992188 605.333007812 396.333007812 600 405 c 0
 567.333007812 451.666992188 567 498.333007812 599 545 c 0
 605 555.666992188 608 564.333007812 608 571 c 256
 608 577.666992188 605.666992188 585 601 593 c 0
 586.333007812 614.333007812 578.833007812 643.833007812 578.5 681.5 c 128
 578.166992188 719.166992188 585 748.333007812 599 769 c 0
 605 777 608 785.333007812 608 794 c 0
 608 801.333007812 605.333007812 809 600 817 c 0
 566 865.666992188 566.666992188 912.333007812 602 957 c 1
 441 1142 l 1
 441 1499 l 1
 679 1499 l 1
 679 1364 l 1
 885 1363 l 1
 885 1499 l 1
 1024 1500 l 1
655 1006 m 1
 769 1024 892 1033 1024 1033 c 0
 1158 1033 1282 1024 1396 1006 c 1
 1454 1079 l 1
 1318 1103 1174.66699219 1115 1024 1115 c 0
 872 1115 728.333007812 1103 593 1079 c 1
 655 1006 l 1
444 -54 m 1
 444 -207 l 1
 1603 -207 l 1
 1603 -54 l 1
 444 -54 l 1
1024 150 m 0
 885.333007812 150 759.666992188 145.333007812 647 136 c 1
 512 64 l 1
 512 14 l 1
 1536 14 l 1
 1536 64 l 1
 1502 82 1502 82 1468 100 c 128
 1445.33300781 112 1423 124 1401 136 c 1
 1281 145.333007812 1155.33300781 150 1024 150 c 0
1536 1432 m 1
 1433 1432 l 1
 1433 1292 l 1
 1091 1292 l 1
 1091 1431 l 1
 956 1431 l 1
 956 1292 l 1
 615 1292 l 1
 615 1432 l 1
 512 1432 l 1
 512 1368 512 1368 512 1304.5 c 128
 512 1241 512 1241 512 1178 c 1
 597.333007812 1183.33300781 682.5 1188.33300781 767.5 1193 c 128
 852.5 1197.66699219 938 1200 1024 1200 c 0
 1186 1200 1356.66699219 1192.66699219 1536 1178 c 1
 1536 1432 l 1
1205 953 m 0
 1183 937 1172 914.333007812 1172 885 c 128
 1172 855.666992188 1183 833 1205 817 c 0
 1225.66699219 801 1256.33300781 793 1297 793 c 128
 1337.66699219 793 1368.66699219 801 1390 817 c 256
 1411.33300781 833 1422 855.666992188 1422 885 c 128
 1422 914.333007812 1411.33300781 937 1390 953 c 0
 1368.66699219 968.333007812 1337.66699219 976 1297 976 c 128
 1256.33300781 976 1225.66699219 968.333007812 1205 953 c 0
936 953 m 0
 915.333007812 937 905 914.333007812 905 885 c 128
 905 855.666992188 915.333007812 833 936 817 c 0
 956 801 985.166992188 793 1023.5 793 c 128
 1061.83300781 793 1091.33300781 801 1112 817 c 0
 1132 833 1142 855.666992188 1142 885 c 128
 1142 914.333007812 1132 937 1112 953 c 0
 1091.33300781 968.333007812 1061.83300781 976 1023.5 976 c 128
 985.166992188 976 956 968.333007812 936 953 c 0
658 953 m 0
 636 937 625 914.333007812 625 885 c 128
 625 855.666992188 636 833 658 817 c 0
 678.666992188 801 709.166992188 793 749.5 793 c 128
 789.833007812 793 821 801 843 817 c 0
 864.333007812 833 875 855.666992188 875 885 c 128
 875 914.333007812 864.333007812 937 843 953 c 0
 821 968.333007812 789.833007812 976 749.5 976 c 128
 709.166992188 976 678.666992188 968.333007812 658 953 c 0
1330 750 m 0
 1322 734 1318 711.166992188 1318 681.5 c 128
 1318 651.833007812 1322 629.333007812 1330 614 c 0
 1337.33300781 598 1349 590 1365 590 c 128
 1381 590 1393 598 1401 614 c 0
 1409 629.333007812 1413 651.833007812 1413 681.5 c 128
 1413 711.166992188 1409 734 1401 750 c 0
 1393 764.666992188 1381 772 1365 772 c 128
 1349 772 1337.33300781 764.666992188 1330 750 c 0
1074 750 m 0
 1054 734 1044 711.166992188 1044 681.5 c 128
 1044 651.833007812 1054 629.333007812 1074 614 c 0
 1094 598 1122.83300781 590 1160.5 590 c 128
 1198.16699219 590 1227 598 1247 614 c 0
 1267 629.333007812 1277 651.833007812 1277 681.5 c 128
 1277 711.166992188 1267 734 1247 750 c 0
 1227 765.333007812 1198.16699219 773 1160.5 773 c 128
 1122.83300781 773 1094 765.333007812 1074 750 c 0
801 750 m 0
 781 734 771 711.166992188 771 681.5 c 128
 771 651.833007812 781 629.333007812 801 614 c 0
 820.333007812 598 849 590 887 590 c 128
 925 590 954 598 974 614 c 0
 993.333007812 629.333007812 1003 651.833007812 1003 681.5 c 128
 1003 711.166992188 993.333007812 734 974 750 c 0
 954 765.333007812 925 773 887 773 c 128
 849 773 820.333007812 765.333007812 801 750 c 0
647 750 m 0
 639 734 635 711.166992188 635 681.5 c 128
 635 651.833007812 639 629.333007812 647 614 c 0
 655 598 666.833007812 590 682.5 590 c 128
 698.166992188 590 710 598 718 614 c 0
 726 629.333007812 730 651.833007812 730 681.5 c 128
 730 711.166992188 726 734 718 750 c 0
 710 764.666992188 698.166992188 772 682.5 772 c 128
 666.833007812 772 655 764.666992188 647 750 c 0
1330 339 m 0
 1322 323.666992188 1318 301 1318 271 c 128
 1318 241 1322 218.333007812 1330 203 c 0
 1337.33300781 187.666992188 1349 180 1365 180 c 128
 1381 180 1393 187.666992188 1401 203 c 256
 1409 218.333007812 1413 241 1413 271 c 128
 1413 301 1409 323.666992188 1401 339 c 0
 1393 353.666992188 1381 361 1365 361 c 128
 1349 361 1337.33300781 353.666992188 1330 339 c 0
647 339 m 0
 639 323.666992188 635 301 635 271 c 128
 635 241 639 218.333007812 647 203 c 256
 655 187.666992188 666.833007812 180 682.5 180 c 128
 698.166992188 180 710 187.666992188 718 203 c 256
 726 218.333007812 730 241 730 271 c 128
 730 301 726 323.666992188 718 339 c 0
 710 353.666992188 698.166992188 361 682.5 361 c 128
 666.833007812 361 655 353.666992188 647 339 c 0
801 339 m 0
 781 323 771 299 771 267 c 128
 771 235 781 213.666992188 801 203 c 0
 819.666992188 192.333007812 849.166992188 187 889.5 187 c 128
 929.833007812 187 958 192.333007812 974 203 c 0
 989.333007812 213.666992188 998 235 1000 267 c 128
 1002 299 993.333007812 323 974 339 c 0
 954 354.333007812 925 362 887 362 c 128
 849 362 820.333007812 354.333007812 801 339 c 0
1074 339 m 0
 1054 323 1044 299 1044 267 c 128
 1044 235 1054 213.666992188 1074 203 c 0
 1093.33300781 192.333007812 1122.16699219 187 1160.5 187 c 128
 1198.83300781 187 1227.66699219 192.333007812 1247 203 c 0
 1265.66699219 213.666992188 1275.33300781 235 1276 267 c 128
 1276.66699219 299 1267 323 1247 339 c 0
 1227 354.333007812 1198.16699219 362 1160.5 362 c 128
 1122.83300781 362 1094 354.333007812 1074 339 c 0
1205 543 m 0
 1183 527 1172 504.166992188 1172 474.5 c 128
 1172 444.833007812 1183 422.333007812 1205 407 c 0
 1225.66699219 391 1256.33300781 383 1297 383 c 128
 1337.66699219 383 1368.66699219 391 1390 407 c 0
 1411.33300781 422.333007812 1422 444.833007812 1422 474.5 c 128
 1422 504.166992188 1411.33300781 527 1390 543 c 0
 1368.66699219 558.333007812 1337.66699219 566 1297 566 c 128
 1256.33300781 566 1225.66699219 558.333007812 1205 543 c 0
936 543 m 0
 915.333007812 527 905 504.166992188 905 474.5 c 128
 905 444.833007812 915.333007812 422.333007812 936 407 c 0
 956 391 985.166992188 383 1023.5 383 c 128
 1061.83300781 383 1091.33300781 391 1112 407 c 0
 1132 422.333007812 1142 444.833007812 1142 474.5 c 128
 1142 504.166992188 1132 527 1112 543 c 0
 1091.33300781 558.333007812 1061.83300781 566 1023.5 566 c 128
 985.166992188 566 956 558.333007812 936 543 c 0
658 543 m 0
 636 527 625 504.166992188 625 474.5 c 128
 625 444.833007812 636 422.333007812 658 407 c 0
 678.666992188 391 709.166992188 383 749.5 383 c 128
 789.833007812 383 821 391 843 407 c 0
 864.333007812 422.333007812 875 444.833007812 875 474.5 c 128
 875 504.166992188 864.333007812 527 843 543 c 0
 821 558.333007812 789.833007812 566 749.5 566 c 128
 709.166992188 566 678.666992188 558.333007812 658 543 c 0
EndSplineSet
Validated: 33
EndChar

StartChar: N
Encoding: 78 78 16
Width: 2048
VWidth: 1638
Flags: HW
LayerCount: 2
Fore
SplineSet
1630 -410 m 1
 2048 6 l 1
 2048 -40 l 1
 1677 -410 l 1
 1630 -410 l 1
0 1513 m 1
 0 1557 l 1
 79 1637 l 1
 124 1637 l 1
 0 1513 l 1
1949 -410 m 1
 1906 -410 l 1
 2048 -270 l 1
 2048 -315 l 1
 1949 -410 l 1
0 1281 m 1
 356 1637 l 1
 401 1637 l 1
 0 1237 l 1
 0 1281 l 1
1679 143 m 1
 1647 159 l 1
 2048 560 l 1
 2048 513 l 1
 1679 143 l 1
517 965 m 1
 538 942 l 1
 0 404 l 1
 0 448 l 1
 517 965 l 1
386 1113 m 1
 407 1090 l 1
 0 684 l 1
 0 726 l 1
 386 1113 l 1
1672 1527 m 1
 1672 1553 l 1
 1653 1553 l 1
 1738 1637 l 1
 1783 1637 l 1
 1672 1527 l 1
1423 1553 m 1
 1378 1553 l 1
 1462 1637 l 1
 1507 1637 l 1
 1423 1553 l 1
1146 1553 m 1
 1101 1553 l 1
 1185 1637 l 1
 1230 1637 l 1
 1146 1553 l 1
870 1553 m 1
 824 1553 l 1
 909 1637 l 1
 954 1637 l 1
 870 1553 l 1
593 1553 m 1
 547 1553 l 1
 632 1637 l 1
 677 1637 l 1
 593 1553 l 1
375 1379 m 1
 0 1003 l 1
 0 960 l 1
 376 1336 l 1
 375 1379 l 1
512 687 m 1
 0 175 l 1
 0 127 l 1
 512 641 l 1
 512 687 l 1
512 410 m 1
 512 364 l 1
 0 -149 l 1
 0 -101 l 1
 512 410 l 1
308 -70 m 1
 308 -115 l 1
 13 -410 l 1
 4.3330078125 -410 0 -399.333007812 0 -378 c 1
 308 -70 l 1
604 -325 m 1
 648 -325 l 1
 563 -410 l 1
 518 -410 l 1
 604 -325 l 1
880 -325 m 1
 926 -325 l 1
 839 -410 l 1
 794 -410 l 1
 880 -325 l 1
1162 -325 m 1
 1210 -325 l 1
 1124 -410 l 1
 1077 -410 l 1
 1162 -325 l 1
1439 -325 m 1
 1487 -325 l 1
 1402 -410 l 1
 1353 -410 l 1
 1439 -325 l 1
1740 -72 m 1
 1740 -26 l 1
 2048 281 l 1
 2048 236 l 1
 1740 -72 l 1
1536 284 m 1
 1536 329 l 1
 2048 841 l 1
 2048 796 l 1
 1536 284 l 1
1536 561 m 1
 1536 606 l 1
 2048 1118 l 1
 2048 1073 l 1
 1536 561 l 1
1536 838 m 1
 1536 882 l 1
 2048 1394 l 1
 2048 1349 l 1
 1536 838 l 1
1672 1253 m 1
 1672 1295 l 1
 2015 1637 l 1
 2037 1637 2048 1634.66699219 2048 1630 c 1
 1672 1253 l 1
326 -325 m 1
 372 -325 l 1
 286 -410 l 1
 241 -410 l 1
 326 -325 l 1
373 -119 m 1
 444 -119 l 1
 444 -207 l 1
 1603 -207 l 1
 1603 -121 l 1
 1674 -119 l 1
 1674 -274 l 1
 1024 -274 l 1
 373 -275 l 1
 373 -119 l 1
1674 -119 m 1
 1603 -119 l 1
 1603 -54 l 1
 444 -54 l 1
 444 -119 l 1
 373 -119 l 1
 373 14 l 1
 441 14 l 1
 441 100 l 1
 602 182 l 1
 586 200.666992188 578 229.333007812 578 268 c 128
 578 306.666992188 585.333007812 337 600 359 c 0
 605.333007812 366.333007812 608 374 608 382 c 0
 608 388.666992188 605.333007812 396.333007812 600 405 c 0
 567.333007812 451.666992188 567 498.333007812 599 545 c 0
 605 555.666992188 608 564.333007812 608 571 c 256
 608 577.666992188 605.666992188 585 601 593 c 0
 586.333007812 614.333007812 578.833007812 643.833007812 578.5 681.5 c 128
 578.166992188 719.166992188 585 748.333007812 599 769 c 0
 605 777 608 785.333007812 608 794 c 0
 608 801.333007812 605.333007812 809 600 817 c 0
 566 865.666992188 566.666992188 912.333007812 602 957 c 1
 441 1142 l 1
 441 1499 l 1
 679 1499 l 1
 679 1364 l 1
 885 1363 l 1
 885 1499 l 1
 1024 1500 l 1
 1162 1500 l 1
 1162 1364 l 1
 1369 1364 l 1
 1369 1500 l 1
 1607 1500 l 1
 1607 1143 l 1
 1446 957 l 1
 1480.66699219 913 1481.33300781 866.666992188 1448 818 c 0
 1442.66699219 809.333007812 1440 801.333007812 1440 794 c 0
 1440 785.333007812 1442.66699219 777 1448 769 c 0
 1462 748.333007812 1468.83300781 719.166992188 1468.5 681.5 c 128
 1468.16699219 643.833007812 1461 614.333007812 1447 593 c 0
 1442.33300781 586.333007812 1440 579.333007812 1440 572 c 0
 1440 562.666992188 1443 554 1449 546 c 0
 1480.33300781 498.666992188 1479.66699219 452 1447 406 c 0
 1442.33300781 398 1440 390.333007812 1440 383 c 256
 1440 375.666992188 1442.33300781 368 1447 360 c 0
 1461.66699219 338 1469 307.5 1469 268.5 c 128
 1469 229.5 1461 200.666992188 1445 182 c 1
 1607 101 l 1
 1607 15 l 1
 1674 15 l 1
 1674 -119 l 1
655 1006 m 1
 769 1024 892 1033 1024 1033 c 0
 1158 1033 1282 1024 1396 1006 c 1
 1454 1079 l 1
 1318 1103 1174.66699219 1115 1024 1115 c 0
 872 1115 728.333007812 1103 593 1079 c 1
 655 1006 l 1
1024 150 m 0
 885.333007812 150 759.666992188 145.333007812 647 136 c 1
 512 64 l 1
 512 14 l 1
 1536 14 l 1
 1536 64 l 1
 1502 82 1502 82 1468 100 c 128
 1445.33300781 112 1423 124 1401 136 c 1
 1281 145.333007812 1155.33300781 150 1024 150 c 0
1536 1432 m 1
 1433 1432 l 1
 1433 1292 l 1
 1091 1292 l 1
 1091 1431 l 1
 956 1431 l 1
 956 1292 l 1
 615 1292 l 1
 615 1432 l 1
 512 1432 l 1
 512 1368 512 1368 512 1304.5 c 128
 512 1241 512 1241 512 1178 c 1
 597.333007812 1183.33300781 682.5 1188.33300781 767.5 1193 c 128
 852.5 1197.66699219 938 1200 1024 1200 c 0
 1186 1200 1356.66699219 1192.66699219 1536 1178 c 1
 1536 1432 l 1
1205 953 m 0
 1183 937 1172 914.333007812 1172 885 c 128
 1172 855.666992188 1183 833 1205 817 c 0
 1225.66699219 801 1256.33300781 793 1297 793 c 128
 1337.66699219 793 1368.66699219 801 1390 817 c 256
 1411.33300781 833 1422 855.666992188 1422 885 c 128
 1422 914.333007812 1411.33300781 937 1390 953 c 0
 1368.66699219 968.333007812 1337.66699219 976 1297 976 c 128
 1256.33300781 976 1225.66699219 968.333007812 1205 953 c 0
936 953 m 0
 915.333007812 937 905 914.333007812 905 885 c 128
 905 855.666992188 915.333007812 833 936 817 c 0
 956 801 985.166992188 793 1023.5 793 c 128
 1061.83300781 793 1091.33300781 801 1112 817 c 0
 1132 833 1142 855.666992188 1142 885 c 128
 1142 914.333007812 1132 937 1112 953 c 0
 1091.33300781 968.333007812 1061.83300781 976 1023.5 976 c 128
 985.166992188 976 956 968.333007812 936 953 c 0
658 953 m 0
 636 937 625 914.333007812 625 885 c 128
 625 855.666992188 636 833 658 817 c 0
 678.666992188 801 709.166992188 793 749.5 793 c 128
 789.833007812 793 821 801 843 817 c 0
 864.333007812 833 875 855.666992188 875 885 c 128
 875 914.333007812 864.333007812 937 843 953 c 0
 821 968.333007812 789.833007812 976 749.5 976 c 128
 709.166992188 976 678.666992188 968.333007812 658 953 c 0
1330 750 m 0
 1322 734 1318 711.166992188 1318 681.5 c 128
 1318 651.833007812 1322 629.333007812 1330 614 c 0
 1337.33300781 598 1349 590 1365 590 c 128
 1381 590 1393 598 1401 614 c 0
 1409 629.333007812 1413 651.833007812 1413 681.5 c 128
 1413 711.166992188 1409 734 1401 750 c 0
 1393 764.666992188 1381 772 1365 772 c 128
 1349 772 1337.33300781 764.666992188 1330 750 c 0
1074 750 m 0
 1054 734 1044 711.166992188 1044 681.5 c 128
 1044 651.833007812 1054 629.333007812 1074 614 c 0
 1094 598 1122.83300781 590 1160.5 590 c 128
 1198.16699219 590 1227 598 1247 614 c 0
 1267 629.333007812 1277 651.833007812 1277 681.5 c 128
 1277 711.166992188 1267 734 1247 750 c 0
 1227 765.333007812 1198.16699219 773 1160.5 773 c 128
 1122.83300781 773 1094 765.333007812 1074 750 c 0
801 750 m 0
 781 734 771 711.166992188 771 681.5 c 128
 771 651.833007812 781 629.333007812 801 614 c 0
 820.333007812 598 849 590 887 590 c 128
 925 590 954 598 974 614 c 0
 993.333007812 629.333007812 1003 651.833007812 1003 681.5 c 128
 1003 711.166992188 993.333007812 734 974 750 c 0
 954 765.333007812 925 773 887 773 c 128
 849 773 820.333007812 765.333007812 801 750 c 0
647 750 m 0
 639 734 635 711.166992188 635 681.5 c 128
 635 651.833007812 639 629.333007812 647 614 c 0
 655 598 666.833007812 590 682.5 590 c 128
 698.166992188 590 710 598 718 614 c 0
 726 629.333007812 730 651.833007812 730 681.5 c 128
 730 711.166992188 726 734 718 750 c 0
 710 764.666992188 698.166992188 772 682.5 772 c 128
 666.833007812 772 655 764.666992188 647 750 c 0
1330 339 m 0
 1322 323.666992188 1318 301 1318 271 c 128
 1318 241 1322 218.333007812 1330 203 c 0
 1337.33300781 187.666992188 1349 180 1365 180 c 128
 1381 180 1393 187.666992188 1401 203 c 256
 1409 218.333007812 1413 241 1413 271 c 128
 1413 301 1409 323.666992188 1401 339 c 0
 1393 353.666992188 1381 361 1365 361 c 128
 1349 361 1337.33300781 353.666992188 1330 339 c 0
647 339 m 0
 639 323.666992188 635 301 635 271 c 128
 635 241 639 218.333007812 647 203 c 256
 655 187.666992188 666.833007812 180 682.5 180 c 128
 698.166992188 180 710 187.666992188 718 203 c 256
 726 218.333007812 730 241 730 271 c 128
 730 301 726 323.666992188 718 339 c 0
 710 353.666992188 698.166992188 361 682.5 361 c 128
 666.833007812 361 655 353.666992188 647 339 c 0
801 339 m 0
 781 323 771 299 771 267 c 128
 771 235 781 213.666992188 801 203 c 0
 819.666992188 192.333007812 849.166992188 187 889.5 187 c 128
 929.833007812 187 958 192.333007812 974 203 c 0
 989.333007812 213.666992188 998 235 1000 267 c 128
 1002 299 993.333007812 323 974 339 c 0
 954 354.333007812 925 362 887 362 c 128
 849 362 820.333007812 354.333007812 801 339 c 0
1074 339 m 0
 1054 323 1044 299 1044 267 c 128
 1044 235 1054 213.666992188 1074 203 c 0
 1093.33300781 192.333007812 1122.16699219 187 1160.5 187 c 128
 1198.83300781 187 1227.66699219 192.333007812 1247 203 c 0
 1265.66699219 213.666992188 1275.33300781 235 1276 267 c 128
 1276.66699219 299 1267 323 1247 339 c 0
 1227 354.333007812 1198.16699219 362 1160.5 362 c 128
 1122.83300781 362 1094 354.333007812 1074 339 c 0
1205 543 m 0
 1183 527 1172 504.166992188 1172 474.5 c 128
 1172 444.833007812 1183 422.333007812 1205 407 c 0
 1225.66699219 391 1256.33300781 383 1297 383 c 128
 1337.66699219 383 1368.66699219 391 1390 407 c 0
 1411.33300781 422.333007812 1422 444.833007812 1422 474.5 c 128
 1422 504.166992188 1411.33300781 527 1390 543 c 0
 1368.66699219 558.333007812 1337.66699219 566 1297 566 c 128
 1256.33300781 566 1225.66699219 558.333007812 1205 543 c 0
936 543 m 0
 915.333007812 527 905 504.166992188 905 474.5 c 128
 905 444.833007812 915.333007812 422.333007812 936 407 c 0
 956 391 985.166992188 383 1023.5 383 c 128
 1061.83300781 383 1091.33300781 391 1112 407 c 0
 1132 422.333007812 1142 444.833007812 1142 474.5 c 128
 1142 504.166992188 1132 527 1112 543 c 0
 1091.33300781 558.333007812 1061.83300781 566 1023.5 566 c 128
 985.166992188 566 956 558.333007812 936 543 c 0
658 543 m 0
 636 527 625 504.166992188 625 474.5 c 128
 625 444.833007812 636 422.333007812 658 407 c 0
 678.666992188 391 709.166992188 383 749.5 383 c 128
 789.833007812 383 821 391 843 407 c 0
 864.333007812 422.333007812 875 444.833007812 875 474.5 c 128
 875 504.166992188 864.333007812 527 843 543 c 0
 821 558.333007812 789.833007812 566 749.5 566 c 128
 709.166992188 566 678.666992188 558.333007812 658 543 c 0
EndSplineSet
Validated: 37
EndChar

StartChar: O
Encoding: 79 79 17
Width: 2048
VWidth: 1638
Flags: HW
LayerCount: 2
Fore
SplineSet
1024 1500 m 1
 1162 1500 l 1
 1162 1364 l 1
 1369 1364 l 1
 1369 1500 l 1
 1607 1500 l 1
 1607 1143 l 1
 1446 957 l 1
 1480.66699219 913 1481.33300781 866.666992188 1448 818 c 0
 1442.66699219 809.333007812 1440 801.333007812 1440 794 c 0
 1440 785.333007812 1442.66699219 777 1448 769 c 0
 1462 748.333007812 1468.83300781 719.166992188 1468.5 681.5 c 128
 1468.16699219 643.833007812 1461 614.333007812 1447 593 c 0
 1442.33300781 586.333007812 1440 579.333007812 1440 572 c 0
 1440 562.666992188 1443 554 1449 546 c 0
 1480.33300781 498.666992188 1479.66699219 452 1447 406 c 0
 1442.33300781 398 1440 390.333007812 1440 383 c 256
 1440 375.666992188 1442.33300781 368 1447 360 c 0
 1461.66699219 338 1469 307.5 1469 268.5 c 128
 1469 229.5 1461 200.666992188 1445 182 c 1
 1607 101 l 1
 1607 15 l 1
 1674 15 l 1
 1674 -275 l 1
 1024 -275 l 1
 373 -275 l 1
 373 14 l 1
 441 14 l 1
 441 100 l 1
 602 182 l 1
 586 200.666992188 578 229.333007812 578 268 c 128
 578 306.666992188 585.333007812 337 600 359 c 0
 605.333007812 366.333007812 608 374 608 382 c 0
 608 388.666992188 605.333007812 396.333007812 600 405 c 0
 567.333007812 451.666992188 567 498.333007812 599 545 c 0
 605 555.666992188 608 564.333007812 608 571 c 256
 608 577.666992188 605.666992188 585 601 593 c 0
 586.333007812 614.333007812 578.833007812 643.833007812 578.5 681.5 c 128
 578.166992188 719.166992188 585 748.333007812 599 769 c 0
 605 777 608 785.333007812 608 794 c 0
 608 801.333007812 605.333007812 809 600 817 c 0
 566 865.666992188 566.666992188 912.333007812 602 957 c 1
 441 1142 l 1
 441 1499 l 1
 679 1499 l 1
 679 1364 l 1
 885 1363 l 1
 885 1499 l 1
 1024 1500 l 1
512 1246 m 1
 512 1159 l 1
 597.333007812 1163 682.5 1167.16699219 767.5 1171.5 c 128
 852.5 1175.83300781 938 1178 1024 1178 c 0
 1108 1178 1192.83300781 1175.33300781 1278.5 1170 c 128
 1364.16699219 1164.66699219 1450 1161 1536 1159 c 1
 1536 1192 1536 1192 1536 1202.5 c 128
 1536 1213 1536 1213 1536 1246 c 1
 512 1246 l 1
555 68 m 0
 526.333007812 65.3330078125 512 51 512 25 c 1
 512 25 l 1
 512 -3.6669921875 526.333007812 -18 555 -18 c 2
 1024 -2 l 1
 1493 -18 l 2
 1521.66699219 -18 1536 -3.6669921875 1536 25 c 1
 1536 25 l 1
 1536 51 1521.66699219 65.3330078125 1493 68 c 0
 1415 72.6669921875 1336.83300781 76.8330078125 1258.5 80.5 c 128
 1180.16699219 84.1669921875 1102 86 1024 86 c 256
 946 86 867.833007812 84.1669921875 789.5 80.5 c 128
 711.166992188 76.8330078125 633 72.6669921875 555 68 c 0
1075 339 m 0
 1094.33300781 354.333007812 1122.83300781 362 1160.5 362 c 128
 1198.16699219 362 1227 354.333007812 1247 339 c 0
 1267 323 1277.16699219 299 1277.5 267 c 128
 1277.83300781 235 1267.66699219 214 1247 204 c 0
 1225.66699219 192.666992188 1196.66699219 187 1160 187 c 128
 1123.33300781 187 1095 192.666992188 1075 204 c 0
 1053.66699219 214 1043.33300781 235 1044 267 c 128
 1044.66699219 299 1055 323 1075 339 c 0
801 339 m 0
 821 354.333007812 849.666992188 362 887 362 c 128
 924.333007812 362 953 354.333007812 973 339 c 0
 993 323 1002.16699219 299 1000.5 267 c 128
 998.833007812 235 989.666992188 214 973 204 c 0
 955.666992188 192.666992188 926.5 187.5 885.5 188.5 c 128
 844.5 189.5 816.333007812 194.666992188 801 204 c 0
 785 212.666992188 776 233.333007812 774 266 c 128
 772 298.666992188 781 323 801 339 c 0
1024 1060 m 0
 960.666992188 1060 887.333007812 1055.83300781 804 1047.5 c 128
 720.666992188 1039.16699219 668.333007812 1031.66699219 647 1025 c 0
 625 1017 615 1004.33300781 617 987 c 128
 619 969.666992188 629 958.333007812 647 953 c 0
 665 947 700.666992188 947.666992188 754 955 c 128
 807.333007812 962.333007812 840.333007812 961.666992188 853 953 c 0
 865 943.666992188 871 921.833007812 871 887.5 c 128
 871 853.166992188 865 829.666992188 853 817 c 0
 840.333007812 804.333007812 806.166992188 802.666992188 750.5 812 c 128
 694.833007812 821.333007812 660.333007812 823 647 817 c 256
 633.666992188 811 628.333007812 800.166992188 631 784.5 c 128
 633.666992188 768.833007812 639 757.333007812 647 750 c 0
 655 742 666.833007812 743.666992188 682.5 755 c 128
 698.166992188 766.333007812 710 764.666992188 718 750 c 0
 726 734 730 711 730 681 c 128
 730 651 726 628.666992188 718 614 c 0
 710 598.666992188 698.166992188 596.833007812 682.5 608.5 c 128
 666.833007812 620.166992188 655 622 647 614 c 0
 638.333007812 605.333007812 633.833007812 592.5 633.5 575.5 c 128
 633.166992188 558.5 637.666992188 547.666992188 647 543 c 0
 655.666992188 537 689 538.5 747 547.5 c 128
 805 556.5 840.333007812 555 853 543 c 0
 865 530.333007812 871 508 871 476 c 128
 871 444 865 421 853 407 c 0
 840.333007812 392.333007812 804.833007812 390.166992188 746.5 400.5 c 128
 688.166992188 410.833007812 655 413 647 407 c 0
 621 385.666992188 621 363 647 339 c 0
 655 331 666.833007812 332.666992188 682.5 344 c 128
 698.166992188 355.333007812 710 353.666992188 718 339 c 0
 726 323.666992188 730 301 730 271 c 128
 730 241 726 218.666992188 718 204 c 0
 710 188 698.166992188 185.833007812 682.5 197.5 c 128
 666.833007812 209.166992188 655 211.333007812 647 204 c 0
 639 196 632.666992188 184.166992188 628 168.5 c 128
 623.333007812 152.833007812 629.666992188 142 647 136 c 0
 660.333007812 130.666992188 704.333007812 131.666992188 779 139 c 128
 853.666992188 146.333007812 935.333007812 150 1024 150 c 0
 1112 150 1194.33300781 147.166992188 1271 141.5 c 128
 1347.66699219 135.833007812 1391 134 1401 136 c 0
 1415 138 1420.5 147.833007812 1417.5 165.5 c 128
 1414.5 183.166992188 1409 196 1401 204 c 0
 1392.33300781 211.333007812 1380.16699219 209.166992188 1364.5 197.5 c 128
 1348.83300781 185.833007812 1337.33300781 188 1330 204 c 0
 1322 218.666992188 1318 241 1318 271 c 128
 1318 301 1322 323.666992188 1330 339 c 0
 1337.33300781 353.666992188 1349 355.333007812 1365 344 c 128
 1381 332.666992188 1393 331 1401 339 c 0
 1425.66699219 363.666992188 1425.66699219 386.333007812 1401 407 c 0
 1393 413 1358.66699219 411.333007812 1298 402 c 128
 1237.33300781 392.666992188 1202.66699219 394.333007812 1194 407 c 0
 1185.33300781 419 1180.5 440.166992188 1179.5 470.5 c 128
 1178.5 500.833007812 1183.33300781 525 1194 543 c 256
 1204.66699219 561 1239.5 564.333007812 1298.5 553 c 128
 1357.5 541.666992188 1391.66699219 538.333007812 1401 543 c 0
 1409 547 1413 557.666992188 1413 575 c 128
 1413 592.333007812 1409 605.333007812 1401 614 c 0
 1392.33300781 622 1380.16699219 620.166992188 1364.5 608.5 c 128
 1348.83300781 596.833007812 1337.33300781 598.666992188 1330 614 c 0
 1322 628.666992188 1318 651 1318 681 c 128
 1318 711 1322 734 1330 750 c 0
 1337.33300781 764.666992188 1348.83300781 766.333007812 1364.5 755 c 128
 1380.16699219 743.666992188 1392.33300781 742 1401 750 c 0
 1409 757.333007812 1413.5 768.833007812 1414.5 784.5 c 128
 1415.5 800.166992188 1411 811 1401 817 c 0
 1389.66699219 823 1355 821.333007812 1297 812 c 128
 1239 802.666992188 1204.66699219 804.333007812 1194 817 c 256
 1183.33300781 829.666992188 1178 852.333007812 1178 885 c 128
 1178 917.666992188 1183.33300781 940.333007812 1194 953 c 0
 1204.66699219 965 1237.33300781 965.666992188 1292 955 c 128
 1346.66699219 944.333007812 1383 943.666992188 1401 953 c 0
 1418.33300781 961.666992188 1427.83300781 973.833007812 1429.5 989.5 c 128
 1431.16699219 1005.16699219 1421.66699219 1017 1401 1025 c 0
 1379 1031.66699219 1326.16699219 1039.16699219 1242.5 1047.5 c 128
 1158.83300781 1055.83300781 1086 1060 1024 1060 c 0
941 953 m 0
 959.666992188 968.333007812 987.166992188 976 1023.5 976 c 128
 1059.83300781 976 1087.66699219 968.333007812 1107 953 c 0
 1126.33300781 937 1136 914.333007812 1136 885 c 128
 1136 855.666992188 1126.33300781 833 1107 817 c 256
 1087.66699219 801 1059.83300781 793 1023.5 793 c 128
 987.166992188 793 959.666992188 801 941 817 c 0
 921.666992188 833 912 855.666992188 912 885 c 128
 912 914.333007812 921.666992188 937 941 953 c 0
1075 750 m 0
 1094.33300781 765.333007812 1122.83300781 773 1160.5 773 c 128
 1198.16699219 773 1227 765.333007812 1247 750 c 0
 1267 734 1277 711.166992188 1277 681.5 c 128
 1277 651.833007812 1267 629.333007812 1247 614 c 0
 1227 598 1198.16699219 590 1160.5 590 c 128
 1122.83300781 590 1094.33300781 598 1075 614 c 0
 1055 629.333007812 1045 651.833007812 1045 681.5 c 128
 1045 711.166992188 1055 734 1075 750 c 0
801 750 m 0
 821 765.333007812 849.666992188 773 887 773 c 128
 924.333007812 773 953 765.333007812 973 750 c 0
 993 734 1003 711.166992188 1003 681.5 c 128
 1003 651.833007812 993 629.333007812 973 614 c 0
 953 598 924.333007812 590 887 590 c 128
 849.666992188 590 821 598 801 614 c 0
 781 629.333007812 771 651.833007812 771 681.5 c 128
 771 711.166992188 781 734 801 750 c 0
941 543 m 0
 959.666992188 558.333007812 987.166992188 566 1023.5 566 c 128
 1059.83300781 566 1087.66699219 558.333007812 1107 543 c 0
 1126.33300781 527 1136 504.166992188 1136 474.5 c 128
 1136 444.833007812 1126.33300781 422.333007812 1107 407 c 0
 1087.66699219 391 1059.83300781 383 1023.5 383 c 128
 987.166992188 383 959.666992188 391 941 407 c 0
 921.666992188 422.333007812 912 444.833007812 912 474.5 c 128
 912 504.166992188 921.666992188 527 941 543 c 0
444 -86 m 1
 444 -154 l 1
 1605 -154 l 1
 1605 -86 l 1
 444 -86 l 1
EndSplineSet
Validated: 37
EndChar

StartChar: P
Encoding: 80 80 18
Width: 2048
VWidth: 1638
Flags: HW
LayerCount: 2
Fore
SplineSet
326 -325 m 1
 372 -325 l 1
 286 -410 l 1
 241 -410 l 1
 326 -325 l 1
1672 1253 m 1
 1672 1295 l 1
 2015 1637 l 1
 2037 1637 2048 1634.66699219 2048 1630 c 1
 1672 1253 l 1
1536 838 m 1
 1536 882 l 1
 2048 1394 l 1
 2048 1349 l 1
 1536 838 l 1
1536 561 m 1
 1536 606 l 1
 2048 1118 l 1
 2048 1073 l 1
 1536 561 l 1
1536 284 m 1
 1536 329 l 1
 2048 841 l 1
 2048 796 l 1
 1536 284 l 1
1740 -72 m 1
 1740 -26 l 1
 2048 281 l 1
 2048 236 l 1
 1740 -72 l 1
1439 -325 m 1
 1487 -325 l 1
 1402 -410 l 1
 1353 -410 l 1
 1439 -325 l 1
1162 -325 m 1
 1210 -325 l 1
 1124 -410 l 1
 1077 -410 l 1
 1162 -325 l 1
880 -325 m 1
 926 -325 l 1
 839 -410 l 1
 794 -410 l 1
 880 -325 l 1
604 -325 m 1
 648 -325 l 1
 563 -410 l 1
 518 -410 l 1
 604 -325 l 1
308 -70 m 1
 308 -115 l 1
 13 -410 l 1
 4.3330078125 -410 0 -399.333007812 0 -378 c 1
 308 -70 l 1
512 410 m 1
 512 364 l 1
 0 -149 l 1
 0 -101 l 1
 512 410 l 1
512 687 m 1
 0 175 l 1
 0 127 l 1
 512 641 l 1
 512 687 l 1
375 1379 m 1
 0 1003 l 1
 0 960 l 1
 376 1336 l 1
 375 1379 l 1
593 1553 m 1
 547 1553 l 1
 632 1637 l 1
 677 1637 l 1
 593 1553 l 1
870 1553 m 1
 824 1553 l 1
 909 1637 l 1
 954 1637 l 1
 870 1553 l 1
1146 1553 m 1
 1101 1553 l 1
 1185 1637 l 1
 1230 1637 l 1
 1146 1553 l 1
1423 1553 m 1
 1378 1553 l 1
 1462 1637 l 1
 1507 1637 l 1
 1423 1553 l 1
1672 1527 m 1
 1672 1553 l 1
 1653 1553 l 1
 1738 1637 l 1
 1783 1637 l 1
 1672 1527 l 1
386 1113 m 1
 407 1090 l 1
 0 684 l 1
 0 726 l 1
 386 1113 l 1
517 965 m 1
 538 942 l 1
 0 404 l 1
 0 448 l 1
 517 965 l 1
1679 143 m 1
 1647 159 l 1
 2048 560 l 1
 2048 513 l 1
 1679 143 l 1
0 1281 m 1
 356 1637 l 1
 401 1637 l 1
 0 1237 l 1
 0 1281 l 1
1949 -410 m 1
 1906 -410 l 1
 2048 -270 l 1
 2048 -315 l 1
 1949 -410 l 1
0 1513 m 1
 0 1557 l 1
 79 1637 l 1
 124 1637 l 1
 0 1513 l 1
1630 -410 m 1
 2048 6 l 1
 2048 -40 l 1
 1677 -410 l 1
 1630 -410 l 1
1024 1500 m 1
 1162 1500 l 1
 1162 1364 l 1
 1369 1364 l 1
 1369 1500 l 1
 1607 1500 l 1
 1607 1143 l 1
 1446 957 l 1
 1480.66699219 913 1481.33300781 866.666992188 1448 818 c 0
 1442.66699219 809.333007812 1440 801.333007812 1440 794 c 0
 1440 785.333007812 1442.66699219 777 1448 769 c 0
 1462 748.333007812 1468.83300781 719.166992188 1468.5 681.5 c 128
 1468.16699219 643.833007812 1461 614.333007812 1447 593 c 0
 1442.33300781 586.333007812 1440 579.333007812 1440 572 c 0
 1440 562.666992188 1443 554 1449 546 c 0
 1480.33300781 498.666992188 1479.66699219 452 1447 406 c 0
 1442.33300781 398 1440 390.333007812 1440 383 c 256
 1440 375.666992188 1442.33300781 368 1447 360 c 0
 1461.66699219 338 1469 307.5 1469 268.5 c 128
 1469 229.5 1461 200.666992188 1445 182 c 1
 1607 101 l 1
 1607 15 l 1
 1674 15 l 1
 1674 -275 l 1
 1024 -275 l 1
 373 -275 l 1
 373 14 l 1
 441 14 l 1
 441 100 l 1
 602 182 l 1
 586 200.666992188 578 229.333007812 578 268 c 128
 578 306.666992188 585.333007812 337 600 359 c 0
 605.333007812 366.333007812 608 374 608 382 c 0
 608 388.666992188 605.333007812 396.333007812 600 405 c 0
 567.333007812 451.666992188 567 498.333007812 599 545 c 0
 605 555.666992188 608 564.333007812 608 571 c 256
 608 577.666992188 605.666992188 585 601 593 c 0
 586.333007812 614.333007812 578.833007812 643.833007812 578.5 681.5 c 128
 578.166992188 719.166992188 585 748.333007812 599 769 c 0
 605 777 608 785.333007812 608 794 c 0
 608 801.333007812 605.333007812 809 600 817 c 0
 566 865.666992188 566.666992188 912.333007812 602 957 c 1
 441 1142 l 1
 441 1499 l 1
 679 1499 l 1
 679 1364 l 1
 885 1363 l 1
 885 1499 l 1
 1024 1500 l 1
512 1246 m 1
 512 1159 l 1
 597.333007812 1163 682.5 1167.16699219 767.5 1171.5 c 128
 852.5 1175.83300781 938 1178 1024 1178 c 0
 1108 1178 1192.83300781 1175.33300781 1278.5 1170 c 128
 1364.16699219 1164.66699219 1450 1161 1536 1159 c 1
 1536 1192 1536 1192 1536 1202.5 c 128
 1536 1213 1536 1213 1536 1246 c 1
 512 1246 l 1
555 68 m 0
 526.333007812 65.3330078125 512 51 512 25 c 1
 512 25 l 1
 512 -3.6669921875 526.333007812 -18 555 -18 c 2
 1024 -2 l 1
 1493 -18 l 2
 1521.66699219 -18 1536 -3.6669921875 1536 25 c 1
 1536 25 l 1
 1536 51 1521.66699219 65.3330078125 1493 68 c 0
 1415 72.6669921875 1336.83300781 76.8330078125 1258.5 80.5 c 128
 1180.16699219 84.1669921875 1102 86 1024 86 c 256
 946 86 867.833007812 84.1669921875 789.5 80.5 c 128
 711.166992188 76.8330078125 633 72.6669921875 555 68 c 0
1075 339 m 0
 1094.33300781 354.333007812 1122.83300781 362 1160.5 362 c 128
 1198.16699219 362 1227 354.333007812 1247 339 c 0
 1267 323 1277.16699219 299 1277.5 267 c 128
 1277.83300781 235 1267.66699219 214 1247 204 c 0
 1225.66699219 192.666992188 1196.66699219 187 1160 187 c 128
 1123.33300781 187 1095 192.666992188 1075 204 c 0
 1053.66699219 214 1043.33300781 235 1044 267 c 128
 1044.66699219 299 1055 323 1075 339 c 0
801 339 m 0
 821 354.333007812 849.666992188 362 887 362 c 128
 924.333007812 362 953 354.333007812 973 339 c 0
 993 323 1002.16699219 299 1000.5 267 c 128
 998.833007812 235 989.666992188 214 973 204 c 0
 955.666992188 192.666992188 926.5 187.5 885.5 188.5 c 128
 844.5 189.5 816.333007812 194.666992188 801 204 c 0
 785 212.666992188 776 233.333007812 774 266 c 128
 772 298.666992188 781 323 801 339 c 0
1024 1060 m 0
 960.666992188 1060 887.333007812 1055.83300781 804 1047.5 c 128
 720.666992188 1039.16699219 668.333007812 1031.66699219 647 1025 c 0
 625 1017 615 1004.33300781 617 987 c 128
 619 969.666992188 629 958.333007812 647 953 c 0
 665 947 700.666992188 947.666992188 754 955 c 128
 807.333007812 962.333007812 840.333007812 961.666992188 853 953 c 0
 865 943.666992188 871 921.833007812 871 887.5 c 128
 871 853.166992188 865 829.666992188 853 817 c 0
 840.333007812 804.333007812 806.166992188 802.666992188 750.5 812 c 128
 694.833007812 821.333007812 660.333007812 823 647 817 c 256
 633.666992188 811 628.333007812 800.166992188 631 784.5 c 128
 633.666992188 768.833007812 639 757.333007812 647 750 c 0
 655 742 666.833007812 743.666992188 682.5 755 c 128
 698.166992188 766.333007812 710 764.666992188 718 750 c 0
 726 734 730 711 730 681 c 128
 730 651 726 628.666992188 718 614 c 0
 710 598.666992188 698.166992188 596.833007812 682.5 608.5 c 128
 666.833007812 620.166992188 655 622 647 614 c 0
 638.333007812 605.333007812 633.833007812 592.5 633.5 575.5 c 128
 633.166992188 558.5 637.666992188 547.666992188 647 543 c 0
 655.666992188 537 689 538.5 747 547.5 c 128
 805 556.5 840.333007812 555 853 543 c 0
 865 530.333007812 871 508 871 476 c 128
 871 444 865 421 853 407 c 0
 840.333007812 392.333007812 804.833007812 390.166992188 746.5 400.5 c 128
 688.166992188 410.833007812 655 413 647 407 c 0
 621 385.666992188 621 363 647 339 c 0
 655 331 666.833007812 332.666992188 682.5 344 c 128
 698.166992188 355.333007812 710 353.666992188 718 339 c 0
 726 323.666992188 730 301 730 271 c 128
 730 241 726 218.666992188 718 204 c 0
 710 188 698.166992188 185.833007812 682.5 197.5 c 128
 666.833007812 209.166992188 655 211.333007812 647 204 c 0
 639 196 632.666992188 184.166992188 628 168.5 c 128
 623.333007812 152.833007812 629.666992188 142 647 136 c 0
 660.333007812 130.666992188 704.333007812 131.666992188 779 139 c 128
 853.666992188 146.333007812 935.333007812 150 1024 150 c 0
 1112 150 1194.33300781 147.166992188 1271 141.5 c 128
 1347.66699219 135.833007812 1391 134 1401 136 c 0
 1415 138 1420.5 147.833007812 1417.5 165.5 c 128
 1414.5 183.166992188 1409 196 1401 204 c 0
 1392.33300781 211.333007812 1380.16699219 209.166992188 1364.5 197.5 c 128
 1348.83300781 185.833007812 1337.33300781 188 1330 204 c 0
 1322 218.666992188 1318 241 1318 271 c 128
 1318 301 1322 323.666992188 1330 339 c 0
 1337.33300781 353.666992188 1349 355.333007812 1365 344 c 128
 1381 332.666992188 1393 331 1401 339 c 0
 1425.66699219 363.666992188 1425.66699219 386.333007812 1401 407 c 0
 1393 413 1358.66699219 411.333007812 1298 402 c 128
 1237.33300781 392.666992188 1202.66699219 394.333007812 1194 407 c 0
 1185.33300781 419 1180.5 440.166992188 1179.5 470.5 c 128
 1178.5 500.833007812 1183.33300781 525 1194 543 c 256
 1204.66699219 561 1239.5 564.333007812 1298.5 553 c 128
 1357.5 541.666992188 1391.66699219 538.333007812 1401 543 c 0
 1409 547 1413 557.666992188 1413 575 c 128
 1413 592.333007812 1409 605.333007812 1401 614 c 0
 1392.33300781 622 1380.16699219 620.166992188 1364.5 608.5 c 128
 1348.83300781 596.833007812 1337.33300781 598.666992188 1330 614 c 0
 1322 628.666992188 1318 651 1318 681 c 128
 1318 711 1322 734 1330 750 c 0
 1337.33300781 764.666992188 1348.83300781 766.333007812 1364.5 755 c 128
 1380.16699219 743.666992188 1392.33300781 742 1401 750 c 0
 1409 757.333007812 1413.5 768.833007812 1414.5 784.5 c 128
 1415.5 800.166992188 1411 811 1401 817 c 0
 1389.66699219 823 1355 821.333007812 1297 812 c 128
 1239 802.666992188 1204.66699219 804.333007812 1194 817 c 256
 1183.33300781 829.666992188 1178 852.333007812 1178 885 c 128
 1178 917.666992188 1183.33300781 940.333007812 1194 953 c 0
 1204.66699219 965 1237.33300781 965.666992188 1292 955 c 128
 1346.66699219 944.333007812 1383 943.666992188 1401 953 c 0
 1418.33300781 961.666992188 1427.83300781 973.833007812 1429.5 989.5 c 128
 1431.16699219 1005.16699219 1421.66699219 1017 1401 1025 c 0
 1379 1031.66699219 1326.16699219 1039.16699219 1242.5 1047.5 c 128
 1158.83300781 1055.83300781 1086 1060 1024 1060 c 0
941 953 m 0
 959.666992188 968.333007812 987.166992188 976 1023.5 976 c 128
 1059.83300781 976 1087.66699219 968.333007812 1107 953 c 0
 1126.33300781 937 1136 914.333007812 1136 885 c 128
 1136 855.666992188 1126.33300781 833 1107 817 c 256
 1087.66699219 801 1059.83300781 793 1023.5 793 c 128
 987.166992188 793 959.666992188 801 941 817 c 0
 921.666992188 833 912 855.666992188 912 885 c 128
 912 914.333007812 921.666992188 937 941 953 c 0
1075 750 m 0
 1094.33300781 765.333007812 1122.83300781 773 1160.5 773 c 128
 1198.16699219 773 1227 765.333007812 1247 750 c 0
 1267 734 1277 711.166992188 1277 681.5 c 128
 1277 651.833007812 1267 629.333007812 1247 614 c 0
 1227 598 1198.16699219 590 1160.5 590 c 128
 1122.83300781 590 1094.33300781 598 1075 614 c 0
 1055 629.333007812 1045 651.833007812 1045 681.5 c 128
 1045 711.166992188 1055 734 1075 750 c 0
801 750 m 0
 821 765.333007812 849.666992188 773 887 773 c 128
 924.333007812 773 953 765.333007812 973 750 c 0
 993 734 1003 711.166992188 1003 681.5 c 128
 1003 651.833007812 993 629.333007812 973 614 c 0
 953 598 924.333007812 590 887 590 c 128
 849.666992188 590 821 598 801 614 c 0
 781 629.333007812 771 651.833007812 771 681.5 c 128
 771 711.166992188 781 734 801 750 c 0
941 543 m 0
 959.666992188 558.333007812 987.166992188 566 1023.5 566 c 128
 1059.83300781 566 1087.66699219 558.333007812 1107 543 c 0
 1126.33300781 527 1136 504.166992188 1136 474.5 c 128
 1136 444.833007812 1126.33300781 422.333007812 1107 407 c 0
 1087.66699219 391 1059.83300781 383 1023.5 383 c 128
 987.166992188 383 959.666992188 391 941 407 c 0
 921.666992188 422.333007812 912 444.833007812 912 474.5 c 128
 912 504.166992188 921.666992188 527 941 543 c 0
444 -86 m 1
 444 -154 l 1
 1605 -154 l 1
 1605 -86 l 1
 444 -86 l 1
EndSplineSet
Validated: 37
EndChar

StartChar: Q
Encoding: 81 81 19
Width: 2048
VWidth: 1638
Flags: HW
LayerCount: 2
Fore
SplineSet
613 534 m 1
 594.333007812 550 565.666992188 581.666992188 527 629 c 0
 459.666992188 705 422 743 414 743 c 0
 407.333007812 743 404 738.333007812 404 729 c 0
 404 717 414.666992188 692.666992188 436 656 c 1
 454.666992188 603.333007812 470 555 482 511 c 1
 512 517 555.666992188 524.666992188 613 534 c 1
849 554 m 1
 831.666992188 568.666992188 815 593 799 627 c 0
 779.666992188 666.333007812 756.333007812 727.333007812 729 810 c 0
 718.333007812 842.666992188 708.333007812 870.333007812 699 893 c 128
 689.666992188 915.666992188 683 926.666992188 679 926 c 0
 677 925.333007812 676.166992188 920 676.5 910 c 128
 676.833007812 900 677 892 677 886 c 0
 677 868 685.333007812 822.333007812 702 749 c 0
 718 673 726 618.666992188 726 586 c 0
 726.666992188 566 724.666992188 551.666992188 720 543 c 1
 754.666992188 547.666992188 797.666992188 551.333007812 849 554 c 1
1106 557 m 1
 1086.66699219 579 1074 616 1068 668 c 0
 1065.33300781 688.666992188 1061.83300781 718.5 1057.5 757.5 c 128
 1053.16699219 796.5 1050 845 1048 903 c 0
 1046 945 1042.66699219 981.333007812 1038 1012 c 128
 1033.33300781 1042.66699219 1028.66699219 1058.66699219 1024 1060 c 0
 1018.66699219 1058.66699219 1014.16699219 1042.66699219 1010.5 1012 c 128
 1006.83300781 981.333007812 1004 945 1002 903 c 0
 998.666992188 845 994.666992188 796.5 990 757.5 c 128
 985.333007812 718.5 982 688.666992188 980 668 c 0
 974 612 961.333007812 575 942 557 c 1
 955.333007812 557 968.833007812 558.166992188 982.5 560.5 c 128
 996.166992188 562.833007812 1010 564 1024 564 c 256
 1038 564 1051.83300781 562.833007812 1065.5 560.5 c 128
 1079.16699219 558.166992188 1092.66699219 557 1106 557 c 1
1329 544 m 1
 1324.33300781 554 1322 568 1322 586 c 0
 1322 620 1330.33300781 674.333007812 1347 749 c 0
 1363 823.666992188 1371 869.333007812 1371 886 c 0
 1371 907.333007812 1370.66699219 918.333007812 1370 919 c 0
 1360.66699219 921 1343.66699219 884.666992188 1319 810 c 0
 1293.66699219 732.666992188 1270.33300781 671.666992188 1249 627 c 0
 1233.66699219 595 1217.33300781 570.333007812 1200 553 c 1
 1231.33300781 551.666992188 1274.33300781 548.666992188 1329 544 c 1
1569 511 m 1
 1575 535.666992188 1581.83300781 560.166992188 1589.5 584.5 c 128
 1597.16699219 608.833007812 1605 633 1613 657 c 1
 1634.33300781 696.333007812 1645 720.333007812 1645 729 c 0
 1645 738.333007812 1641.66699219 743 1635 743 c 0
 1624.33300781 743 1586.66699219 705.333007812 1522 630 c 0
 1492 595 1492 595 1471 570.5 c 128
 1457 554.166992188 1445.33300781 541.333007812 1436 532 c 1
 1481.33300781 526 1525.66699219 519 1569 511 c 1
263 1024 m 0
 218.333007812 1024 196 1001.66699219 196 957 c 0
 196 911.666992188 218.333007812 889 263 889 c 0
 308.333007812 889 331 911.666992188 331 957 c 0
 331 1001.66699219 308.333007812 1024 263 1024 c 0
1073 1270 m 1
 1083 1162 1093.16699219 1054.16699219 1103.5 946.5 c 128
 1113.83300781 838.833007812 1124.33300781 731.333007812 1135 624 c 0
 1135.66699219 608.666992188 1143.33300781 601 1158 601 c 0
 1168.66699219 601.666992188 1176 606.333007812 1180 615 c 0
 1238 755 1280.83300781 863.5 1308.5 940.5 c 128
 1336.16699219 1017.5 1353 1065 1359 1083 c 1
 1328.33300781 1112.33300781 1313 1145.33300781 1313 1182 c 0
 1313 1214 1324.5 1241.5 1347.5 1264.5 c 128
 1370.5 1287.5 1398.33300781 1299 1431 1299 c 0
 1463 1299 1490.5 1287.5 1513.5 1264.5 c 128
 1536.5 1241.5 1548 1214 1548 1182 c 0
 1548 1124 1518 1084.66699219 1458 1064 c 1
 1385 628 l 2
 1381.66699219 608 1388.66699219 598 1406 598 c 0
 1420 598 1430.66699219 601.666992188 1438 609 c 0
 1518 689 1575.5 751 1610.5 795 c 128
 1645.5 839 1670 869.666992188 1684 887 c 1
 1669.33300781 906.333007812 1662 929.666992188 1662 957 c 0
 1662 1035 1701 1074 1779 1074 c 0
 1811 1074 1838.5 1062.5 1861.5 1039.5 c 128
 1884.5 1016.5 1896 989 1896 957 c 0
 1896 924.333007812 1884.5 896.666992188 1861.5 874 c 128
 1838.5 851.333007812 1811 840 1779 840 c 0
 1769 840 1760 841 1752 843 c 1
 1698.66699219 727.666992188 1656 609.666992188 1624 489 c 0
 1596.66699219 391 1579.66699219 298 1573 210 c 1
 1577 191.333007812 1579.33300781 181.666992188 1580 181 c 1
 1578 189 1579.33300781 181.333007812 1584 158 c 0
 1586.66699219 147.333007812 1588 137 1588 127 c 1
 1584 116.333007812 1575.66699219 104.333007812 1563 91 c 0
 1551.66699219 78.3330078125 1543.33300781 53.3330078125 1538 16 c 1
 1562.66699219 -18.6669921875 1575 -46.6669921875 1575 -68 c 0
 1575 -124 1521 -172 1413 -212 c 128
 1305 -252 1175.33300781 -272 1024 -272 c 0
 872 -272 742.166992188 -252 634.5 -212 c 128
 526.833007812 -172 473 -124 473 -68 c 0
 473 -46 486 -17.3330078125 512 18 c 1
 504 56 495.333007812 80.3330078125 486 91 c 0
 472.666992188 104.333007812 464 116.333007812 460 127 c 1
 460 135.666992188 461 145.666992188 463 157 c 0
 464.333007812 162.333007812 465.333007812 167.166992188 466 171.5 c 128
 466.666992188 175.833007812 467.333007812 179 468 181 c 0
 470.666992188 188.333007812 473.333007812 198.666992188 476 212 c 1
 469.333007812 296 453 388.333007812 427 489 c 0
 392.333007812 615.666992188 349.333007812 734.333007812 298 845 c 1
 286.666992188 841.666992188 275 840 263 840 c 0
 185 840 146 879 146 957 c 256
 146 1035 185 1074 263 1074 c 256
 341 1074 380 1035 380 957 c 0
 380 933 374 911.333007812 362 892 c 1
 401.333007812 842 440.833007812 795.5 480.5 752.5 c 128
 520.166992188 709.5 564 662.333007812 612 611 c 0
 618 602.333007812 626.666992188 598 638 598 c 0
 657.333007812 598 666 608 664 628 c 0
 662.666992188 634 654.333007812 681.666992188 639 771 c 128
 623.666992188 860.333007812 607 957.666992188 589 1063 c 1
 525.666992188 1080.33300781 494 1120 494 1182 c 0
 494 1214 505.5 1241.5 528.5 1264.5 c 128
 551.5 1287.5 579 1299 611 1299 c 0
 689 1299 728 1260 728 1182 c 0
 728 1147.33300781 714.666992188 1115.66699219 688 1087 c 1
 691.333007812 1073 699.666992188 1045.16699219 713 1003.5 c 128
 726.333007812 961.833007812 747 907 775 839 c 0
 790.333007812 801.666992188 805.833007812 764.166992188 821.5 726.5 c 128
 837.166992188 688.833007812 853 651.666992188 869 615 c 0
 873 606.333007812 880 602 890 602 c 0
 904 602.666992188 912 610 914 624 c 0
 915.333007812 632 935.666992188 847 975 1269 c 1
 927.666992188 1294.33300781 904 1332 904 1382 c 0
 904 1414 915.333007812 1441.66699219 938 1465 c 128
 960.666992188 1488.33300781 988.333007812 1500 1021 1500 c 0
 1053 1500 1080.5 1488.33300781 1103.5 1465 c 128
 1126.5 1441.66699219 1138 1414 1138 1382 c 0
 1138 1336.66699219 1116.33300781 1299.33300781 1073 1270 c 1
803 236 m 0
 767.666992188 236 750 217.333007812 750 180 c 256
 750 142.666992188 767.666992188 124 803 124 c 0
 839 124 857 142.666992188 857 180 c 256
 857 217.333007812 839 236 803 236 c 0
498 436 m 1
 506 403.333007812 513.166992188 373.833007812 519.5 347.5 c 128
 525.833007812 321.166992188 531.333007812 292.666992188 536 262 c 1
 541.333007812 259.333007812 547.333007812 258 554 258 c 0
 672.666992188 302.666992188 829 325 1023 325 c 0
 1219.66699219 325 1378.66699219 302.333007812 1500 257 c 1
 1506.66699219 258.333007812 1511.66699219 260 1515 262 c 1
 1519 292 1524.33300781 319.5 1531 344.5 c 128
 1537.66699219 369.5 1545 398.666992188 1553 432 c 1
 1477 453.333007812 1394 471.166992188 1304 485.5 c 128
 1214 499.833007812 1120.66699219 507 1024 507 c 256
 927.333007812 507 835 500 747 486 c 128
 659 472 576 455.333007812 498 436 c 1
1502 133 m 1
 1430 202 l 1
 1338 165 l 1
 1411 96 l 1
 1502 133 l 1
1151 204 m 1
 1022 271 l 1
 898 204 l 1
 1027 136 l 1
 1151 204 l 1
719 164 m 1
 618 198 l 1
 538 135 l 1
 638 101 l 1
 719 164 l 1
1779 1024 m 0
 1733.66699219 1024 1711 1001.66699219 1711 957 c 0
 1711 911.666992188 1733.66699219 889 1779 889 c 0
 1823.66699219 889 1846 911.666992188 1846 957 c 0
 1846 1001.66699219 1823.66699219 1024 1779 1024 c 0
611 1250 m 0
 566.333007812 1250 544 1227.33300781 544 1182 c 0
 544 1137.33300781 566.333007812 1115 611 1115 c 0
 656.333007812 1115 679 1137.33300781 679 1182 c 0
 679 1227.33300781 656.333007812 1250 611 1250 c 0
1021 1450 m 256
 976.333007812 1450 954 1427.33300781 954 1382 c 0
 954 1337.33300781 976.333007812 1315 1021 1315 c 256
 1065.66699219 1315 1088 1337.33300781 1088 1382 c 0
 1088 1427.33300781 1065.66699219 1450 1021 1450 c 256
1431 1250 m 0
 1385.66699219 1250 1363 1227.33300781 1363 1182 c 0
 1363 1137.33300781 1385.66699219 1115 1431 1115 c 0
 1475.66699219 1115 1498 1137.33300781 1498 1182 c 0
 1498 1227.33300781 1475.66699219 1250 1431 1250 c 0
1244 236 m 0
 1208.66699219 236 1191 217.333007812 1191 180 c 256
 1191 142.666992188 1208.66699219 124 1244 124 c 0
 1280 124 1298 142.666992188 1298 180 c 256
 1298 217.333007812 1280 236 1244 236 c 0
1024 57 m 0
 897.333007812 57 789.833007812 47.3330078125 701.5 28 c 128
 613.166992188 8.6669921875 569 -19 569 -55 c 0
 569 -92.3330078125 613.166992188 -122.333007812 701.5 -145 c 128
 789.833007812 -167.666992188 897.333007812 -179 1024 -179 c 0
 1150 -179 1258.5 -167.666992188 1349.5 -145 c 128
 1440.5 -122.333007812 1486 -92.3330078125 1486 -55 c 0
 1486 -19 1440.5 8.6669921875 1349.5 28 c 128
 1258.5 47.3330078125 1150 57 1024 57 c 0
EndSplineSet
Validated: 37
EndChar

StartChar: R
Encoding: 82 82 20
Width: 2048
VWidth: 1638
Flags: HW
LayerCount: 2
Fore
SplineSet
610 1248 m 0
 654 1248 676 1226 676 1182 c 0
 676 1137.33300781 654 1115 610 1115 c 0
 565.333007812 1115 543 1137.33300781 543 1182 c 0
 543 1226 565.333007812 1248 610 1248 c 0
688 1092 m 1
 692 1077.33300781 700.5 1048.5 713.5 1005.5 c 128
 726.5 962.5 747 907 775 839 c 0
 790.333007812 801.666992188 805.833007812 764.166992188 821.5 726.5 c 128
 837.166992188 688.833007812 853 651.666992188 869 615 c 0
 873 606.333007812 880 602 890 602 c 0
 904 602.666992188 912 610 914 624 c 0
 915.333007812 632 935.666992188 847 975 1269 c 1
 927.666992188 1294.33300781 904 1332 904 1382 c 0
 904 1414 915.333007812 1441.66699219 938 1465 c 128
 960.666992188 1488.33300781 988.333007812 1500 1021 1500 c 0
 1053 1500 1080.5 1488.33300781 1103.5 1465 c 128
 1126.5 1441.66699219 1138 1414 1138 1382 c 0
 1138 1336.66699219 1116.33300781 1299.33300781 1073 1270 c 1
 1083 1162 1093.16699219 1054.16699219 1103.5 946.5 c 128
 1113.83300781 838.833007812 1124.33300781 731.333007812 1135 624 c 0
 1135.66699219 608.666992188 1143.33300781 601 1158 601 c 0
 1168.66699219 601.666992188 1176 606.333007812 1180 615 c 0
 1238 755 1280.83300781 863.5 1308.5 940.5 c 128
 1336.16699219 1017.5 1353 1065 1359 1083 c 1
 1328.33300781 1112.33300781 1313 1145.33300781 1313 1182 c 0
 1313 1214 1324.5 1241.5 1347.5 1264.5 c 128
 1370.5 1287.5 1398.33300781 1299 1431 1299 c 0
 1463 1299 1490.5 1287.5 1513.5 1264.5 c 128
 1536.5 1241.5 1548 1214 1548 1182 c 0
 1548 1124 1518 1084.66699219 1458 1064 c 1
 1385 628 l 2
 1381.66699219 608 1388.66699219 598 1406 598 c 0
 1420 598 1430.66699219 601.666992188 1438 609 c 0
 1518 689 1575.5 751 1610.5 795 c 128
 1645.5 839 1670 869.666992188 1684 887 c 1
 1669.33300781 906.333007812 1662 929.666992188 1662 957 c 0
 1662 1035 1701 1074 1779 1074 c 0
 1811 1074 1838.5 1062.5 1861.5 1039.5 c 128
 1884.5 1016.5 1896 989 1896 957 c 0
 1896 924.333007812 1884.5 896.666992188 1861.5 874 c 128
 1838.5 851.333007812 1811 840 1779 840 c 0
 1769 840 1760 841 1752 843 c 1
 1698.66699219 727.666992188 1656 609.666992188 1624 489 c 0
 1596.66699219 391 1579.66699219 298 1573 210 c 1
 1577 191.333007812 1579.33300781 181.666992188 1580 181 c 1
 1578 189 1579.33300781 181.333007812 1584 158 c 0
 1586.66699219 147.333007812 1588 137 1588 127 c 1
 1584 116.333007812 1575.66699219 104.333007812 1563 91 c 0
 1551.66699219 78.3330078125 1543.33300781 53.3330078125 1538 16 c 1
 1562.66699219 -18.6669921875 1575 -46.6669921875 1575 -68 c 0
 1575 -124 1521 -172 1413 -212 c 128
 1305 -252 1175.33300781 -272 1024 -272 c 0
 872 -272 742.166992188 -252 634.5 -212 c 128
 526.833007812 -172 473 -124 473 -68 c 0
 473 -46 486 -17.3330078125 512 18 c 1
 504 56 495.333007812 80.3330078125 486 91 c 0
 472.666992188 104.333007812 464 116.333007812 460 127 c 1
 460 135.666992188 461 145.666992188 463 157 c 0
 464.333007812 162.333007812 465.333007812 167.166992188 466 171.5 c 128
 466.666992188 175.833007812 467.333007812 179 468 181 c 0
 470.666992188 188.333007812 473.333007812 198.666992188 476 212 c 1
 469.333007812 296 453 388.333007812 427 489 c 0
 392.333007812 615.666992188 349.333007812 734.333007812 298 845 c 1
 286.666992188 841.666992188 275 840 263 840 c 0
 185 840 146 879 146 957 c 256
 146 1035 185 1074 263 1074 c 256
 341 1074 380 1035 380 957 c 0
 380 933 374 911.333007812 362 892 c 1
 401.333007812 842 440.833007812 795.5 480.5 752.5 c 128
 520.166992188 709.5 564 662.333007812 612 611 c 0
 618 602.333007812 626.666992188 598 638 598 c 0
 657.333007812 598 666 608 664 628 c 0
 662.666992188 634 654.5 681.666992188 639.5 771 c 128
 624.5 860.333007812 608.333007812 958 591 1064 c 1
 595.666992188 1063.33300781 602 1063 610 1063 c 0
 636 1063 662 1072.66699219 688 1092 c 1
1024 57 m 0
 897.333007812 57 789.833007812 47.3330078125 701.5 28 c 128
 613.166992188 8.6669921875 569 -19 569 -55 c 0
 569 -92.3330078125 613.166992188 -122.333007812 701.5 -145 c 128
 789.833007812 -167.666992188 897.333007812 -179 1024 -179 c 0
 1150 -179 1258.5 -167.666992188 1349.5 -145 c 128
 1440.5 -122.333007812 1486 -92.3330078125 1486 -55 c 0
 1486 -19 1440.5 8.6669921875 1349.5 28 c 128
 1258.5 47.3330078125 1150 57 1024 57 c 0
1244 236 m 0
 1208.66699219 236 1191 217.333007812 1191 180 c 256
 1191 142.666992188 1208.66699219 124 1244 124 c 0
 1280 124 1298 142.666992188 1298 180 c 256
 1298 217.333007812 1280 236 1244 236 c 0
1431 1250 m 0
 1385.66699219 1250 1363 1227.33300781 1363 1182 c 0
 1363 1137.33300781 1385.66699219 1115 1431 1115 c 0
 1475.66699219 1115 1498 1137.33300781 1498 1182 c 0
 1498 1227.33300781 1475.66699219 1250 1431 1250 c 0
1021 1450 m 256
 976.333007812 1450 954 1427.33300781 954 1382 c 0
 954 1337.33300781 976.333007812 1315 1021 1315 c 256
 1065.66699219 1315 1088 1337.33300781 1088 1382 c 0
 1088 1427.33300781 1065.66699219 1450 1021 1450 c 256
1779 1024 m 0
 1733.66699219 1024 1711 1001.66699219 1711 957 c 0
 1711 911.666992188 1733.66699219 889 1779 889 c 0
 1823.66699219 889 1846 911.666992188 1846 957 c 0
 1846 1001.66699219 1823.66699219 1024 1779 1024 c 0
719 164 m 1
 618 198 l 1
 538 135 l 1
 638 101 l 1
 719 164 l 1
1151 204 m 1
 1022 271 l 1
 898 204 l 1
 1027 136 l 1
 1151 204 l 1
1502 133 m 1
 1430 202 l 1
 1338 165 l 1
 1411 96 l 1
 1502 133 l 1
498 436 m 1
 506 403.333007812 513.166992188 373.833007812 519.5 347.5 c 128
 525.833007812 321.166992188 531.333007812 292.666992188 536 262 c 1
 541.333007812 259.333007812 547.333007812 258 554 258 c 0
 672.666992188 302.666992188 829 325 1023 325 c 0
 1219.66699219 325 1378.66699219 302.333007812 1500 257 c 1
 1506.66699219 258.333007812 1511.66699219 260 1515 262 c 1
 1519 292 1524.33300781 319.5 1531 344.5 c 128
 1537.66699219 369.5 1545 398.666992188 1553 432 c 1
 1477 453.333007812 1394 471.166992188 1304 485.5 c 128
 1214 499.833007812 1120.66699219 507 1024 507 c 256
 927.333007812 507 835 500 747 486 c 128
 659 472 576 455.333007812 498 436 c 1
803 236 m 0
 767.666992188 236 750 217.333007812 750 180 c 256
 750 142.666992188 767.666992188 124 803 124 c 0
 839 124 857 142.666992188 857 180 c 256
 857 217.333007812 839 236 803 236 c 0
263 1024 m 0
 218.333007812 1024 196 1001.66699219 196 957 c 0
 196 911.666992188 218.333007812 889 263 889 c 0
 308.333007812 889 331 911.666992188 331 957 c 0
 331 1001.66699219 308.333007812 1024 263 1024 c 0
1569 511 m 1
 1575 535.666992188 1581.83300781 560.166992188 1589.5 584.5 c 128
 1597.16699219 608.833007812 1605 633 1613 657 c 1
 1634.33300781 696.333007812 1645 720.333007812 1645 729 c 0
 1645 738.333007812 1641.66699219 743 1635 743 c 0
 1624.33300781 743 1586.66699219 705.333007812 1522 630 c 0
 1492 595 1492 595 1471 570.5 c 128
 1457 554.166992188 1445.33300781 541.333007812 1436 532 c 1
 1481.33300781 526 1525.66699219 519 1569 511 c 1
1329 544 m 1
 1324.33300781 554 1322 568 1322 586 c 0
 1322 620 1330.33300781 674.333007812 1347 749 c 0
 1363 823.666992188 1371 869.333007812 1371 886 c 0
 1371 907.333007812 1370.66699219 918.333007812 1370 919 c 0
 1360.66699219 921 1343.66699219 884.666992188 1319 810 c 0
 1293.66699219 732.666992188 1270.33300781 671.666992188 1249 627 c 0
 1233.66699219 595 1217.33300781 570.333007812 1200 553 c 1
 1231.33300781 551.666992188 1274.33300781 548.666992188 1329 544 c 1
1106 557 m 1
 1086.66699219 579 1074 616 1068 668 c 0
 1065.33300781 688.666992188 1061.83300781 718.5 1057.5 757.5 c 128
 1053.16699219 796.5 1050 845 1048 903 c 0
 1046 945 1042.66699219 981.333007812 1038 1012 c 128
 1033.33300781 1042.66699219 1028.66699219 1058.66699219 1024 1060 c 0
 1018.66699219 1058.66699219 1014.16699219 1042.66699219 1010.5 1012 c 128
 1006.83300781 981.333007812 1004 945 1002 903 c 0
 998.666992188 845 994.666992188 796.5 990 757.5 c 128
 985.333007812 718.5 982 688.666992188 980 668 c 0
 974 612 961.333007812 575 942 557 c 1
 955.333007812 557 968.833007812 558.166992188 982.5 560.5 c 128
 996.166992188 562.833007812 1010 564 1024 564 c 256
 1038 564 1051.83300781 562.833007812 1065.5 560.5 c 128
 1079.16699219 558.166992188 1092.66699219 557 1106 557 c 1
849 554 m 1
 831.666992188 568.666992188 815 593 799 627 c 0
 779.666992188 666.333007812 756.333007812 727.333007812 729 810 c 0
 718.333007812 842.666992188 708.333007812 870.333007812 699 893 c 128
 689.666992188 915.666992188 683 926.666992188 679 926 c 0
 677 925.333007812 676.166992188 920 676.5 910 c 128
 676.833007812 900 677 892 677 886 c 0
 677 868 685.333007812 822.333007812 702 749 c 0
 718 673 726 618.666992188 726 586 c 0
 726.666992188 566 724.666992188 551.666992188 720 543 c 1
 754.666992188 547.666992188 797.666992188 551.333007812 849 554 c 1
613 534 m 1
 594.333007812 550 565.666992188 581.666992188 527 629 c 0
 459.666992188 705 422 743 414 743 c 0
 407.333007812 743 404 738.333007812 404 729 c 0
 404 717 414.666992188 692.666992188 436 656 c 1
 454.666992188 603.333007812 470 555 482 511 c 1
 512 517 555.666992188 524.666992188 613 534 c 1
1669 417 m 1
 1671 426.333007812 1673.33300781 436 1676 446 c 128
 1678.66699219 456 1681.33300781 466.333007812 1684 477 c 1
 2048 841 l 1
 2048 796 l 1
 1669 417 l 1
1822 1123 m 1
 1807.33300781 1126.33300781 1793.66699219 1128 1781 1128 c 1
 2048 1394 l 1
 2048 1349 l 1
 1822 1123 l 1
1950 975 m 1
 1948.66699219 987 1945.66699219 998.666992188 1941 1010 c 1
 2048 1118 l 1
 2048 1073 l 1
 1950 975 l 1
1457 804 m 1
 1603 950 l 1
 1603 937.333007812 1605.33300781 924 1610 910 c 1
 1448 749 l 1
 1457 804 l 1
448 1129 m 1
 391 1074 l 1
 378.333007812 1084.66699219 370.333007812 1091.33300781 367 1094 c 1
 441 1168 l 1
 441 1154.66699219 443.333007812 1141.66699219 448 1129 c 1
145 827 m 1
 0 684 l 1
 0 726 l 1
 125 850 l 1
 131 840.666992188 137.666992188 833 145 827 c 1
661 1345 m 1
 954 1637 l 1
 909 1637 l 1
 623 1351 l 1
 636.333007812 1349.66699219 649 1347.66699219 661 1345 c 1
879 1285 m 1
 777 1182 l 1
 777 1195.33300781 775 1208.66699219 771 1222 c 1
 863 1314 l 1
 866.333007812 1305.33300781 871.666992188 1295.66699219 879 1285 c 1
1489 1343 m 1
 1477 1347 1465 1350 1453 1352 c 1
 1738 1637 l 1
 1783 1637 l 1
 1489 1343 l 1
1600 1180 m 1
 1600 1193.33300781 1598.66699219 1206 1596 1218 c 1
 2015 1637 l 1
 2037 1637 2048 1634.66699219 2048 1630 c 1
 1600 1180 l 1
1264 1117 m 1
 1144 997 l 1
 1142 1015.66699219 1140.66699219 1029.33300781 1140 1038 c 1
 1254 1154 l 1
 1255.33300781 1142.66699219 1258.66699219 1130.33300781 1264 1117 c 1
297 699 m 1
 0 404 l 1
 0 448 l 1
 284 733 l 1
 286 727 288.166992188 721.166992188 290.5 715.5 c 128
 292.833007812 709.833007812 295 704.333007812 297 699 c 1
364 490 m 1
 0 127 l 1
 0 175 l 1
 353 527 l 1
 358.333007812 509.666992188 362 497.333007812 364 490 c 1
412 263 m 1
 0 -149 l 1
 0 -101 l 1
 406 305 l 1
 406.666992188 292.333007812 408.666992188 278.333007812 412 263 c 1
445 22 m 1
 13 -410 l 1
 4.3330078125 -410 0 -399.333007812 0 -378 c 1
 425 48 l 2
 424.333007812 48 426.666992188 46.6669921875 432 44 c 1
 437.333007812 36.6669921875 441.666992188 29.3330078125 445 22 c 1
483 -215 m 1
 286 -410 l 1
 241 -410 l 1
 458 -195 l 1
 461.333007812 -198.333007812 469.666992188 -205 483 -215 c 1
677 -298 m 1
 563 -410 l 1
 518 -410 l 1
 641 -288 l 1
 649 -290.666992188 661 -294 677 -298 c 1
915 -335 m 1
 839 -410 l 1
 794 -410 l 1
 873 -332 l 1
 879.666992188 -332.666992188 886.5 -333.333007812 893.5 -334 c 128
 900.5 -334.666992188 907.666992188 -335 915 -335 c 1
1206 -328 m 1
 1124 -410 l 1
 1077 -410 l 1
 1153 -334 l 1
 1169.66699219 -333.333007812 1187.33300781 -331.333007812 1206 -328 c 1
1633 144 m 2
 2048 560 l 1
 2048 513 l 1
 1630 95 l 2
 1640.66699219 105.666992188 1643.33300781 113.666992188 1638 119 c 1
 1634.66699219 133.666992188 1633 142 1633 144 c 2
1172 750 m 1
 1168.66699219 754 1167 760 1167 768 c 0
 1166.33300781 770.666992188 1165.83300781 773.666992188 1165.5 777 c 128
 1165.16699219 780.333007812 1165 783.666992188 1165 787 c 2
 1237 859 l 1
 1230.33300781 842.333007812 1219.66699219 817.333007812 1205 784 c 1
 1172 750 l 1
788 916 m 1
 785.333007812 922.666992188 780.666992188 933.333007812 774 948 c 1
 914 1089 l 1
 912.666992188 1075.66699219 911 1058.66699219 909 1038 c 1
 788 916 l 1
556 960 m 1
 454 857 l 1
 446 866.333007812 438.666992188 874.333007812 432 881 c 1
 549 999 l 1
 549.666992188 992.333007812 550.666992188 985.666992188 552 979 c 128
 553.333007812 972.333007812 554.666992188 966 556 960 c 1
1353 -410 m 1
 2048 281 l 1
 2048 236 l 1
 1402 -410 l 1
 1353 -410 l 1
1630 -410 m 1
 2048 6 l 1
 2048 -40 l 1
 1677 -410 l 1
 1630 -410 l 1
0 1513 m 1
 0 1557 l 1
 79 1637 l 1
 124 1637 l 1
 0 1513 l 1
1949 -410 m 1
 1906 -410 l 1
 2048 -270 l 1
 2048 -315 l 1
 1949 -410 l 1
1119 1526 m 1
 1105.66699219 1534 1096.33300781 1539.33300781 1091 1542 c 1
 1185 1637 l 1
 1230 1637 l 1
 1119 1526 l 1
0 1281 m 1
 356 1637 l 1
 401 1637 l 1
 0 1237 l 1
 0 1281 l 1
0 1003 m 1
 632 1637 l 1
 677 1637 l 1
 0 960 l 1
 0 1003 l 1
1184 1313 m 1
 1192 1331 1196.66699219 1351 1198 1373 c 1
 1462 1637 l 1
 1507 1637 l 1
 1184 1313 l 1
610 1298 m 0
 532 1298 493 1259.33300781 493 1182 c 0
 493 1104 532 1065 610 1065 c 0
 642 1065 669.5 1076.33300781 692.5 1099 c 128
 715.5 1121.66699219 727 1149.33300781 727 1182 c 0
 727 1214 715.5 1241.33300781 692.5 1264 c 128
 669.5 1286.66699219 642 1298 610 1298 c 0
EndSplineSet
Validated: 37
EndChar

StartChar: S
Encoding: 83 83 21
Width: 2048
VWidth: 1638
Flags: HW
LayerCount: 2
Fore
SplineSet
1073 1270 m 1
 1083 1162 1093.16699219 1054.16699219 1103.5 946.5 c 128
 1113.83300781 838.833007812 1124.33300781 731.333007812 1135 624 c 0
 1135.66699219 608.666992188 1143.33300781 601 1158 601 c 0
 1168.66699219 601.666992188 1176 606.333007812 1180 615 c 0
 1238 755 1280.83300781 863.5 1308.5 940.5 c 128
 1336.16699219 1017.5 1353 1065 1359 1083 c 1
 1328.33300781 1112.33300781 1313 1145.33300781 1313 1182 c 0
 1313 1214 1324.5 1241.5 1347.5 1264.5 c 128
 1370.5 1287.5 1398.33300781 1299 1431 1299 c 0
 1463 1299 1490.5 1287.5 1513.5 1264.5 c 128
 1536.5 1241.5 1548 1214 1548 1182 c 0
 1548 1124 1518 1084.66699219 1458 1064 c 1
 1385 628 l 2
 1381.66699219 608 1388.66699219 598 1406 598 c 0
 1420 598 1430.66699219 601.666992188 1438 609 c 0
 1518 689 1575.5 751 1610.5 795 c 128
 1645.5 839 1670 869.666992188 1684 887 c 1
 1669.33300781 906.333007812 1662 929.666992188 1662 957 c 0
 1662 1035 1701 1074 1779 1074 c 0
 1811 1074 1838.5 1062.5 1861.5 1039.5 c 128
 1884.5 1016.5 1896 989 1896 957 c 0
 1896 924.333007812 1884.5 896.666992188 1861.5 874 c 128
 1838.5 851.333007812 1811 840 1779 840 c 0
 1769 840 1760 841 1752 843 c 1
 1698.66699219 727.666992188 1656 609.666992188 1624 489 c 0
 1596.66699219 391 1579.66699219 298 1573 210 c 1
 1577 191.333007812 1579.33300781 181.666992188 1580 181 c 1
 1578 189 1579.33300781 181.333007812 1584 158 c 0
 1586.66699219 147.333007812 1588 137 1588 127 c 1
 1584 116.333007812 1575.66699219 104.333007812 1563 91 c 0
 1551.66699219 78.3330078125 1543.33300781 53.3330078125 1538 16 c 1
 1562.66699219 -18.6669921875 1575 -46.6669921875 1575 -68 c 0
 1575 -124 1521 -172 1413 -212 c 128
 1305 -252 1175.33300781 -272 1024 -272 c 0
 872 -272 742.166992188 -252 634.5 -212 c 128
 526.833007812 -172 473 -124 473 -68 c 0
 473 -46 486 -17.3330078125 512 18 c 1
 504 56 495.333007812 80.3330078125 486 91 c 0
 472.666992188 104.333007812 464 116.333007812 460 127 c 1
 460 135.666992188 461 145.666992188 463 157 c 0
 464.333007812 162.333007812 465.333007812 167.166992188 466 171.5 c 128
 466.666992188 175.833007812 467.333007812 179 468 181 c 0
 470.666992188 188.333007812 473.333007812 198.666992188 476 212 c 1
 469.333007812 296 453 388.333007812 427 489 c 0
 392.333007812 615.666992188 349.333007812 734.333007812 298 845 c 1
 286.666992188 841.666992188 275 840 263 840 c 0
 185 840 146 879 146 957 c 256
 146 1035 185 1074 263 1074 c 256
 341 1074 380 1035 380 957 c 0
 380 933 374 911.333007812 362 892 c 1
 401.333007812 842 440.833007812 795.5 480.5 752.5 c 128
 520.166992188 709.5 564 662.333007812 612 611 c 0
 618 602.333007812 626.666992188 598 638 598 c 0
 657.333007812 598 666 608 664 628 c 0
 662.666992188 634 654.333007812 681.666992188 639 771 c 128
 623.666992188 860.333007812 607 957.666992188 589 1063 c 1
 525.666992188 1080.33300781 494 1120 494 1182 c 0
 494 1214 505.5 1241.5 528.5 1264.5 c 128
 551.5 1287.5 579 1299 611 1299 c 0
 689 1299 728 1260 728 1182 c 0
 728 1147.33300781 714.666992188 1115.66699219 688 1087 c 1
 691.333007812 1073 699.666992188 1045.16699219 713 1003.5 c 128
 726.333007812 961.833007812 747 907 775 839 c 0
 790.333007812 801.666992188 805.833007812 764.166992188 821.5 726.5 c 128
 837.166992188 688.833007812 853 651.666992188 869 615 c 0
 873 606.333007812 880 602 890 602 c 0
 904 602.666992188 912 610 914 624 c 0
 915.333007812 632 935.666992188 847 975 1269 c 1
 927.666992188 1294.33300781 904 1332 904 1382 c 0
 904 1414 915.333007812 1441.66699219 938 1465 c 128
 960.666992188 1488.33300781 988.333007812 1500 1021 1500 c 0
 1053 1500 1080.5 1488.33300781 1103.5 1465 c 128
 1126.5 1441.66699219 1138 1414 1138 1382 c 0
 1138 1336.66699219 1116.33300781 1299.33300781 1073 1270 c 1
803 238 m 0
 766.333007812 238 748 218.666992188 748 180 c 0
 748 140.666992188 766.333007812 121 803 121 c 0
 840.333007812 121 859 140.666992188 859 180 c 0
 859 218.666992188 840.333007812 238 803 238 c 0
498 448 m 1
 506 420.666992188 513.166992188 396.166992188 519.5 374.5 c 128
 525.833007812 352.833007812 531.333007812 329.333007812 536 304 c 1
 540 302 546 301 554 301 c 0
 610 317.666992188 678.833007812 332.333007812 760.5 345 c 128
 842.166992188 357.666992188 930 364 1024 364 c 0
 1120 364 1209.33300781 357.5 1292 344.5 c 128
 1374.66699219 331.5 1444 316.666992188 1500 300 c 0
 1503.33300781 300 1508.33300781 301.333007812 1515 304 c 1
 1519 328 1524.33300781 350.5 1531 371.5 c 128
 1537.66699219 392.5 1545 417 1553 445 c 1
 1477 462.333007812 1394 479.333007812 1304 496 c 128
 1214 512.666992188 1120.66699219 521 1024 521 c 256
 927.333007812 521 835 512.833007812 747 496.5 c 128
 659 480.166992188 576 464 498 448 c 1
1502 133 m 1
 1430 202 l 1
 1338 165 l 1
 1411 96 l 1
 1502 133 l 1
1151 204 m 1
 1022 271 l 1
 898 204 l 1
 1027 136 l 1
 1151 204 l 1
719 164 m 1
 618 198 l 1
 538 135 l 1
 638 101 l 1
 719 164 l 1
1244 238 m 256
 1206.66699219 238 1188 218.666992188 1188 180 c 0
 1188 140.666992188 1206.66699219 121 1244 121 c 256
 1281.33300781 121 1300 140.666992188 1300 180 c 0
 1300 218.666992188 1281.33300781 238 1244 238 c 256
1463 -109 m 1
 1459 -89 1454.33300781 -72.3330078125 1449 -59 c 0
 1441 -41.6669921875 1433 -30.1669921875 1425 -24.5 c 128
 1417 -18.8330078125 1409.66699219 -11.3330078125 1403 -2 c 1
 1367.66699219 20.6669921875 1318.16699219 40.1669921875 1254.5 56.5 c 128
 1190.83300781 72.8330078125 1114 80 1024 78 c 1
 932 80 854.666992188 72.8330078125 792 56.5 c 128
 729.333007812 40.1669921875 680.666992188 20.6669921875 646 -2 c 0
 637.333007812 -10 629 -17.1669921875 621 -23.5 c 128
 613 -29.8330078125 606 -41.3330078125 600 -58 c 0
 593.333007812 -78 588.666992188 -95 586 -109 c 0
 584.666992188 -131.666992188 594.666992188 -143 616 -143 c 0
 636 -143 646 -132 646 -110 c 0
 652 -40.6669921875 777.333007812 -6 1022 -6 c 0
 1269.33300781 -6 1396.33300781 -40.6669921875 1403 -110 c 1
 1401.66699219 -132 1411.66699219 -143 1433 -143 c 0
 1453 -143 1463 -131.666992188 1463 -109 c 1
EndSplineSet
Validated: 37
EndChar

StartChar: T
Encoding: 84 84 22
Width: 2048
VWidth: 1638
Flags: HW
LayerCount: 2
Fore
SplineSet
1669 417 m 1
 1671 426.333007812 1673.33300781 436 1676 446 c 128
 1678.66699219 456 1681.33300781 466.333007812 1684 477 c 1
 2048 841 l 1
 2048 796 l 1
 1669 417 l 1
1822 1123 m 1
 1807.33300781 1126.33300781 1793.66699219 1128 1781 1128 c 1
 2048 1394 l 1
 2048 1349 l 1
 1822 1123 l 1
1950 975 m 1
 1948.66699219 987 1945.66699219 998.666992188 1941 1010 c 1
 2048 1118 l 1
 2048 1073 l 1
 1950 975 l 1
1457 804 m 1
 1448 749 l 1
 1610 910 l 1
 1605.33300781 924 1603 937.333007812 1603 950 c 1
 1457 804 l 1
448 1129 m 1
 391 1074 l 1
 378.333007812 1084.66699219 370.333007812 1091.33300781 367 1094 c 1
 441 1168 l 1
 441 1154.66699219 443.333007812 1141.66699219 448 1129 c 1
145 827 m 1
 0 684 l 1
 0 726 l 1
 125 850 l 1
 131 840.666992188 137.666992188 833 145 827 c 1
661 1345 m 1
 954 1637 l 1
 909 1637 l 1
 623 1351 l 1
 636.333007812 1349.66699219 649 1347.66699219 661 1345 c 1
879 1285 m 1
 777 1182 l 1
 777 1195.33300781 775 1208.66699219 771 1222 c 1
 863 1314 l 1
 866.333007812 1305.33300781 871.666992188 1295.66699219 879 1285 c 1
1489 1343 m 1
 1477 1347 1465 1350 1453 1352 c 1
 1738 1637 l 1
 1783 1637 l 1
 1489 1343 l 1
1600 1180 m 1
 1600 1193.33300781 1598.66699219 1206 1596 1218 c 1
 2015 1637 l 1
 2037 1637 2048 1634.66699219 2048 1630 c 1
 1600 1180 l 1
1264 1117 m 1
 1144 997 l 1
 1142 1015.66699219 1140.66699219 1029.33300781 1140 1038 c 1
 1254 1154 l 1
 1255.33300781 1142.66699219 1258.66699219 1130.33300781 1264 1117 c 1
297 699 m 1
 0 404 l 1
 0 448 l 1
 284 733 l 1
 286 727 288.166992188 721.166992188 290.5 715.5 c 128
 292.833007812 709.833007812 295 704.333007812 297 699 c 1
364 490 m 1
 0 127 l 1
 0 175 l 1
 353 527 l 1
 358.333007812 509.666992188 362 497.333007812 364 490 c 1
412 263 m 1
 0 -149 l 1
 0 -101 l 1
 406 305 l 1
 406.666992188 292.333007812 408.666992188 278.333007812 412 263 c 1
445 22 m 1
 13 -410 l 1
 4.3330078125 -410 0 -399.333007812 0 -378 c 1
 425 48 l 2
 424.333007812 48 426.666992188 46.6669921875 432 44 c 1
 437.333007812 36.6669921875 441.666992188 29.3330078125 445 22 c 1
483 -215 m 1
 286 -410 l 1
 241 -410 l 1
 458 -195 l 1
 461.333007812 -198.333007812 469.666992188 -205 483 -215 c 1
677 -298 m 1
 563 -410 l 1
 518 -410 l 1
 641 -288 l 1
 649 -290.666992188 661 -294 677 -298 c 1
915 -335 m 1
 839 -410 l 1
 794 -410 l 1
 873 -332 l 1
 879.666992188 -332.666992188 886.5 -333.333007812 893.5 -334 c 128
 900.5 -334.666992188 907.666992188 -335 915 -335 c 1
1206 -328 m 1
 1124 -410 l 1
 1077 -410 l 1
 1153 -334 l 1
 1169.66699219 -333.333007812 1187.33300781 -331.333007812 1206 -328 c 1
1633 144 m 2
 2048 560 l 1
 2048 513 l 1
 1630 95 l 2
 1640.66699219 105.666992188 1643.33300781 113.666992188 1638 119 c 1
 1634.66699219 133.666992188 1633 142 1633 144 c 2
1172 750 m 1
 1168.66699219 754 1167 760 1167 768 c 0
 1166.33300781 770.666992188 1165.83300781 773.666992188 1165.5 777 c 128
 1165.16699219 780.333007812 1165 783.666992188 1165 787 c 2
 1237 859 l 1
 1230.33300781 842.333007812 1219.66699219 817.333007812 1205 784 c 1
 1172 750 l 1
788 916 m 1
 785.333007812 922.666992188 780.666992188 933.333007812 774 948 c 1
 914 1089 l 1
 912.666992188 1075.66699219 911 1058.66699219 909 1038 c 1
 788 916 l 1
556 960 m 1
 454 857 l 1
 446 866.333007812 438.666992188 874.333007812 432 881 c 1
 549 999 l 1
 549.666992188 992.333007812 550.666992188 985.666992188 552 979 c 128
 553.333007812 972.333007812 554.666992188 966 556 960 c 1
1353 -410 m 1
 2048 281 l 1
 2048 236 l 1
 1402 -410 l 1
 1353 -410 l 1
1630 -410 m 1
 2048 6 l 1
 2048 -40 l 1
 1677 -410 l 1
 1630 -410 l 1
0 1513 m 1
 0 1557 l 1
 79 1637 l 1
 124 1637 l 1
 0 1513 l 1
1949 -410 m 1
 1906 -410 l 1
 2048 -270 l 1
 2048 -315 l 1
 1949 -410 l 1
1119 1526 m 1
 1105.66699219 1534 1096.33300781 1539.33300781 1091 1542 c 1
 1185 1637 l 1
 1230 1637 l 1
 1119 1526 l 1
0 1281 m 1
 356 1637 l 1
 401 1637 l 1
 0 1237 l 1
 0 1281 l 1
0 1003 m 1
 632 1637 l 1
 677 1637 l 1
 0 960 l 1
 0 1003 l 1
1184 1313 m 1
 1192 1331 1196.66699219 1351 1198 1373 c 1
 1462 1637 l 1
 1507 1637 l 1
 1184 1313 l 1
1073 1270 m 1
 1083 1162 1093.16699219 1054.16699219 1103.5 946.5 c 128
 1113.83300781 838.833007812 1124.33300781 731.333007812 1135 624 c 0
 1135.66699219 608.666992188 1143.33300781 601 1158 601 c 0
 1168.66699219 601.666992188 1176 606.333007812 1180 615 c 0
 1238 755 1280.83300781 863.5 1308.5 940.5 c 128
 1336.16699219 1017.5 1353 1065 1359 1083 c 1
 1328.33300781 1112.33300781 1313 1145.33300781 1313 1182 c 0
 1313 1214 1324.5 1241.5 1347.5 1264.5 c 128
 1370.5 1287.5 1398.33300781 1299 1431 1299 c 0
 1463 1299 1490.5 1287.5 1513.5 1264.5 c 128
 1536.5 1241.5 1548 1214 1548 1182 c 0
 1548 1124 1518 1084.66699219 1458 1064 c 1
 1385 628 l 2
 1381.66699219 608 1388.66699219 598 1406 598 c 0
 1420 598 1430.66699219 601.666992188 1438 609 c 0
 1518 689 1575.5 751 1610.5 795 c 128
 1645.5 839 1670 869.666992188 1684 887 c 1
 1669.33300781 906.333007812 1662 929.666992188 1662 957 c 0
 1662 1035 1701 1074 1779 1074 c 0
 1811 1074 1838.5 1062.5 1861.5 1039.5 c 128
 1884.5 1016.5 1896 989 1896 957 c 0
 1896 924.333007812 1884.5 896.666992188 1861.5 874 c 128
 1838.5 851.333007812 1811 840 1779 840 c 0
 1769 840 1760 841 1752 843 c 1
 1698.66699219 727.666992188 1656 609.666992188 1624 489 c 0
 1596.66699219 391 1579.66699219 298 1573 210 c 1
 1577 191.333007812 1579.33300781 181.666992188 1580 181 c 1
 1578 189 1579.33300781 181.333007812 1584 158 c 0
 1586.66699219 147.333007812 1588 137 1588 127 c 1
 1584 116.333007812 1575.66699219 104.333007812 1563 91 c 0
 1551.66699219 78.3330078125 1543.33300781 53.3330078125 1538 16 c 1
 1562.66699219 -18.6669921875 1575 -46.6669921875 1575 -68 c 0
 1575 -124 1521 -172 1413 -212 c 128
 1305 -252 1175.33300781 -272 1024 -272 c 0
 872 -272 742.166992188 -252 634.5 -212 c 128
 526.833007812 -172 473 -124 473 -68 c 0
 473 -46 486 -17.3330078125 512 18 c 1
 504 56 495.333007812 80.3330078125 486 91 c 0
 472.666992188 104.333007812 464 116.333007812 460 127 c 1
 460 135.666992188 461 145.666992188 463 157 c 0
 464.333007812 162.333007812 465.333007812 167.166992188 466 171.5 c 128
 466.666992188 175.833007812 467.333007812 179 468 181 c 0
 470.666992188 188.333007812 473.333007812 198.666992188 476 212 c 1
 469.333007812 296 453 388.333007812 427 489 c 0
 392.333007812 615.666992188 349.333007812 734.333007812 298 845 c 1
 286.666992188 841.666992188 275 840 263 840 c 0
 185 840 146 879 146 957 c 256
 146 1035 185 1074 263 1074 c 256
 341 1074 380 1035 380 957 c 0
 380 933 374 911.333007812 362 892 c 1
 401.333007812 842 440.833007812 795.5 480.5 752.5 c 128
 520.166992188 709.5 564 662.333007812 612 611 c 0
 618 602.333007812 626.666992188 598 638 598 c 0
 657.333007812 598 666 608 664 628 c 0
 662.666992188 634 654.333007812 681.666992188 639 771 c 128
 623.666992188 860.333007812 607 957.666992188 589 1063 c 1
 525.666992188 1080.33300781 494 1120 494 1182 c 0
 494 1214 505.5 1241.5 528.5 1264.5 c 128
 551.5 1287.5 579 1299 611 1299 c 0
 689 1299 728 1260 728 1182 c 0
 728 1147.33300781 714.666992188 1115.66699219 688 1087 c 1
 691.333007812 1073 699.666992188 1045.16699219 713 1003.5 c 128
 726.333007812 961.833007812 747 907 775 839 c 0
 790.333007812 801.666992188 805.833007812 764.166992188 821.5 726.5 c 128
 837.166992188 688.833007812 853 651.666992188 869 615 c 0
 873 606.333007812 880 602 890 602 c 0
 904 602.666992188 912 610 914 624 c 0
 915.333007812 632 935.666992188 847 975 1269 c 1
 927.666992188 1294.33300781 904 1332 904 1382 c 0
 904 1414 915.333007812 1441.66699219 938 1465 c 128
 960.666992188 1488.33300781 988.333007812 1500 1021 1500 c 0
 1053 1500 1080.5 1488.33300781 1103.5 1465 c 128
 1126.5 1441.66699219 1138 1414 1138 1382 c 0
 1138 1336.66699219 1116.33300781 1299.33300781 1073 1270 c 1
803 238 m 0
 766.333007812 238 748 218.666992188 748 180 c 0
 748 140.666992188 766.333007812 121 803 121 c 0
 840.333007812 121 859 140.666992188 859 180 c 0
 859 218.666992188 840.333007812 238 803 238 c 0
498 448 m 1
 506 420.666992188 513.166992188 396.166992188 519.5 374.5 c 128
 525.833007812 352.833007812 531.333007812 329.333007812 536 304 c 1
 540 302 546 301 554 301 c 0
 610 317.666992188 678.833007812 332.333007812 760.5 345 c 128
 842.166992188 357.666992188 930 364 1024 364 c 0
 1120 364 1209.33300781 357.5 1292 344.5 c 128
 1374.66699219 331.5 1444 316.666992188 1500 300 c 0
 1503.33300781 300 1508.33300781 301.333007812 1515 304 c 1
 1519 328 1524.33300781 350.5 1531 371.5 c 128
 1537.66699219 392.5 1545 417 1553 445 c 1
 1477 462.333007812 1394 479.333007812 1304 496 c 128
 1214 512.666992188 1120.66699219 521 1024 521 c 256
 927.333007812 521 835 512.833007812 747 496.5 c 128
 659 480.166992188 576 464 498 448 c 1
1502 133 m 1
 1430 202 l 1
 1338 165 l 1
 1411 96 l 1
 1502 133 l 1
1151 204 m 1
 1022 271 l 1
 898 204 l 1
 1027 136 l 1
 1151 204 l 1
719 164 m 1
 618 198 l 1
 538 135 l 1
 638 101 l 1
 719 164 l 1
1244 238 m 256
 1206.66699219 238 1188 218.666992188 1188 180 c 0
 1188 140.666992188 1206.66699219 121 1244 121 c 256
 1281.33300781 121 1300 140.666992188 1300 180 c 0
 1300 218.666992188 1281.33300781 238 1244 238 c 256
1463 -109 m 1
 1459 -89 1454.33300781 -72.3330078125 1449 -59 c 0
 1441 -41.6669921875 1433 -30.1669921875 1425 -24.5 c 128
 1417 -18.8330078125 1409.66699219 -11.3330078125 1403 -2 c 1
 1367.66699219 20.6669921875 1318.16699219 40.1669921875 1254.5 56.5 c 128
 1190.83300781 72.8330078125 1114 80 1024 78 c 1
 932 80 854.666992188 72.8330078125 792 56.5 c 128
 729.333007812 40.1669921875 680.666992188 20.6669921875 646 -2 c 0
 637.333007812 -10 629 -17.1669921875 621 -23.5 c 128
 613 -29.8330078125 606 -41.3330078125 600 -58 c 0
 593.333007812 -78 588.666992188 -95 586 -109 c 0
 584.666992188 -131.666992188 594.666992188 -143 616 -143 c 0
 636 -143 646 -132 646 -110 c 0
 652 -40.6669921875 777.333007812 -6 1022 -6 c 0
 1269.33300781 -6 1396.33300781 -40.6669921875 1403 -110 c 1
 1401.66699219 -132 1411.66699219 -143 1433 -143 c 0
 1453 -143 1463 -131.666992188 1463 -109 c 1
EndSplineSet
Validated: 37
EndChar

StartChar: U
Encoding: 85 85 23
Width: 2048
VWidth: 1778
Flags: HW
LayerCount: 2
Fore
SplineSet
1452 99 m 5
 1479.33300781 102.333007812 1493 118 1493 146 c 4
 1493 165.333007812 1485 179.333007812 1469 188 c 4
 1359 236.666992188 1210.66699219 261 1024 261 c 4
 833.333007812 261 683.666992188 236 575 186 c 5
 562.333007812 175.333007812 556 162 556 146 c 4
 556 114 571.333007812 98.6669921875 602 100 c 5
 709.333007812 142 850 163 1024 163 c 4
 1199.33300781 163 1342 141.666992188 1452 99 c 5
1581 182 m 4
 1585 170 1587 156.666992188 1587 142 c 4
 1587 102 1572.66699219 71.6669921875 1544 51 c 4
 1543.33300781 47.6669921875 1541.66699219 36.3330078125 1539 17 c 5
 1563 -17 1575 -45 1575 -67 c 4
 1575 -123 1521.16699219 -170.833007812 1413.5 -210.5 c 132
 1305.83300781 -250.166992188 1176 -270 1024 -270 c 260
 872 -270 742.333007812 -250.166992188 635 -210.5 c 132
 527.666992188 -170.833007812 474 -123 474 -67 c 4
 474 -43.6669921875 487 -15 513 19 c 5
 511.666992188 24.3330078125 510.333007812 29.5 509 34.5 c 132
 507.666992188 39.5 506.666992188 44.3330078125 506 49 c 5
 476.666992188 71 462 102 462 142 c 4
 462 154 464 167 468 181 c 4
 474.666992188 197.666992188 473.333007812 210.666992188 464 220 c 132
 454.666992188 229.333007812 444.333007812 242.333007812 433 259 c 5
 421.666992188 295 416 318 416 328 c 4
 416.666992188 334 417.833007812 340.666992188 419.5 348 c 132
 421.166992188 355.333007812 422 364 422 374 c 5
 393.333007812 403.333007812 363 431.166992188 331 457.5 c 132
 299 483.833007812 274.333007812 515.666992188 257 553 c 4
 235 597 215.166992188 641.333007812 197.5 686 c 132
 179.833007812 730.666992188 171 775 171 819 c 4
 171 901 192.833007812 970.333007812 236.5 1027 c 132
 280.166992188 1083.66699219 338.666992188 1128 412 1160 c 5
 510.666992188 1166.66699219 552.333007812 1170 537 1170 c 5
 653.666992188 1170 759.333007812 1127 854 1041 c 5
 854 1392 l 5
 1195 1392 l 5
 1195 1040 l 5
 1288.33300781 1126.66699219 1394 1170 1512 1170 c 5
 1496 1170 1537.66699219 1166.66699219 1637 1160 c 5
 1709.66699219 1128 1767.83300781 1083.66699219 1811.5 1027 c 132
 1855.16699219 970.333007812 1877 901 1877 819 c 4
 1877 775 1868.33300781 730.833007812 1851 686.5 c 132
 1833.66699219 642.166992188 1814.66699219 598 1794 554 c 4
 1776 516 1751 483 1719 455 c 132
 1687 427 1656.33300781 399 1627 371 c 5
 1627 363 1627.83300781 355.333007812 1629.5 348 c 132
 1631.16699219 340.666992188 1632.33300781 334 1633 328 c 4
 1633.66699219 318.666992188 1628.33300781 295.666992188 1617 259 c 5
 1605 242.333007812 1594.33300781 229.333007812 1585 220 c 132
 1575.66699219 210.666992188 1574.33300781 198 1581 182 c 4
1024 1070 m 260
 955.333007812 1070 921 1035.66699219 921 967 c 260
 921 898.333007812 955.333007812 864 1024 864 c 260
 1092.66699219 864 1127 898.333007812 1127 967 c 260
 1127 1035.66699219 1092.66699219 1070 1024 1070 c 260
984 1230 m 5
 913 1299 l 5
 913 1146 l 5
 984 1203 l 5
 982.666992188 1207 982 1211.33300781 982 1216 c 4
 982 1222 982.666992188 1226.66699219 984 1230 c 5
1007 1177 m 5
 947 1112 l 5
 1101 1112 l 5
 1038 1176 l 5
 1034.66699219 1174.66699219 1030 1174 1024 1174 c 4
 1018.66699219 1174 1013 1175 1007 1177 c 5
1064 1200 m 5
 1135 1146 l 5
 1135 1299 l 5
 1063 1233 l 5
 1065.66699219 1228.33300781 1067 1222.66699219 1067 1216 c 4
 1067 1215.33300781 1066 1210 1064 1200 c 5
1036 1257 m 5
 1101 1334 l 5
 947 1334 l 5
 1008 1256 l 5
 1012.66699219 1258 1018 1259 1024 1259 c 4
 1028 1259 1032 1258.33300781 1036 1257 c 5
960 477 m 5
 959.333007812 563 952 649.666992188 938 737 c 132
 924 824.333007812 910 877.333007812 896 896 c 4
 809.333007812 991.333007812 711.333007812 1039 602 1039 c 4
 507.333007812 1039 436 1007.66699219 388 945 c 4
 356 905 340 851 340 783 c 4
 340 643 392 512 496 390 c 5
 508 395.333007812 519.666992188 400.166992188 531 404.5 c 132
 542.333007812 408.833007812 554 413.333007812 566 418 c 5
 559.333007812 431.333007812 553 444.333007812 547 457 c 132
 541 469.666992188 534.666992188 486.333007812 528 507 c 4
 514 544.333007812 508.666992188 581 512 617 c 4
 516.666992188 639 528.666992188 650 548 650 c 4
 556 650 567 642.666992188 581 628 c 5
 577.666992188 648 576 660 576 664 c 4
 576 728 603.666992188 768 659 784 c 5
 681 782.666992188 703.833007812 769.333007812 727.5 744 c 132
 751.166992188 718.666992188 767 688.666992188 775 654 c 5
 781 674.666992188 789.5 686.5 800.5 689.5 c 132
 811.5 692.5 819 694 823 694 c 4
 831 694 838 691.666992188 844 687 c 4
 867.333007812 660.333007812 882.333007812 618 889 560 c 4
 890.333007812 547.333007812 891.166992188 535 891.5 523 c 132
 891.833007812 511 893 494.333007812 895 473 c 5
 917 477 938.666992188 478.333007812 960 477 c 5
646 454 m 4
 640.666992188 469.333007812 634.833007812 486.333007812 628.5 505 c 132
 622.166992188 523.666992188 614 543.666992188 604 565 c 4
 598 575.666992188 591 581 583 581 c 4
 572.333007812 581 566.666992188 571.333007812 566 552 c 4
 564.666992188 536 580.666992188 499.666992188 614 443 c 5
 634 449.666992188 644.666992188 453.333007812 646 454 c 4
746 469 m 5
 744.666992188 553.666992188 731.666992188 624.333007812 707 681 c 4
 699 695 687.333007812 702 672 702 c 4
 653.333007812 702 644 692.333007812 644 673 c 4
 642.666992188 671.666992188 642 663 642 647 c 4
 642 617 658.666992188 554.333007812 692 459 c 5
 718 464.333007812 736 467.666992188 746 469 c 5
840 479 m 5
 843.333007812 532.333007812 841 575.666992188 833 609 c 4
 829 621 822.666992188 627.666992188 814 629 c 4
 800.666992188 631.666992188 791 624.333007812 785 607 c 5
 779.666992188 577.666992188 784.666992188 533.333007812 800 474 c 5
 812 477.333007812 825.333007812 479 840 479 c 5
1471 -17 m 5
 1464.33300781 31 1397.66699219 67.6669921875 1271 93 c 4
 1231 101 1190.5 105.666992188 1149.5 107 c 132
 1108.5 108.333007812 1066.66699219 110 1024 112 c 5
 982 108 942.666992188 105 906 103 c 132
 869.333007812 101 836 97 806 91 c 4
 659.333007812 61.6669921875 583.666992188 25.6669921875 579 -17 c 5
 574.333007812 -23.6669921875 572 -32 572 -42 c 4
 572 -72 596 -102 644 -132 c 5
 644 -102 649 -79 659 -63 c 4
 669 -51 681.666992188 -35.6669921875 697 -17 c 5
 757.666992188 19 867.666992188 35 1027 31 c 5
 1183 35 1291.66699219 19 1353 -17 c 5
 1367.66699219 -35.6669921875 1380.33300781 -51 1391 -63 c 5
 1401 -79 1406 -102 1406 -132 c 5
 1454 -102 1478 -72 1478 -42 c 4
 1478 -34 1475.66699219 -25.6669921875 1471 -17 c 5
1355 -110 m 5
 1355 -50 1244.33300781 -20 1023 -20 c 4
 804.333007812 -20 695 -50 695 -110 c 5
 709.666992188 -169.333007812 820.333007812 -199 1027 -199 c 4
 1230.33300781 -199 1339.66699219 -169.333007812 1355 -110 c 5
1552 391 m 5
 1652 515 1702 645.666992188 1702 783 c 4
 1702 849.666992188 1686 903.666992188 1654 945 c 4
 1605.33300781 1007.66699219 1534 1039 1440 1039 c 4
 1330 1039 1232 991.333007812 1146 896 c 4
 1131.33300781 877.333007812 1117 824.333007812 1103 737 c 132
 1089 649.666992188 1081.66699219 563 1081 477 c 5
 1106.33300781 479 1128.66699219 477.666992188 1148 473 c 5
 1148.66699219 494.333007812 1149.16699219 511 1149.5 523 c 132
 1149.83300781 535 1151 547.333007812 1153 560 c 4
 1159 618 1174 660.333007812 1198 687 c 4
 1203.33300781 691.666992188 1210.33300781 694 1219 694 c 4
 1222.33300781 694 1229.66699219 692.5 1241 689.5 c 132
 1252.33300781 686.5 1261 674.666992188 1267 654 c 5
 1275 688.666992188 1290.83300781 718.666992188 1314.5 744 c 132
 1338.16699219 769.333007812 1361 782.666992188 1383 784 c 5
 1438.33300781 768 1466 728 1466 664 c 4
 1466 660 1464.33300781 648 1461 628 c 5
 1474.33300781 642.666992188 1485.33300781 650 1494 650 c 4
 1512.66699219 650 1524.66699219 639 1530 617 c 5
 1532.66699219 581 1527.33300781 544.333007812 1514 507 c 4
 1506.66699219 486.333007812 1499.83300781 469.666992188 1493.5 457 c 132
 1487.16699219 444.333007812 1481 431.666992188 1475 419 c 5
 1487.66699219 414.333007812 1500.66699219 409.833007812 1514 405.5 c 132
 1527.33300781 401.166992188 1540 396.333007812 1552 391 c 5
1396 454 m 4
 1397.33300781 453.333007812 1408 449.666992188 1428 443 c 5
 1460.66699219 499.666992188 1476.66699219 536 1476 552 c 4
 1474.66699219 571.333007812 1469 581 1459 581 c 4
 1450.33300781 581 1443.33300781 575.666992188 1438 565 c 4
 1428 543.666992188 1419.66699219 523.666992188 1413 505 c 132
 1406.33300781 486.333007812 1400.66699219 469.333007812 1396 454 c 4
1296 469 m 5
 1305.33300781 467.666992188 1323.33300781 464.333007812 1350 459 c 5
 1383.33300781 554.333007812 1400 617 1400 647 c 4
 1400 663 1399.33300781 671.666992188 1398 673 c 4
 1398 692.333007812 1388.66699219 702 1370 702 c 4
 1354 702 1342.33300781 695 1335 681 c 4
 1309.66699219 624.333007812 1296.66699219 553.666992188 1296 469 c 5
1202 479 m 5
 1215.33300781 479 1228.66699219 477.333007812 1242 474 c 5
 1256.66699219 533.333007812 1261.66699219 577.666992188 1257 607 c 5
 1250.33300781 624.333007812 1240.66699219 631.666992188 1228 629 c 4
 1218.66699219 627.666992188 1212.33300781 621 1209 609 c 4
 1200.33300781 575.666992188 1198 532.333007812 1202 479 c 5
1500 258 m 5
 1530 261.333007812 1545 278 1545 308 c 4
 1545 327.333007812 1536.33300781 342 1519 352 c 5
 1463 374.666992188 1391.83300781 393.166992188 1305.5 407.5 c 132
 1219.16699219 421.833007812 1125.33300781 429 1024 429 c 4
 810.666992188 429 644.333007812 402.666992188 525 350 c 5
 511 338.666992188 504 324.666992188 504 308 c 4
 504 274 520.666992188 257.666992188 554 259 c 5
 672.666992188 303.666992188 829.333007812 326 1024 326 c 4
 1220 326 1378.66699219 303.333007812 1500 258 c 5
EndSplineSet
EndChar

StartChar: V
Encoding: 86 86 24
Width: 2048
VWidth: 1638
Flags: HW
LayerCount: 2
Fore
SplineSet
1444 116 m 5
 1471.33300781 119.333007812 1485 135 1485 163 c 4
 1485 182.333007812 1477 196.333007812 1461 205 c 4
 1351 253.666992188 1202.66699219 278 1016 278 c 4
 825.333007812 278 675.666992188 253 567 203 c 5
 554.333007812 192.333007812 548 179 548 163 c 4
 548 131 563.333007812 115.666992188 594 117 c 5
 701.333007812 159 842 180 1016 180 c 4
 1191.33300781 180 1334 158.666992188 1444 116 c 5
1573 199 m 4
 1577 187 1579 173.666992188 1579 159 c 4
 1579 119 1564.66699219 88.6669921875 1536 68 c 4
 1535.33300781 64.6669921875 1533.66699219 53.3330078125 1531 34 c 5
 1555 0 1567 -28 1567 -50 c 4
 1567 -106 1513.16699219 -153.833007812 1405.5 -193.5 c 132
 1297.83300781 -233.166992188 1168 -253 1016 -253 c 260
 864 -253 734.333007812 -233.166992188 627 -193.5 c 132
 519.666992188 -153.833007812 466 -106 466 -50 c 4
 466 -26.6669921875 479 2 505 36 c 5
 503.666992188 41.3330078125 502.333007812 46.5 501 51.5 c 132
 499.666992188 56.5 498.666992188 61.3330078125 498 66 c 5
 468.666992188 88 454 119 454 159 c 4
 454 171 456 184 460 198 c 4
 466.666992188 214.666992188 465.333007812 227.666992188 456 237 c 132
 446.666992188 246.333007812 436.333007812 259.333007812 425 276 c 5
 413.666992188 312 408 335 408 345 c 4
 408.666992188 351 409.833007812 357.666992188 411.5 365 c 132
 413.166992188 372.333007812 414 381 414 391 c 5
 385.333007812 420.333007812 355 448.166992188 323 474.5 c 132
 291 500.833007812 266.333007812 532.666992188 249 570 c 4
 227 614 207.166992188 658.333007812 189.5 703 c 132
 171.833007812 747.666992188 163 792 163 836 c 4
 163 918 184.833007812 987.333007812 228.5 1044 c 132
 272.166992188 1100.66699219 330.666992188 1145 404 1177 c 5
 502.666992188 1183.66699219 544.333007812 1187 529 1187 c 5
 645.666992188 1187 751.333007812 1144 846 1058 c 5
 846 1409 l 5
 1187 1409 l 5
 1187 1057 l 5
 1280.33300781 1143.66699219 1386 1187 1504 1187 c 5
 1488 1187 1529.66699219 1183.66699219 1629 1177 c 5
 1701.66699219 1145 1759.83300781 1100.66699219 1803.5 1044 c 132
 1847.16699219 987.333007812 1869 918 1869 836 c 4
 1869 792 1860.33300781 747.833007812 1843 703.5 c 132
 1825.66699219 659.166992188 1806.66699219 615 1786 571 c 4
 1768 533 1743 500 1711 472 c 132
 1679 444 1648.33300781 416 1619 388 c 5
 1619 380 1619.83300781 372.333007812 1621.5 365 c 132
 1623.16699219 357.666992188 1624.33300781 351 1625 345 c 4
 1625.66699219 335.666992188 1620.33300781 312.666992188 1609 276 c 5
 1597 259.333007812 1586.33300781 246.333007812 1577 237 c 132
 1567.66699219 227.666992188 1566.33300781 215 1573 199 c 4
1016 1087 m 260
 947.333007812 1087 913 1052.66699219 913 984 c 260
 913 915.333007812 947.333007812 881 1016 881 c 260
 1084.66699219 881 1119 915.333007812 1119 984 c 260
 1119 1052.66699219 1084.66699219 1087 1016 1087 c 260
976 1247 m 5
 905 1316 l 5
 905 1163 l 5
 976 1220 l 5
 974.666992188 1224 974 1228.33300781 974 1233 c 4
 974 1239 974.666992188 1243.66699219 976 1247 c 5
999 1194 m 5
 939 1129 l 5
 1093 1129 l 5
 1030 1193 l 5
 1026.66699219 1191.66699219 1022 1191 1016 1191 c 4
 1010.66699219 1191 1005 1192 999 1194 c 5
1056 1217 m 5
 1127 1163 l 5
 1127 1316 l 5
 1055 1250 l 5
 1057.66699219 1245.33300781 1059 1239.66699219 1059 1233 c 4
 1059 1232.33300781 1058 1227 1056 1217 c 5
1028 1274 m 5
 1093 1351 l 5
 939 1351 l 5
 1000 1273 l 5
 1004.66699219 1275 1010 1276 1016 1276 c 4
 1020 1276 1024 1275.33300781 1028 1274 c 5
952 494 m 5
 951.333007812 580 944 666.666992188 930 754 c 132
 916 841.333007812 902 894.333007812 888 913 c 4
 801.333007812 1008.33300781 703.333007812 1056 594 1056 c 4
 499.333007812 1056 428 1024.66699219 380 962 c 4
 348 922 332 868 332 800 c 4
 332 660 384 529 488 407 c 5
 500 412.333007812 511.666992188 417.166992188 523 421.5 c 132
 534.333007812 425.833007812 546 430.333007812 558 435 c 5
 551.333007812 448.333007812 545 461.333007812 539 474 c 132
 533 486.666992188 526.666992188 503.333007812 520 524 c 4
 506 561.333007812 500.666992188 598 504 634 c 4
 508.666992188 656 520.666992188 667 540 667 c 4
 548 667 559 659.666992188 573 645 c 5
 569.666992188 665 568 677 568 681 c 4
 568 745 595.666992188 785 651 801 c 5
 673 799.666992188 695.833007812 786.333007812 719.5 761 c 132
 743.166992188 735.666992188 759 705.666992188 767 671 c 5
 773 691.666992188 781.5 703.5 792.5 706.5 c 132
 803.5 709.5 811 711 815 711 c 4
 823 711 830 708.666992188 836 704 c 4
 859.333007812 677.333007812 874.333007812 635 881 577 c 4
 882.333007812 564.333007812 883.166992188 552 883.5 540 c 132
 883.833007812 528 885 511.333007812 887 490 c 5
 909 494 930.666992188 495.333007812 952 494 c 5
638 471 m 4
 632.666992188 486.333007812 626.833007812 503.333007812 620.5 522 c 132
 614.166992188 540.666992188 606 560.666992188 596 582 c 4
 590 592.666992188 583 598 575 598 c 4
 564.333007812 598 558.666992188 588.333007812 558 569 c 4
 556.666992188 553 572.666992188 516.666992188 606 460 c 5
 626 466.666992188 636.666992188 470.333007812 638 471 c 4
738 486 m 5
 736.666992188 570.666992188 723.666992188 641.333007812 699 698 c 4
 691 712 679.333007812 719 664 719 c 4
 645.333007812 719 636 709.333007812 636 690 c 4
 634.666992188 688.666992188 634 680 634 664 c 4
 634 634 650.666992188 571.333007812 684 476 c 5
 710 481.333007812 728 484.666992188 738 486 c 5
832 496 m 5
 835.333007812 549.333007812 833 592.666992188 825 626 c 4
 821 638 814.666992188 644.666992188 806 646 c 4
 792.666992188 648.666992188 783 641.333007812 777 624 c 5
 771.666992188 594.666992188 776.666992188 550.333007812 792 491 c 5
 804 494.333007812 817.333007812 496 832 496 c 5
1463 0 m 5
 1456.33300781 48 1389.66699219 84.6669921875 1263 110 c 4
 1223 118 1182.5 122.666992188 1141.5 124 c 132
 1100.5 125.333007812 1058.66699219 127 1016 129 c 5
 974 125 934.666992188 122 898 120 c 132
 861.333007812 118 828 114 798 108 c 4
 651.333007812 78.6669921875 575.666992188 42.6669921875 571 0 c 5
 566.333007812 -6.6669921875 564 -15 564 -25 c 4
 564 -55 588 -85 636 -115 c 5
 636 -85 641 -62 651 -46 c 4
 661 -34 673.666992188 -18.6669921875 689 0 c 5
 749.666992188 36 859.666992188 52 1019 48 c 5
 1175 52 1283.66699219 36 1345 0 c 5
 1359.66699219 -18.6669921875 1372.33300781 -34 1383 -46 c 5
 1393 -62 1398 -85 1398 -115 c 5
 1446 -85 1470 -55 1470 -25 c 4
 1470 -17 1467.66699219 -8.6669921875 1463 0 c 5
1347 -93 m 5
 1347 -33 1236.33300781 -3 1015 -3 c 4
 796.333007812 -3 687 -33 687 -93 c 5
 701.666992188 -152.333007812 812.333007812 -182 1019 -182 c 4
 1222.33300781 -182 1331.66699219 -152.333007812 1347 -93 c 5
1544 408 m 5
 1644 532 1694 662.666992188 1694 800 c 4
 1694 866.666992188 1678 920.666992188 1646 962 c 4
 1597.33300781 1024.66699219 1526 1056 1432 1056 c 4
 1322 1056 1224 1008.33300781 1138 913 c 4
 1123.33300781 894.333007812 1109 841.333007812 1095 754 c 132
 1081 666.666992188 1073.66699219 580 1073 494 c 5
 1098.33300781 496 1120.66699219 494.666992188 1140 490 c 5
 1140.66699219 511.333007812 1141.16699219 528 1141.5 540 c 132
 1141.83300781 552 1143 564.333007812 1145 577 c 4
 1151 635 1166 677.333007812 1190 704 c 4
 1195.33300781 708.666992188 1202.33300781 711 1211 711 c 4
 1214.33300781 711 1221.66699219 709.5 1233 706.5 c 132
 1244.33300781 703.5 1253 691.666992188 1259 671 c 5
 1267 705.666992188 1282.83300781 735.666992188 1306.5 761 c 132
 1330.16699219 786.333007812 1353 799.666992188 1375 801 c 5
 1430.33300781 785 1458 745 1458 681 c 4
 1458 677 1456.33300781 665 1453 645 c 5
 1466.33300781 659.666992188 1477.33300781 667 1486 667 c 4
 1504.66699219 667 1516.66699219 656 1522 634 c 5
 1524.66699219 598 1519.33300781 561.333007812 1506 524 c 4
 1498.66699219 503.333007812 1491.83300781 486.666992188 1485.5 474 c 132
 1479.16699219 461.333007812 1473 448.666992188 1467 436 c 5
 1479.66699219 431.333007812 1492.66699219 426.833007812 1506 422.5 c 132
 1519.33300781 418.166992188 1532 413.333007812 1544 408 c 5
1388 471 m 4
 1389.33300781 470.333007812 1400 466.666992188 1420 460 c 5
 1452.66699219 516.666992188 1468.66699219 553 1468 569 c 4
 1466.66699219 588.333007812 1461 598 1451 598 c 4
 1442.33300781 598 1435.33300781 592.666992188 1430 582 c 4
 1420 560.666992188 1411.66699219 540.666992188 1405 522 c 132
 1398.33300781 503.333007812 1392.66699219 486.333007812 1388 471 c 4
1288 486 m 5
 1297.33300781 484.666992188 1315.33300781 481.333007812 1342 476 c 5
 1375.33300781 571.333007812 1392 634 1392 664 c 4
 1392 680 1391.33300781 688.666992188 1390 690 c 4
 1390 709.333007812 1380.66699219 719 1362 719 c 4
 1346 719 1334.33300781 712 1327 698 c 4
 1301.66699219 641.333007812 1288.66699219 570.666992188 1288 486 c 5
1194 496 m 5
 1207.33300781 496 1220.66699219 494.333007812 1234 491 c 5
 1248.66699219 550.333007812 1253.66699219 594.666992188 1249 624 c 5
 1242.33300781 641.333007812 1232.66699219 648.666992188 1220 646 c 4
 1210.66699219 644.666992188 1204.33300781 638 1201 626 c 4
 1192.33300781 592.666992188 1190 549.333007812 1194 496 c 5
1492 275 m 5
 1522 278.333007812 1537 295 1537 325 c 4
 1537 344.333007812 1528.33300781 359 1511 369 c 5
 1455 391.666992188 1383.83300781 410.166992188 1297.5 424.5 c 132
 1211.16699219 438.833007812 1117.33300781 446 1016 446 c 4
 802.666992188 446 636.333007812 419.666992188 517 367 c 5
 503 355.666992188 496 341.666992188 496 325 c 4
 496 291 512.666992188 274.666992188 546 276 c 5
 664.666992188 320.666992188 821.333007812 343 1016 343 c 4
 1212 343 1370.66699219 320.333007812 1492 275 c 5
1353 -410 m 1
 2048 281 l 1
 2048 236 l 1
 1402 -410 l 1
 1353 -410 l 1
1630 -410 m 1
 2048 6 l 1
 2048 -40 l 1
 1677 -410 l 1
 1630 -410 l 1
0 1513 m 1
 0 1557 l 1
 79 1637 l 1
 124 1637 l 1
 0 1513 l 1
1949 -410 m 1
 1906 -410 l 1
 2048 -270 l 1
 2048 -315 l 1
 1949 -410 l 1
0 1281 m 1
 356 1637 l 1
 401 1637 l 1
 0 1237 l 1
 0 1281 l 1
0 1003 m 1
 632 1637 l 1
 677 1637 l 1
 0 960 l 1
 0 1003 l 1
554 1236 m 1
 954 1637 l 1
 909 1637 l 1
 510 1236 l 1
 524.666992188 1236.66699219 539.333007812 1236.66699219 554 1236 c 1
106 832 m 1
 106 818 107 804.666992188 109 792 c 1
 0 684 l 1
 0 726 l 1
 106 832 l 1
163 611 m 1
 167 599.666992188 171.666992188 589.333007812 177 580 c 1
 0 404 l 1
 0 448 l 1
 163 611 l 1
267 441 m 1
 281 427.666992188 289 420.333007812 291 419 c 2
 0 127 l 1
 0 175 l 1
 267 441 l 1
364 261 m 1
 365.333007812 255.666992188 366.833007812 250.166992188 368.5 244.5 c 128
 370.166992188 238.833007812 372 233 374 227 c 1
 0 -149 l 1
 0 -101 l 1
 364 261 l 1
419 40 m 1
 425.666992188 26.6669921875 431.666992188 18 437 14 c 1
 13 -410 l 1
 4.3330078125 -410 0 -399.333007812 0 -378 c 1
 419 40 l 1
471 -181 m 1
 476.333007812 -185 485 -191 497 -199 c 1
 286 -410 l 1
 241 -410 l 1
 471 -181 l 1
661 -268 m 1
 680.333007812 -274 692 -277 696 -277 c 1
 563 -410 l 1
 518 -410 l 1
 661 -268 l 1
896 -308 m 1
 904.666992188 -308.666992188 919 -309.666992188 939 -311 c 1
 839 -410 l 1
 794 -410 l 1
 896 -308 l 1
1182 -305 m 1
 1199.33300781 -304.333007812 1217 -302.333007812 1235 -299 c 1
 1124 -410 l 1
 1077 -410 l 1
 1182 -305 l 1
1642 108 m 1
 1640.66699219 122.666992188 1638.33300781 135.333007812 1635 146 c 1
 2048 560 l 1
 2048 513 l 1
 1642 108 l 1
1889 636 m 1
 1901 665.333007812 1910.33300781 690 1917 710 c 1
 2048 841 l 1
 2048 796 l 1
 1889 636 l 1
1927 953 m 1
 1923 967.666992188 1919.66699219 979 1917 987 c 1
 2048 1118 l 1
 2048 1073 l 1
 1927 953 l 1
1823 1125 m 1
 1799 1146 1799 1146 1799 1146 c 1
 2048 1394 l 1
 2048 1349 l 1
 1823 1125 l 1
1641 1221 m 1
 1633 1223 1621 1224.66699219 1605 1226 c 1
 2015 1637 l 1
 2037 1637 2048 1634.66699219 2048 1630 c 1
 1641 1221 l 1
1348 1200 m 1
 1315.33300781 1188.66699219 1285.33300781 1174.33300781 1258 1157 c 1
 1738 1637 l 1
 1783 1637 l 1
 1348 1200 l 1
1060 1467 m 1
 1015 1467 l 1
 1185 1637 l 1
 1230 1637 l 1
 1060 1467 l 1
1263 1392 m 1
 1262 1437 l 1
 1462 1637 l 1
 1507 1637 l 1
 1263 1392 l 1
EndSplineSet
Validated: 41
EndChar

StartChar: W
Encoding: 87 87 25
Width: 2048
VWidth: 1638
Flags: HW
LayerCount: 2
Fore
SplineSet
715 184 m 1
 618 216 l 1
 543 156 l 1
 638 124 l 1
 715 184 l 1
1580 181 m 0
 1584.66699219 167 1587 153.666992188 1587 141 c 0
 1587 101.666992188 1572.66699219 71.3330078125 1544 50 c 1
 1541.33300781 38.6669921875 1539.33300781 27.3330078125 1538 16 c 1
 1562.66699219 -18.6669921875 1575 -46.6669921875 1575 -68 c 0
 1575 -124 1521 -172 1413 -212 c 128
 1305 -252 1175.33300781 -272 1024 -272 c 0
 872 -272 742.166992188 -252 634.5 -212 c 128
 526.833007812 -172 473 -124 473 -68 c 0
 473 -46 486 -17.3330078125 512 18 c 1
 510.666992188 25.3330078125 508.666992188 35.6669921875 506 49 c 1
 476.666992188 70.3330078125 462 101 462 141 c 0
 462 153.666992188 464 166.666992188 468 180 c 0
 474.666992188 196.666992188 473.333007812 209.666992188 464 219 c 128
 454.666992188 228.333007812 444 241.333007812 432 258 c 1
 421.333007812 291.333007812 416 314.333007812 416 327 c 0
 416.666992188 333 417.833007812 339.666992188 419.5 347 c 128
 421.166992188 354.333007812 422 363 422 373 c 1
 392.666992188 402.333007812 362.166992188 430.166992188 330.5 456.5 c 128
 298.833007812 482.833007812 274 514.666992188 256 552 c 0
 234.666992188 596 215.166992188 640.5 197.5 685.5 c 128
 179.833007812 730.5 171 774.666992188 171 818 c 0
 171 900 192.666992188 969.333007812 236 1026 c 128
 279.333007812 1082.66699219 338 1127 412 1159 c 1
 510.666992188 1165.66699219 552.333007812 1169 537 1169 c 1
 653 1169 758.333007812 1126 853 1040 c 1
 853 1391 l 1
 1194 1391 l 1
 1194 1039 l 1
 1288.66699219 1125.66699219 1394.66699219 1169 1512 1169 c 1
 1495.33300781 1169 1537 1165.66699219 1637 1159 c 1
 1709.66699219 1127 1767.83300781 1082.66699219 1811.5 1026 c 128
 1855.16699219 969.333007812 1877 900 1877 818 c 0
 1877 774.666992188 1868.16699219 730.666992188 1850.5 686 c 128
 1832.83300781 641.333007812 1813.66699219 597 1793 553 c 0
 1775 515 1750 482 1718 454 c 128
 1686 426 1655.66699219 398 1627 370 c 1
 1626.33300781 362 1626.83300781 354.333007812 1628.5 347 c 128
 1630.16699219 339.666992188 1631.33300781 333 1632 327 c 0
 1632.66699219 317.666992188 1627.33300781 294.666992188 1616 258 c 1
 1604 241.333007812 1593.5 228.333007812 1584.5 219 c 128
 1575.5 209.666992188 1574 197 1580 181 c 0
1024 1048 m 256
 955.333007812 1048 921 1013.66699219 921 945 c 256
 921 876.333007812 955.333007812 842 1024 842 c 256
 1092.66699219 842 1127 876.333007812 1127 945 c 256
 1127 1013.66699219 1092.66699219 1048 1024 1048 c 256
984 1229 m 1
 913 1298 l 1
 913 1145 l 1
 984 1202 l 1
 982 1204.66699219 981 1209 981 1215 c 0
 981 1219 982 1223.66699219 984 1229 c 1
1007 1176 m 1
 947 1111 l 1
 1101 1111 l 1
 1037 1175 l 1
 1030.33300781 1173.66699219 1026 1173 1024 1173 c 0
 1017.33300781 1173 1011.66699219 1174 1007 1176 c 1
1064 1199 m 1
 1135 1145 l 1
 1135 1298 l 1
 1063 1232 l 1
 1065 1226.66699219 1066 1221 1066 1215 c 0
 1066 1211 1065.33300781 1205.66699219 1064 1199 c 1
1036 1256 m 1
 1101 1333 l 1
 947 1333 l 1
 1008 1255 l 1
 1012 1257 1017.33300781 1258 1024 1258 c 0
 1026.66699219 1258 1030.66699219 1257.33300781 1036 1256 c 1
1145 215 m 1
 1022 274 l 1
 904 215 l 1
 1026 156 l 1
 1145 215 l 1
945 487 m 1
 944.333007812 569 937.333007812 651.5 924 734.5 c 128
 910.666992188 817.5 897.333007812 868 884 886 c 0
 801.333007812 977.333007812 708 1023 604 1023 c 0
 514.666992188 1023 446.666992188 993 400 933 c 0
 369.333007812 893.666992188 354 842 354 778 c 0
 354 644.666992188 403.666992188 520 503 404 c 1
 514.333007812 409.333007812 525.5 414 536.5 418 c 128
 547.5 422 558.666992188 426 570 430 c 1
 564 443.333007812 558 456 552 468 c 128
 546 480 539.666992188 495.666992188 533 515 c 0
 520.333007812 552.333007812 515.333007812 587.666992188 518 621 c 1
 522.666992188 641.666992188 534 652 552 652 c 0
 560 652 570.666992188 645 584 631 c 1
 580.666992188 649 579 660.333007812 579 665 c 0
 579 727 605.333007812 765.333007812 658 780 c 1
 713.333007812 777.333007812 750 736 768 656 c 1
 774 676 782.333007812 687.333007812 793 690 c 128
 803.666992188 692.666992188 810.666992188 694 814 694 c 0
 822 694 829 692 835 688 c 0
 857.666992188 660 871.666992188 619.333007812 877 566 c 0
 878.333007812 554 879.166992188 542.333007812 879.5 531 c 128
 879.833007812 519.666992188 881 503.666992188 883 483 c 1
 903.666992188 487 924.333007812 488.333007812 945 487 c 1
646 453 m 1
 640 468.333007812 633.833007812 485.333007812 627.5 504 c 128
 621.166992188 522.666992188 613 542.666992188 603 564 c 0
 597.666992188 574.666992188 591 580 583 580 c 0
 571.666992188 580 565.666992188 570.666992188 565 552 c 0
 563.666992188 536 580 499.333007812 614 442 c 1
 619.333007812 444 624.833007812 445.833007812 630.5 447.5 c 128
 636.166992188 449.166992188 641.333007812 451 646 453 c 1
746 468 m 1
 743.333007812 555.333007812 730.333007812 626 707 680 c 0
 699 694 687.333007812 701 672 701 c 0
 652.666992188 701 643 691.333007812 643 672 c 0
 642.333007812 671.333007812 642 662.666992188 642 646 c 0
 642 617.333007812 658.333007812 554.666992188 691 458 c 1
 719 463.333007812 737.333007812 466.666992188 746 468 c 1
840 478 m 1
 843.333007812 529.333007812 840.666992188 572.666992188 832 608 c 0
 829.333007812 619.333007812 823 626.333007812 813 629 c 0
 799 631 789.666992188 623.333007812 785 606 c 0
 779.666992188 577.333007812 784.333007812 533 799 473 c 1
 812.333007812 476.333007812 826 478 840 478 c 1
1470 -18 m 1
 1464.66699219 30 1398 66.6669921875 1270 92 c 0
 1230 100 1189.66699219 104.666992188 1149 106 c 128
 1108.33300781 107.333007812 1066.66699219 109 1024 111 c 1
 982 107 942.5 104 905.5 102 c 128
 868.5 100 835 96 805 90 c 0
 657.666992188 60 582.333007812 24 579 -18 c 1
 573.666992188 -26 571 -34.3330078125 571 -43 c 0
 571 -73 595 -103 643 -133 c 1
 643 -102.333007812 648.333007812 -79.3330078125 659 -64 c 0
 665 -56.6669921875 671.166992188 -49.1669921875 677.5 -41.5 c 128
 683.833007812 -33.8330078125 690.333007812 -26 697 -18 c 1
 757 18 866.666992188 34 1026 30 c 1
 1182 34 1290.66699219 18 1352 -18 c 1
 1366.66699219 -36.6669921875 1379.33300781 -52 1390 -64 c 0
 1400.66699219 -80.6669921875 1406 -103.666992188 1406 -133 c 1
 1454 -103 1478 -73 1478 -43 c 0
 1478 -34.3330078125 1475.33300781 -26 1470 -18 c 1
1354 -111 m 1
 1354 -51 1243.33300781 -21 1022 -21 c 0
 804 -21 695 -51 695 -111 c 1
 709 -170.333007812 819.333007812 -200 1026 -200 c 0
 1229.33300781 -200 1338.66699219 -170.333007812 1354 -111 c 1
1342 184 m 1
 1418 124 l 1
 1514 156 l 1
 1438 216 l 1
 1342 184 l 1
1544 405 m 1
 1639.33300781 523 1687 647.333007812 1687 778 c 0
 1687 842 1671.66699219 893.666992188 1641 933 c 0
 1593.66699219 993 1525.66699219 1023 1437 1023 c 0
 1332.33300781 1023 1239 977.333007812 1157 886 c 0
 1143 868 1129.33300781 817.5 1116 734.5 c 128
 1102.66699219 651.5 1095.66699219 569 1095 487 c 1
 1119 489 1140.33300781 487.666992188 1159 483 c 1
 1159.66699219 503.666992188 1160.16699219 519.666992188 1160.5 531 c 128
 1160.83300781 542.333007812 1162 554 1164 566 c 0
 1168.66699219 619.333007812 1182.66699219 660 1206 688 c 0
 1211.33300781 692 1218.33300781 694 1227 694 c 0
 1230.33300781 694 1237.33300781 692.666992188 1248 690 c 128
 1258.66699219 687.333007812 1267 676 1273 656 c 1
 1290.33300781 736 1327 777.333007812 1383 780 c 1
 1435.66699219 765.333007812 1462 727 1462 665 c 0
 1462 660.333007812 1460.33300781 649 1457 631 c 1
 1469.66699219 645 1480.33300781 652 1489 652 c 0
 1506.33300781 652 1517.66699219 641.666992188 1523 621 c 1
 1525 587.666992188 1520 552.333007812 1508 515 c 0
 1500.66699219 495.666992188 1494.16699219 480 1488.5 468 c 128
 1482.83300781 456 1477 444 1471 432 c 1
 1483 427.333007812 1495.16699219 422.833007812 1507.5 418.5 c 128
 1519.83300781 414.166992188 1532 409.666992188 1544 405 c 1
1395 453 m 1
 1399 451 1403.83300781 449.166992188 1409.5 447.5 c 128
 1415.16699219 445.833007812 1421 444 1427 442 c 1
 1460.33300781 499.333007812 1476.66699219 536 1476 552 c 0
 1474.66699219 570.666992188 1468.66699219 580 1458 580 c 0
 1449.33300781 580 1442.66699219 574.666992188 1438 564 c 0
 1427.33300781 542.666992188 1418.83300781 522.666992188 1412.5 504 c 128
 1406.16699219 485.333007812 1400.33300781 468.333007812 1395 453 c 1
1295 468 m 1
 1303 466.666992188 1321.33300781 463.333007812 1350 458 c 1
 1382.66699219 554.666992188 1399 617.333007812 1399 646 c 0
 1399 662.666992188 1398.66699219 671.333007812 1398 672 c 0
 1398 691.333007812 1388.33300781 701 1369 701 c 0
 1353 701 1341.33300781 694 1334 680 c 0
 1310 626 1297 555.333007812 1295 468 c 1
1201 478 m 1
 1215 478 1228.66699219 476.333007812 1242 473 c 1
 1256 533 1260.66699219 577.333007812 1256 606 c 0
 1250.66699219 623.333007812 1241.33300781 631 1228 629 c 0
 1217.33300781 626.333007812 1211 619.333007812 1209 608 c 0
 1199.66699219 572.666992188 1197 529.333007812 1201 478 c 1
1500 257 m 1
 1530 260.333007812 1545 277 1545 307 c 0
 1545 326.333007812 1536.33300781 341 1519 351 c 1
 1463 373.666992188 1391.83300781 392.166992188 1305.5 406.5 c 128
 1219.16699219 420.833007812 1125 428 1023 428 c 0
 809 428 643 401.666992188 525 349 c 1
 510.333007812 337.666992188 503 323.666992188 503 307 c 0
 503 273 520 256.666992188 554 258 c 1
 672.666992188 302.666992188 829 325 1023 325 c 0
 1219.66699219 325 1378.66699219 302.333007812 1500 257 c 1
EndSplineSet
Validated: 33
EndChar

